<svg width="39" height="39" viewBox="0 0 39 39" fill="none" xmlns="http://www.w3.org/2000/svg">
<path d="M38.5 10.2725L31.025 4L28.9288 6.48625L36.4037 12.7587L38.5 10.2725ZM15.555 6.48625L13.475 4L6 10.2563L8.09625 12.7425L15.555 6.48625ZM23.0625 13.9775H20.625V23.7275L28.3438 28.3588L29.5625 26.36L23.0625 22.5088V13.9775ZM22.25 7.4775C14.1737 7.4775 7.625 14.0263 7.625 22.1025C7.625 30.1788 14.1575 36.7275 22.25 36.7275C30.3263 36.7275 36.875 30.1788 36.875 22.1025C36.875 14.0263 30.3263 7.4775 22.25 7.4775ZM22.25 33.4775C15.9613 33.4775 10.875 28.3913 10.875 22.1025C10.875 15.8138 15.9613 10.7275 22.25 10.7275C28.5387 10.7275 33.625 15.8138 33.625 22.1025C33.625 28.3913 28.5387 33.4775 22.25 33.4775Z" fill="white"/>
</svg>
