<svg width="10" height="10" viewBox="0 0 10 10" fill="none" xmlns="http://www.w3.org/2000/svg">
<path fill-rule="evenodd" clip-rule="evenodd" d="M5.55556 3.61111H8.33333V2.5H5.55556V3.61111ZM5.55556 7.5H8.33333V6.38889H5.55556V7.5ZM8.88889 10H1.11111C0.5 10 0 9.5 0 8.88889V1.11111C0 0.5 0.5 0 1.11111 0H8.88889C9.5 0 10 0.5 10 1.11111V8.88889C10 9.5 9.5 10 8.88889 10ZM1.66667 4.44444H4.44444V1.66667H1.66667V4.44444ZM2.22222 2.22222H3.88889V3.88889H2.22222V2.22222ZM1.66667 8.33333H4.44444V5.55556H1.66667V8.33333ZM2.22222 6.11111H3.88889V7.77778H2.22222V6.11111Z" fill="#00CCA7"/>
</svg>
