<svg width="25" height="25" viewBox="0 0 25 25" fill="none" xmlns="http://www.w3.org/2000/svg">
<path d="M24.2188 12.8594C24.2188 19.5472 18.7972 24.9688 12.1094 24.9688C5.42153 24.9688 0 19.5472 0 12.8594C0 6.17153 5.42153 0.75 12.1094 0.75C18.7972 0.75 24.2188 6.17153 24.2188 12.8594ZM10.7087 19.2712L19.6931 10.2868C19.9981 9.98174 19.9981 9.48706 19.6931 9.18198L18.5882 8.07715C18.2832 7.77202 17.7885 7.77202 17.4833 8.07715L10.1562 15.4042L6.7354 11.9833C6.43032 11.6783 5.93564 11.6783 5.63052 11.9833L4.52568 13.0882C4.22061 13.3933 4.22061 13.8879 4.52568 14.193L9.60381 19.2711C9.90894 19.5763 10.4036 19.5763 10.7087 19.2712Z" fill="#00A386"/>
</svg>
