<svg width="278" height="254" viewBox="0 0 278 254" fill="none" xmlns="http://www.w3.org/2000/svg">
<path d="M149.159 253.371C212.066 253.371 263.063 249.86 263.063 245.529C263.063 241.198 212.066 237.688 149.159 237.688C86.2508 237.688 35.2539 241.198 35.2539 245.529C35.2539 249.86 86.2508 253.371 149.159 253.371Z" fill="#263238"/>
<path d="M80.7325 186.457C80.2601 184.176 79.6325 180.903 79.0589 176.949C78.8902 175.808 78.7282 174.6 78.5798 173.352C79.0926 173.257 83.1686 172.461 84.7545 171.327C86.1986 170.308 87.7507 168.628 87.8114 166.738C87.8463 166.296 87.7868 165.852 87.6369 165.434C87.487 165.017 87.2501 164.636 86.942 164.317C86.6338 163.998 86.2614 163.748 85.8494 163.584C85.4373 163.42 84.9951 163.345 84.552 163.364C81.9067 163.546 79.4638 167.649 78.8902 169.951C78.8564 170.099 78.6203 171.881 78.519 172.798C78.4313 172.043 78.3436 171.293 78.2626 170.511C78.1411 169.377 78.0466 168.183 77.9522 167.022C77.9522 166.414 77.8914 165.807 77.8644 165.193C77.8375 164.579 77.8644 163.978 77.8644 163.357C77.8644 162.453 77.9319 161.515 77.9792 160.584C79.1399 160.53 82.5343 160.307 84.0526 159.538C85.571 158.769 87.4268 157.304 87.771 155.489C87.8654 155.06 87.8691 154.616 87.7817 154.186C87.6943 153.756 87.5177 153.349 87.2635 152.991C87.0092 152.633 86.6828 152.332 86.3053 152.108C85.9278 151.884 85.5076 151.742 85.0716 151.69C82.433 151.474 79.3896 155.158 78.4853 157.345C78.4515 157.412 78.3098 157.898 78.1411 158.472C78.2221 157.561 78.2963 156.65 78.4111 155.732C78.7215 153.134 79.1264 150.488 79.5178 147.836C79.5988 147.283 79.673 146.736 79.754 146.183C80.7257 146.136 84.4103 145.933 86.0096 145.13C87.609 144.327 89.3838 142.89 89.728 141.081C89.8235 140.653 89.828 140.208 89.741 139.778C89.654 139.347 89.4776 138.94 89.2232 138.581C88.9687 138.223 88.6419 137.923 88.2639 137.699C87.8858 137.475 87.465 137.333 87.0287 137.282C84.3833 137.066 81.3466 140.751 80.4356 142.937C80.4356 143.011 80.2331 143.612 80.0441 144.233C80.2398 142.795 80.4086 141.351 80.5368 139.921C80.7743 137.454 80.8442 134.974 80.746 132.497C81.0901 132.497 85.409 132.329 87.1906 131.438C88.7765 130.648 90.5648 129.204 90.9089 127.389C91.0045 126.961 91.0089 126.517 90.9219 126.087C90.8349 125.656 90.6584 125.249 90.4039 124.892C90.1493 124.534 89.8224 124.234 89.4444 124.011C89.0664 123.788 88.6457 123.646 88.2096 123.596C85.5643 123.374 82.5275 127.065 81.6165 129.245C81.549 129.4 80.9417 131.492 80.7595 132.241C80.7561 132.212 80.7561 132.182 80.7595 132.153C80.6033 129.73 80.2329 127.325 79.6527 124.966C79.1434 122.858 78.5125 120.78 77.7632 118.744C77.0884 116.855 76.3528 115.161 75.6915 113.67C75.3271 112.86 74.9762 112.131 74.6455 111.456H74.6995C74.7467 111.456 74.6185 108.251 74.5915 108.082C74.2271 105.747 72.1554 101.442 69.537 101.023C69.1005 100.965 68.6567 101 68.2345 101.125C67.8123 101.25 67.4212 101.463 67.0869 101.75C66.7525 102.037 66.4824 102.39 66.2941 102.788C66.1058 103.187 66.0036 103.62 65.9942 104.06C65.8862 105.929 67.2831 107.758 68.626 108.905C69.9689 110.053 73.5995 111.173 74.4903 111.429C74.821 112.145 75.1651 112.907 75.5363 113.757C76.1639 115.262 76.8859 116.963 77.4865 118.866C77.6553 119.372 77.8172 119.925 77.9859 120.452C77.5203 119.615 76.8657 118.474 76.7847 118.373C75.3878 116.464 71.5615 113.595 69.0512 114.432C68.637 114.582 68.2591 114.817 67.9419 115.122C67.6248 115.428 67.3757 115.796 67.2107 116.205C67.0458 116.613 66.9688 117.051 66.9847 117.491C67.0007 117.931 67.1093 118.363 67.3033 118.758C68.0659 120.465 70.1511 121.457 71.8787 121.842C73.6063 122.227 77.4528 121.545 78.2761 121.383C78.627 122.564 78.9509 123.785 79.2344 125.081C79.7446 127.409 80.0472 129.778 80.1386 132.16C80.1386 132.302 80.1386 132.443 80.1386 132.585C79.9767 132.126 78.9239 129.704 78.8362 129.542C77.6553 127.517 74.1664 124.217 71.575 124.771C71.1464 124.874 70.7444 125.067 70.3953 125.337C70.0462 125.606 69.7579 125.946 69.549 126.335C69.3402 126.723 69.2155 127.151 69.1832 127.591C69.1509 128.031 69.2117 128.472 69.3616 128.887C69.9352 130.662 71.9057 131.87 73.5725 132.45C75.4958 133.125 79.9699 132.693 80.1319 132.68C80.1686 135.069 80.0492 137.459 79.7742 139.833C79.5785 141.594 79.3086 143.369 79.0184 145.144C78.7957 144.557 77.8239 142.303 77.7295 142.148C76.5553 140.123 73.0664 136.83 70.475 137.383C70.0472 137.487 69.646 137.68 69.2975 137.949C68.949 138.218 68.661 138.557 68.4523 138.945C68.2435 139.332 68.1187 139.76 68.0858 140.199C68.053 140.638 68.1128 141.079 68.2616 141.493C68.8352 143.275 70.799 144.476 72.4725 145.063C74.3486 145.738 78.6337 145.326 78.9982 145.292C78.8632 146.095 78.735 146.905 78.6 147.715C78.1479 150.347 77.689 152.992 77.3178 155.61C77.1829 156.521 77.0884 157.419 76.9939 158.31C76.6362 157.439 75.9547 155.874 75.8804 155.745C74.6995 153.721 71.2106 150.421 68.6193 150.981C68.1914 151.085 67.7902 151.278 67.4417 151.547C67.0932 151.816 66.8053 152.155 66.5965 152.543C66.3877 152.93 66.2629 153.357 66.23 153.796C66.1972 154.235 66.2571 154.676 66.4058 155.091C66.9794 156.872 68.9432 158.074 70.6168 158.661C72.2903 159.248 75.9007 158.991 76.9197 158.91C76.7645 160.408 76.6497 161.9 76.6025 163.371C76.6025 164.005 76.5418 164.66 76.6025 165.267C76.6632 165.875 76.6025 166.495 76.643 167.096C76.724 168.344 76.7847 169.505 76.8859 170.666C76.9332 171.253 76.9872 171.806 77.0412 172.373C76.8117 171.442 76.4203 169.964 76.3663 169.836C75.5093 167.629 72.5603 163.87 69.9082 164.026C69.4698 164.065 69.0444 164.195 68.6597 164.409C68.275 164.623 67.9395 164.916 67.6749 165.267C67.4103 165.619 67.2224 166.022 67.1236 166.451C67.0247 166.88 67.017 167.325 67.1009 167.757C67.3978 169.6 69.1254 171.091 70.718 171.921C72.4455 172.832 76.5958 173.102 77.1019 173.136C77.2369 174.526 77.3853 175.882 77.5405 177.144C78.0399 181.153 78.6 184.466 79.0252 186.788C79.4503 189.109 79.754 190.425 79.754 190.425C79.7743 190.552 79.8209 190.674 79.8907 190.782C79.9605 190.89 80.052 190.983 80.1594 191.054C80.2668 191.125 80.3879 191.173 80.5148 191.195C80.6418 191.217 80.7719 191.213 80.897 191.182C81.0221 191.151 81.1394 191.094 81.2415 191.016C81.3436 190.937 81.4283 190.838 81.4902 190.725C81.5521 190.612 81.5899 190.488 81.6012 190.359C81.6125 190.231 81.597 190.102 81.5558 189.98C81.5558 189.98 81.2049 188.745 80.7325 186.457Z" fill="#FF7900"/>
<path d="M78.4632 120.89C78.4632 120.89 82.917 119.54 84.4624 118.144C85.8121 116.969 87.1617 115.1 86.966 113.231C86.9449 112.791 86.8314 112.361 86.633 111.969C86.4345 111.576 86.1556 111.23 85.8143 110.952C85.473 110.675 85.0771 110.472 84.6523 110.358C84.2275 110.243 83.7834 110.22 83.3489 110.289C80.7441 110.774 78.7803 115.134 78.4834 117.482C78.4564 117.685 78.4159 120.904 78.4632 120.89Z" fill="#FF7900"/>
<path d="M80.8127 191.18C80.9226 191.256 81.0149 191.355 81.0833 191.47C81.1517 191.585 81.1946 191.713 81.2091 191.846C81.2236 191.979 81.2093 192.113 81.1672 192.24C81.1251 192.367 81.0563 192.483 80.9653 192.581C80.8743 192.679 80.7632 192.756 80.6398 192.807C80.5163 192.858 80.3833 192.882 80.2498 192.877C80.1162 192.872 79.9853 192.839 79.8658 192.779C79.7464 192.719 79.6412 192.634 79.5575 192.53C79.5575 192.53 78.5723 191.585 76.9459 189.891C75.3196 188.198 73.0117 185.734 70.3866 182.671C69.5565 181.699 68.6927 180.646 67.8087 179.567C67.3701 179.816 63.7597 181.881 61.8162 182.07C60.0549 182.239 57.7672 181.969 56.4985 180.592C56.1901 180.279 55.9509 179.904 55.7967 179.492C55.6425 179.08 55.5766 178.64 55.6033 178.201C55.6301 177.762 55.7488 177.333 55.9519 176.943C56.1549 176.553 56.4377 176.21 56.782 175.936C58.9077 174.343 63.4425 175.855 65.3726 177.225C65.4873 177.306 66.6278 178.318 67.3296 178.966C66.9719 178.521 66.6547 178.095 66.2566 177.616C65.5345 176.705 64.8394 175.774 64.0904 174.768L63.0444 173.27C62.68 172.778 62.3696 172.211 62.0187 171.678C61.2426 170.423 60.5205 169.113 59.8255 167.777C59.0224 168.405 56.1476 170.605 54.4268 171.043C52.706 171.482 50.3778 171.556 48.9472 170.369C48.5941 170.105 48.3004 169.771 48.0852 169.387C47.8699 169.002 47.738 168.577 47.6979 168.139C47.6578 167.7 47.7104 167.258 47.8524 166.841C47.9944 166.424 48.2226 166.042 48.522 165.719C50.3846 163.829 55.0949 164.633 57.2071 165.719C57.3421 165.786 58.7727 166.718 59.5488 167.244C59.1371 166.434 58.7187 165.631 58.3273 164.801C57.1936 162.412 56.1206 159.956 55.0409 157.506C54.7102 156.757 54.3661 156.015 54.0354 155.266C53.752 155.495 50.3913 158.188 48.4681 158.674C46.754 159.112 44.4191 159.187 42.9884 157.999C42.6354 157.736 42.3417 157.401 42.1264 157.017C41.9112 156.633 41.7792 156.208 41.7391 155.769C41.699 155.33 41.7517 154.888 41.8937 154.471C42.0357 154.055 42.2638 153.672 42.5633 153.349C44.4191 151.46 49.1294 152.263 51.2484 153.349C51.4103 153.43 53.4686 154.773 53.9477 155.138C53.2054 153.498 52.4563 151.871 51.6465 150.292C50.5653 148.16 49.3481 146.1 48.0024 144.124C47.8675 144.232 44.3786 147.06 42.4013 147.559C40.6873 147.991 38.3523 148.072 36.9217 146.884C36.5682 146.621 36.2743 146.287 36.059 145.902C35.8438 145.518 35.7121 145.092 35.6726 144.653C35.6331 144.214 35.6867 143.772 35.8298 143.355C35.973 142.939 36.2025 142.557 36.5033 142.235C38.3591 140.345 43.0694 141.148 45.1816 142.235C45.3503 142.316 47.5638 143.76 47.9484 144.05C47.8675 143.935 47.8 143.814 47.719 143.699C46.3057 141.765 44.725 139.958 42.9952 138.301C42.0504 137.369 41.0989 136.533 40.1541 135.736C39.5535 136.33 36.78 139.009 35.0727 139.657C33.3653 140.305 31.1384 140.609 29.5525 139.603C29.173 139.381 28.8445 139.081 28.5886 138.723C28.3326 138.365 28.1549 137.958 28.067 137.527C27.9792 137.096 27.9831 136.651 28.0786 136.221C28.1741 135.792 28.359 135.388 28.6213 135.034C30.2611 132.949 35.0322 133.226 37.2524 134.049C37.3738 134.096 38.548 134.684 39.3983 135.122C38.9664 134.771 38.5278 134.4 38.1094 134.076C36.5303 132.835 35.0119 131.795 33.6623 130.891C32.8862 130.385 32.1776 129.939 31.5096 129.541C30.6188 129.818 27.0219 130.891 25.2269 130.668C23.4318 130.446 21.2926 129.697 20.3479 128.077C20.115 127.704 19.963 127.286 19.9018 126.85C19.8405 126.415 19.8713 125.971 19.9921 125.548C20.1129 125.125 20.3211 124.733 20.6033 124.395C20.8854 124.058 21.2352 123.783 21.63 123.589C24.0459 122.496 28.1489 124.939 29.728 126.694C29.863 126.849 31.7525 129.46 31.6985 129.474H31.6445C32.3194 129.852 32.9942 130.27 33.7365 130.743C35.0862 131.62 36.6585 132.625 38.2714 133.833C40.0169 135.119 41.6887 136.503 43.2786 137.977C45.0602 139.632 46.695 141.438 48.1644 143.375C48.1761 143.402 48.192 143.428 48.2116 143.45C47.9552 142.721 47.3073 140.642 47.2736 140.48C46.8282 138.159 47.3343 133.401 49.6558 132.126C50.0475 131.925 50.4771 131.809 50.9166 131.786C51.3562 131.762 51.7958 131.831 52.2069 131.988C52.618 132.145 52.9915 132.387 53.303 132.698C53.6146 133.009 53.8572 133.382 54.0152 133.793C54.744 135.52 54.0152 137.714 53.1649 139.245C52.1661 140.973 48.6503 143.49 48.3736 143.686C49.8124 145.694 51.1177 147.795 52.2808 149.975C52.9557 151.244 53.6305 152.54 54.2514 153.849C54.0489 153.208 53.8734 152.634 53.86 152.553C53.4146 150.232 53.9139 145.474 56.2421 144.199C56.6343 143.998 57.0643 143.882 57.5042 143.859C57.944 143.836 58.3838 143.905 58.7951 144.063C59.2063 144.221 59.5796 144.464 59.8909 144.775C60.2021 145.087 60.4442 145.461 60.6015 145.872C61.3303 147.593 60.6015 149.786 59.7512 151.318C58.9009 152.85 55.8979 155.077 55.1084 155.651C55.3446 156.157 55.5875 156.656 55.8237 157.162C56.9642 159.585 58.0844 162.014 59.2586 164.363C59.6702 165.186 60.1089 165.982 60.5408 166.785C60.3653 166.218 60.2236 165.739 60.2034 165.658C59.758 163.337 60.2641 158.586 62.5855 157.311C62.9773 157.11 63.4069 156.994 63.8464 156.97C64.2859 156.946 64.7255 157.015 65.1367 157.173C65.5478 157.33 65.9213 157.572 66.2328 157.883C66.5443 158.194 66.787 158.567 66.9449 158.977C67.6737 160.698 66.9787 162.898 66.0946 164.43C65.2106 165.962 62.5315 167.966 61.5935 168.655C62.0659 169.458 62.5315 170.267 63.0242 171.03C63.3751 171.543 63.699 172.062 64.0499 172.555L65.1296 174.033C65.8517 174.944 66.5873 175.895 67.3161 176.766C67.8155 177.38 68.3013 177.954 68.794 178.534C68.3688 177.718 67.5793 176.098 67.532 175.956C66.7357 173.723 66.513 168.951 68.6185 167.339C68.9752 167.081 69.3822 166.901 69.813 166.811C70.2438 166.72 70.6888 166.722 71.119 166.815C71.5492 166.908 71.9551 167.09 72.3102 167.35C72.6654 167.61 72.9618 167.942 73.1804 168.324C74.1589 169.916 73.8012 172.197 73.1804 173.844C72.5055 175.659 69.516 178.568 69.1314 178.932C69.9479 179.89 70.7442 180.808 71.5203 181.672C74.1791 184.648 76.5073 187.03 78.1606 188.677C79.8139 190.323 80.8127 191.18 80.8127 191.18ZM40.1001 135.217C40.1001 135.217 43.0627 131.62 43.589 129.616C44.0344 127.908 44.1289 125.567 42.9749 124.136C42.7143 123.78 42.3817 123.484 41.9988 123.266C41.6158 123.047 41.1912 122.912 40.7526 122.869C40.3139 122.825 39.871 122.875 39.4528 123.014C39.0346 123.154 38.6505 123.379 38.3253 123.677C36.4223 125.519 37.1916 130.236 38.2376 132.362C38.2984 132.544 40.0664 135.25 40.1001 135.217Z" fill="#FF7900"/>
<path opacity="0.1" d="M80.8127 191.18C80.9226 191.256 81.0149 191.355 81.0833 191.47C81.1517 191.585 81.1946 191.713 81.2091 191.846C81.2236 191.979 81.2093 192.113 81.1672 192.24C81.1251 192.367 81.0563 192.483 80.9653 192.581C80.8743 192.679 80.7632 192.756 80.6398 192.807C80.5163 192.858 80.3833 192.882 80.2498 192.877C80.1162 192.872 79.9853 192.839 79.8658 192.779C79.7464 192.719 79.6412 192.634 79.5575 192.53C79.5575 192.53 78.5723 191.585 76.9459 189.891C75.3196 188.198 73.0117 185.734 70.3866 182.671C69.5565 181.699 68.6927 180.646 67.8087 179.567C67.3701 179.816 63.7597 181.881 61.8162 182.07C60.0549 182.239 57.7672 181.969 56.4985 180.592C56.1901 180.279 55.9509 179.904 55.7967 179.492C55.6425 179.08 55.5766 178.64 55.6033 178.201C55.6301 177.762 55.7488 177.333 55.9519 176.943C56.1549 176.553 56.4377 176.21 56.782 175.936C58.9077 174.343 63.4425 175.855 65.3726 177.225C65.4873 177.306 66.6278 178.318 67.3296 178.966C66.9719 178.521 66.6547 178.095 66.2566 177.616C65.5345 176.705 64.8394 175.774 64.0904 174.768L63.0444 173.27C62.68 172.778 62.3696 172.211 62.0187 171.678C61.2426 170.423 60.5205 169.113 59.8255 167.777C59.0224 168.405 56.1476 170.605 54.4268 171.043C52.706 171.482 50.3778 171.556 48.9472 170.369C48.5941 170.105 48.3004 169.771 48.0852 169.387C47.8699 169.002 47.738 168.577 47.6979 168.139C47.6578 167.7 47.7104 167.258 47.8524 166.841C47.9944 166.424 48.2226 166.042 48.522 165.719C50.3846 163.829 55.0949 164.633 57.2071 165.719C57.3421 165.786 58.7727 166.718 59.5488 167.244C59.1371 166.434 58.7187 165.631 58.3273 164.801C57.1936 162.412 56.1206 159.956 55.0409 157.506C54.7102 156.757 54.3661 156.015 54.0354 155.266C53.752 155.495 50.3913 158.188 48.4681 158.674C46.754 159.112 44.4191 159.187 42.9884 157.999C42.6354 157.736 42.3417 157.401 42.1264 157.017C41.9112 156.633 41.7792 156.208 41.7391 155.769C41.699 155.33 41.7517 154.888 41.8937 154.471C42.0357 154.055 42.2638 153.672 42.5633 153.349C44.4191 151.46 49.1294 152.263 51.2484 153.349C51.4103 153.43 53.4686 154.773 53.9477 155.138C53.2054 153.498 52.4563 151.871 51.6465 150.292C50.5653 148.16 49.3481 146.1 48.0024 144.124C47.8675 144.232 44.3786 147.06 42.4013 147.559C40.6873 147.991 38.3523 148.072 36.9217 146.884C36.5682 146.621 36.2743 146.287 36.059 145.902C35.8438 145.518 35.7121 145.092 35.6726 144.653C35.6331 144.214 35.6867 143.772 35.8298 143.355C35.973 142.939 36.2025 142.557 36.5033 142.235C38.3591 140.345 43.0694 141.148 45.1816 142.235C45.3503 142.316 47.5638 143.76 47.9484 144.05C47.8675 143.935 47.8 143.814 47.719 143.699C46.3057 141.765 44.725 139.958 42.9952 138.301C42.0504 137.369 41.0989 136.533 40.1541 135.736C39.5535 136.33 36.78 139.009 35.0727 139.657C33.3653 140.305 31.1384 140.609 29.5525 139.603C29.173 139.381 28.8445 139.081 28.5886 138.723C28.3326 138.365 28.1549 137.958 28.067 137.527C27.9792 137.096 27.9831 136.651 28.0786 136.221C28.1741 135.792 28.359 135.388 28.6213 135.034C30.2611 132.949 35.0322 133.226 37.2524 134.049C37.3738 134.096 38.548 134.684 39.3983 135.122C38.9664 134.771 38.5278 134.4 38.1094 134.076C36.5303 132.835 35.0119 131.795 33.6623 130.891C32.8862 130.385 32.1776 129.939 31.5096 129.541C30.6188 129.818 27.0219 130.891 25.2269 130.668C23.4318 130.446 21.2926 129.697 20.3479 128.077C20.115 127.704 19.963 127.286 19.9018 126.85C19.8405 126.415 19.8713 125.971 19.9921 125.548C20.1129 125.125 20.3211 124.733 20.6033 124.395C20.8854 124.058 21.2352 123.783 21.63 123.589C24.0459 122.496 28.1489 124.939 29.728 126.694C29.863 126.849 31.7525 129.46 31.6985 129.474H31.6445C32.3194 129.852 32.9942 130.27 33.7365 130.743C35.0862 131.62 36.6585 132.625 38.2714 133.833C40.0169 135.119 41.6887 136.503 43.2786 137.977C45.0602 139.632 46.695 141.438 48.1644 143.375C48.1761 143.402 48.192 143.428 48.2116 143.45C47.9552 142.721 47.3073 140.642 47.2736 140.48C46.8282 138.159 47.3343 133.401 49.6558 132.126C50.0475 131.925 50.4771 131.809 50.9166 131.786C51.3562 131.762 51.7958 131.831 52.2069 131.988C52.618 132.145 52.9915 132.387 53.303 132.698C53.6146 133.009 53.8572 133.382 54.0152 133.793C54.744 135.52 54.0152 137.714 53.1649 139.245C52.1661 140.973 48.6503 143.49 48.3736 143.686C49.8124 145.694 51.1177 147.795 52.2808 149.975C52.9557 151.244 53.6305 152.54 54.2514 153.849C54.0489 153.208 53.8734 152.634 53.86 152.553C53.4146 150.232 53.9139 145.474 56.2421 144.199C56.6343 143.998 57.0643 143.882 57.5042 143.859C57.944 143.836 58.3838 143.905 58.7951 144.063C59.2063 144.221 59.5796 144.464 59.8909 144.775C60.2021 145.087 60.4442 145.461 60.6015 145.872C61.3303 147.593 60.6015 149.786 59.7512 151.318C58.9009 152.85 55.8979 155.077 55.1084 155.651C55.3446 156.157 55.5875 156.656 55.8237 157.162C56.9642 159.585 58.0844 162.014 59.2586 164.363C59.6702 165.186 60.1089 165.982 60.5408 166.785C60.3653 166.218 60.2236 165.739 60.2034 165.658C59.758 163.337 60.2641 158.586 62.5855 157.311C62.9773 157.11 63.4069 156.994 63.8464 156.97C64.2859 156.946 64.7255 157.015 65.1367 157.173C65.5478 157.33 65.9213 157.572 66.2328 157.883C66.5443 158.194 66.787 158.567 66.9449 158.977C67.6737 160.698 66.9787 162.898 66.0946 164.43C65.2106 165.962 62.5315 167.966 61.5935 168.655C62.0659 169.458 62.5315 170.267 63.0242 171.03C63.3751 171.543 63.699 172.062 64.0499 172.555L65.1296 174.033C65.8517 174.944 66.5873 175.895 67.3161 176.766C67.8155 177.38 68.3013 177.954 68.794 178.534C68.3688 177.718 67.5793 176.098 67.532 175.956C66.7357 173.723 66.513 168.951 68.6185 167.339C68.9752 167.081 69.3822 166.901 69.813 166.811C70.2438 166.72 70.6888 166.722 71.119 166.815C71.5492 166.908 71.9551 167.09 72.3102 167.35C72.6654 167.61 72.9618 167.942 73.1804 168.324C74.1589 169.916 73.8012 172.197 73.1804 173.844C72.5055 175.659 69.516 178.568 69.1314 178.932C69.9479 179.89 70.7442 180.808 71.5203 181.672C74.1791 184.648 76.5073 187.03 78.1606 188.677C79.8139 190.323 80.8127 191.18 80.8127 191.18ZM40.1001 135.217C40.1001 135.217 43.0627 131.62 43.589 129.616C44.0344 127.908 44.1289 125.567 42.9749 124.136C42.7143 123.78 42.3817 123.484 41.9988 123.266C41.6158 123.047 41.1912 122.912 40.7526 122.869C40.3139 122.825 39.871 122.875 39.4528 123.014C39.0346 123.154 38.6505 123.379 38.3253 123.677C36.4223 125.519 37.1916 130.236 38.2376 132.362C38.2984 132.544 40.0664 135.25 40.1001 135.217Z" fill="black"/>
<path d="M63.5176 235.687C62.944 233.426 62.1679 230.187 61.4256 226.239C61.2097 225.112 60.9937 223.904 60.7913 222.669C61.2907 222.548 65.3329 221.576 66.8648 220.381C68.2617 219.295 69.7395 217.527 69.7193 215.658C69.7291 215.22 69.6471 214.785 69.4785 214.381C69.31 213.978 69.0586 213.613 68.7407 213.313C68.4228 213.012 68.0453 212.781 67.6327 212.635C67.2201 212.489 66.7815 212.432 66.3451 212.466C63.7065 212.763 61.4459 216.974 60.9465 219.295C60.9465 219.443 60.7575 221.238 60.7035 222.156C60.5753 221.407 60.4539 220.665 60.3391 219.882C60.1704 218.762 60.022 217.567 59.8735 216.413L59.7116 214.591C59.6373 213.971 59.6508 213.37 59.6171 212.756C59.6171 211.852 59.6171 210.914 59.6171 209.982C60.771 209.874 64.1519 209.503 65.6501 208.666C67.1482 207.83 68.923 206.284 69.1794 204.435C69.2563 204.001 69.2408 203.556 69.1339 203.129C69.0271 202.702 68.8313 202.302 68.5593 201.955C68.2874 201.609 67.9454 201.324 67.5557 201.119C67.166 200.913 66.7374 200.792 66.2979 200.764C63.6526 200.656 60.7778 204.476 59.9612 206.703C59.9612 206.77 59.8128 207.256 59.6778 207.836C59.6778 206.925 59.752 206.021 59.8195 205.097C60.022 202.478 60.3054 199.826 60.5821 197.161C60.6361 196.6 60.6833 196.047 60.744 195.494C61.7158 195.406 65.3801 195.035 66.9457 194.144C68.5113 193.253 70.2187 191.762 70.4818 189.906C70.5576 189.473 70.5413 189.028 70.434 188.601C70.3267 188.174 70.1309 187.775 69.8591 187.428C69.5874 187.082 69.2458 186.797 68.8567 186.591C68.4675 186.386 68.0395 186.264 67.6003 186.235C64.955 186.134 62.0735 189.953 61.2637 192.174C61.2637 192.254 61.0882 192.848 60.933 193.489C61.0612 192.039 61.1692 190.594 61.2367 189.157C61.3631 186.683 61.3225 184.203 61.1152 181.734C61.4594 181.734 65.7648 181.356 67.5126 180.384C69.0512 179.527 70.7855 178.002 71.042 176.146C71.1188 175.713 71.1033 175.268 70.9964 174.84C70.8896 174.413 70.6938 174.013 70.4218 173.667C70.1499 173.32 69.8079 173.035 69.4182 172.83C69.0286 172.624 68.6 172.504 68.1604 172.475C65.5151 172.374 62.6403 176.194 61.8238 178.414C61.7698 178.569 61.2569 180.681 61.1017 181.444C61.1017 181.444 61.1017 181.383 61.1017 181.356C60.8431 178.941 60.3688 176.554 59.6846 174.223C59.0805 172.141 58.3572 170.095 57.5184 168.096C56.7625 166.233 55.9527 164.573 55.2239 163.109C54.8258 162.319 54.4479 161.61 54.0835 160.942H54.1374C54.1847 160.942 53.9215 157.75 53.881 157.568C53.4154 155.247 51.1817 151.036 48.4824 150.732C48.046 150.698 47.6074 150.756 47.1948 150.902C46.7822 151.048 46.4047 151.278 46.0868 151.579C45.7689 151.88 45.5175 152.244 45.349 152.648C45.1804 153.052 45.0984 153.487 45.1082 153.924C45.1082 155.793 46.5591 157.561 47.956 158.648C49.3529 159.734 53.0172 160.672 53.9215 160.915C54.2859 161.59 54.6638 162.359 55.0687 163.19C55.7435 164.667 56.5263 166.334 57.2417 168.21C57.4374 168.71 57.6196 169.25 57.8085 169.776C57.3092 168.959 56.6006 167.846 56.5196 167.751C55.0417 165.909 51.121 163.217 48.6173 164.161C48.211 164.33 47.8447 164.582 47.5421 164.902C47.2396 165.221 47.0076 165.601 46.8613 166.016C46.7149 166.43 46.6574 166.871 46.6926 167.31C46.7277 167.749 46.8547 168.175 47.0652 168.561C47.902 170.235 50.0277 171.119 51.789 171.443C53.5503 171.767 57.3429 170.896 58.1594 170.694C58.5643 171.861 58.949 173.069 59.2797 174.351C59.9085 176.666 60.3264 179.033 60.5281 181.423C60.5281 181.558 60.5281 181.707 60.5281 181.842C60.3526 181.396 59.1784 179.014 59.0975 178.859C57.8288 176.835 54.1982 173.751 51.6338 174.419C51.2108 174.541 50.8183 174.751 50.4819 175.035C50.1456 175.32 49.873 175.672 49.6819 176.068C49.4909 176.465 49.3857 176.898 49.3732 177.338C49.3606 177.778 49.4411 178.216 49.6093 178.623C50.2842 180.377 52.3087 181.498 53.9687 181.997C55.919 182.584 60.3661 181.957 60.5348 181.936C60.6706 184.322 60.6548 186.713 60.4876 189.096C60.3661 190.864 60.1772 192.646 59.968 194.434C59.725 193.861 58.6183 191.647 58.5508 191.499C57.2822 189.474 53.6516 186.39 51.0872 187.058C50.6642 187.181 50.2716 187.391 49.9353 187.675C49.599 187.959 49.3264 188.311 49.1353 188.708C48.9443 189.105 48.8391 189.537 48.8265 189.977C48.814 190.418 48.8945 190.856 49.0627 191.262C49.7375 193.017 51.762 194.131 53.4221 194.637C55.3252 195.204 59.5901 194.637 59.9545 194.576C59.8533 195.386 59.7655 196.202 59.6643 197.012C59.3336 199.664 58.9895 202.33 58.7263 204.962C58.6386 205.873 58.5846 206.777 58.5238 207.661C58.1257 206.811 57.3766 205.272 57.2957 205.151C56.027 203.126 52.4031 200.042 49.8725 200.71C49.4501 200.833 49.0582 201.044 48.7225 201.328C48.3867 201.613 48.1146 201.965 47.9237 202.361C47.7327 202.758 47.6273 203.19 47.6143 203.63C47.6013 204.07 47.6809 204.507 47.848 204.914C48.5229 206.669 50.5473 207.782 52.2074 208.288C53.8675 208.795 57.5049 208.39 58.5171 208.255C58.4294 209.76 58.3754 211.258 58.3956 212.729C58.3956 213.37 58.3956 214.018 58.4564 214.625L58.5778 216.454C58.7128 217.696 58.8275 218.85 58.976 220.01C59.0502 220.591 59.1312 221.137 59.2122 221.704C58.9355 220.786 58.4834 219.329 58.4294 219.2C57.4711 217.034 54.3804 213.41 51.7216 213.68C51.2855 213.738 50.8665 213.887 50.4917 214.117C50.1169 214.347 49.7946 214.653 49.5458 215.016C49.297 215.379 49.1272 215.79 49.0475 216.222C48.9678 216.655 48.9798 217.099 49.083 217.527C49.4609 219.362 51.2829 220.773 52.8823 221.529C54.6436 222.365 58.8005 222.453 59.3134 222.46C59.5091 223.85 59.7116 225.193 59.9275 226.455C60.6023 230.43 61.2772 233.723 61.8305 236.017C62.3839 238.312 62.7213 239.621 62.7213 239.621C62.8041 239.841 62.9672 240.022 63.1779 240.127C63.3886 240.232 63.6312 240.253 63.8569 240.186C64.0826 240.12 64.2747 239.97 64.3946 239.767C64.5144 239.565 64.5531 239.324 64.5028 239.095C64.5028 239.095 64.0912 237.954 63.5176 235.687Z" fill="#FF7900"/>
<path d="M58.3555 170.28C58.3555 170.28 62.7486 168.728 64.2265 167.277C65.4884 166.035 66.7571 164.112 66.5209 162.256C66.4796 161.817 66.3465 161.392 66.1301 161.009C65.9137 160.625 65.6189 160.291 65.265 160.029C64.9111 159.767 64.5059 159.582 64.0759 159.486C63.6458 159.391 63.2005 159.387 62.7689 159.476C60.191 160.076 58.423 164.517 58.2273 166.899C58.207 167.094 58.3082 170.3 58.3555 170.28Z" fill="#FF7900"/>
<path d="M60.9866 236.637C59.2658 235.072 56.8364 232.791 54.0426 229.929C53.2395 229.106 52.396 228.222 51.5457 227.304C51.8966 226.926 54.7241 223.883 55.3517 222.041C55.9186 220.367 56.175 218.079 55.1223 216.527C54.8878 216.155 54.5775 215.837 54.2117 215.593C53.8459 215.348 53.4328 215.184 52.9992 215.11C52.5657 215.036 52.1214 215.055 51.6954 215.164C51.2694 215.273 50.8712 215.471 50.5267 215.745C48.5022 217.445 48.9274 222.209 49.8181 224.396C49.8721 224.538 50.7359 226.123 51.1678 226.92C50.6482 226.366 50.1353 225.813 49.6089 225.219C48.8464 224.382 48.0703 223.465 47.3078 222.587L46.1605 221.157C45.7624 220.678 45.4452 220.171 45.0741 219.679C44.5477 218.943 44.0416 218.154 43.5355 217.364C44.4397 216.642 47.0581 214.462 47.8476 212.944C48.6372 211.426 49.2648 209.151 48.455 207.464C48.2797 207.061 48.0212 206.698 47.6965 206.401C47.3717 206.104 46.9879 205.879 46.5702 205.74C46.1525 205.601 45.7101 205.552 45.2721 205.595C44.8341 205.639 44.4102 205.775 44.0281 205.993C41.7607 207.343 41.4705 212.134 42.0036 214.435C42.0036 214.516 42.1925 214.989 42.395 215.549C41.9226 214.766 41.4502 213.99 40.9981 213.18C39.7227 210.886 38.4945 208.517 37.2528 206.142C36.9963 205.649 36.7332 205.156 36.47 204.664C37.2325 204.056 40.0871 201.722 40.9171 200.129C41.7472 198.536 42.3275 196.336 41.5245 194.649C41.3492 194.246 41.0907 193.883 40.7659 193.586C40.4412 193.289 40.0574 193.064 39.6397 192.925C39.2219 192.786 38.7796 192.737 38.3416 192.78C37.9036 192.824 37.4797 192.96 37.0976 193.178C34.8301 194.528 34.54 199.319 35.0731 201.62C35.0731 201.708 35.2958 202.295 35.5252 202.903C34.8504 201.62 34.1216 200.358 33.386 199.117C32.1247 196.991 30.7248 194.951 29.1953 193.009C29.472 192.794 32.8731 190.128 33.7909 188.36C34.6074 186.794 35.208 184.567 34.3982 182.88C34.2236 182.476 33.9656 182.113 33.6411 181.815C33.3167 181.517 32.933 181.291 32.5152 181.152C32.0974 181.012 31.6549 180.962 31.2165 181.006C30.7782 181.049 30.3539 181.184 29.9714 181.402C27.7039 182.752 27.4137 187.55 27.9469 189.851C27.9874 190.013 28.7297 192.058 29.0131 192.78L28.9659 192.706C27.4123 190.839 25.6985 189.112 23.8439 187.543C22.2146 186.14 20.5068 184.831 18.7287 183.623C17.0686 182.489 15.476 181.551 14.0656 180.734C13.2963 180.296 12.581 179.911 11.9196 179.56H11.9669C12.0141 179.56 10.0234 177.016 9.8749 176.861C8.20806 175.18 4.00387 172.92 1.64196 174.121C1.25493 174.33 0.916348 174.619 0.648282 174.968C0.380215 175.316 0.188684 175.718 0.0861732 176.146C-0.0163373 176.574 -0.0275249 177.018 0.0533383 177.451C0.134202 177.883 0.3053 178.294 0.555482 178.656C1.56773 180.235 3.77442 180.896 5.54248 181.031C7.31054 181.166 10.8939 179.938 11.7644 179.628C12.4393 180.005 13.1816 180.417 13.9779 180.896C15.368 181.74 16.9336 182.712 18.56 183.879C18.9986 184.189 19.4507 184.554 19.9096 184.871C19.0458 184.466 17.8379 183.933 17.7164 183.893C15.4625 183.17 10.6847 183.096 9.13933 185.242C8.89421 185.608 8.72846 186.02 8.65281 186.454C8.57715 186.887 8.59327 187.331 8.70012 187.758C8.80697 188.185 9.00217 188.584 9.27311 188.931C9.54405 189.278 9.8847 189.564 10.273 189.77C11.8994 190.695 14.1601 190.27 15.7864 189.575C17.4128 188.88 20.1188 186.052 20.6924 185.438C21.6709 186.187 22.6562 186.983 23.6414 187.867C25.4404 189.453 27.0936 191.196 28.5812 193.077C28.6689 193.185 28.7432 193.306 28.8309 193.421C28.4327 193.144 26.1316 191.802 25.9831 191.727C23.8236 190.762 19.0796 190.162 17.3115 192.139C17.0271 192.475 16.8164 192.866 16.6931 193.288C16.5699 193.711 16.5367 194.154 16.5959 194.59C16.6551 195.026 16.8053 195.444 17.0367 195.819C17.2681 196.193 17.5755 196.514 17.9391 196.762C19.4507 197.862 21.7519 197.686 23.439 197.173C25.3893 196.586 28.7567 193.61 28.8849 193.502C30.3186 195.415 31.626 197.419 32.7989 199.501C33.6762 201.04 34.4995 202.633 35.3093 204.225C34.7896 203.881 32.6707 202.633 32.5087 202.558C30.3493 201.593 25.6052 200.999 23.8304 202.97C23.5453 203.306 23.3342 203.697 23.2108 204.12C23.0875 204.543 23.0547 204.987 23.1145 205.423C23.1744 205.859 23.3256 206.278 23.5582 206.652C23.7909 207.026 24.0998 207.346 24.4647 207.593C25.9764 208.699 28.2708 208.517 29.9646 208.011C31.8676 207.431 35.1068 204.596 35.3633 204.36C35.7344 205.089 36.1056 205.818 36.47 206.547C37.6577 208.949 38.8319 211.351 40.0736 213.693C40.4987 214.503 40.9509 215.292 41.4232 216.075C40.6202 215.583 39.1491 214.726 39.0141 214.658C36.8546 213.693 32.1106 213.099 30.3425 215.07C30.0581 215.405 29.8474 215.797 29.7241 216.219C29.6008 216.641 29.5677 217.085 29.6269 217.521C29.6861 217.957 29.8362 218.375 30.0676 218.749C30.299 219.123 30.6065 219.445 30.9701 219.692C32.4817 220.799 34.7762 220.617 36.47 220.111C38.1638 219.605 40.9441 217.27 41.7202 216.602C42.476 217.904 43.252 219.186 44.0821 220.401C44.4532 220.92 44.7974 221.474 45.1753 221.953L46.2888 223.404C47.0851 224.369 47.8206 225.273 48.5832 226.15L49.7102 227.439C48.9746 226.819 47.7936 225.86 47.6857 225.786C45.6612 224.504 41.0993 223.195 39.0478 224.875C38.7149 225.164 38.4465 225.519 38.26 225.918C38.0735 226.317 37.9732 226.751 37.9656 227.192C37.9579 227.632 38.0431 228.07 38.2157 228.475C38.3882 228.88 38.6441 229.245 38.9669 229.545C40.3165 230.861 42.5974 231.036 44.3655 230.787C46.2955 230.51 49.8114 228.29 50.2433 228.013C51.1678 229.059 52.0856 230.037 52.9426 231.002C55.6959 233.951 58.105 236.307 59.8124 237.926C61.5197 239.546 62.5117 240.45 62.5117 240.45C62.7024 240.59 62.9391 240.652 63.1739 240.624C63.4086 240.595 63.6238 240.479 63.7757 240.297C63.9277 240.116 64.005 239.884 63.9921 239.648C63.9792 239.412 63.877 239.19 63.7061 239.026C63.7061 239.026 62.7141 238.21 60.9866 236.637Z" fill="#FF7900"/>
<path d="M20.6049 184.939C20.6049 184.939 23.4055 181.22 23.8441 179.189C24.2153 177.461 24.2085 175.14 22.9871 173.736C22.7101 173.394 22.3644 173.114 21.9724 172.914C21.5803 172.714 21.1506 172.598 20.711 172.575C20.2715 172.551 19.8319 172.62 19.4207 172.777C19.0095 172.934 18.6359 173.176 18.324 173.487C16.502 175.41 17.4805 180.093 18.6142 182.165C18.7289 182.347 20.5712 184.972 20.6049 184.939Z" fill="#FF7900"/>
<g opacity="0.1">
<path opacity="0.1" d="M63.5176 235.687C62.944 233.426 62.1679 230.187 61.4256 226.239C61.2097 225.112 60.9937 223.904 60.7913 222.669C61.2907 222.548 65.3329 221.576 66.8648 220.381C68.2617 219.295 69.7395 217.527 69.7193 215.658C69.7291 215.22 69.6471 214.785 69.4785 214.381C69.31 213.978 69.0586 213.613 68.7407 213.313C68.4228 213.012 68.0453 212.781 67.6327 212.635C67.2201 212.489 66.7815 212.432 66.3451 212.466C63.7065 212.763 61.4459 216.974 60.9465 219.295C60.9465 219.443 60.7575 221.238 60.7035 222.156C60.5753 221.407 60.4539 220.665 60.3391 219.882C60.1704 218.762 60.022 217.567 59.8735 216.413L59.7116 214.591C59.6373 213.971 59.6508 213.37 59.6171 212.756C59.6171 211.852 59.6171 210.914 59.6171 209.982C60.771 209.874 64.1519 209.503 65.6501 208.666C67.1482 207.83 68.923 206.284 69.1794 204.435C69.2563 204.001 69.2408 203.556 69.1339 203.129C69.0271 202.702 68.8313 202.302 68.5593 201.955C68.2874 201.609 67.9454 201.324 67.5557 201.119C67.166 200.913 66.7374 200.792 66.2979 200.764C63.6526 200.656 60.7778 204.476 59.9612 206.703C59.9612 206.77 59.8128 207.256 59.6778 207.836C59.6778 206.925 59.752 206.021 59.8195 205.097C60.022 202.478 60.3054 199.826 60.5821 197.161C60.6361 196.6 60.6833 196.047 60.744 195.494C61.7158 195.406 65.3801 195.035 66.9457 194.144C68.5113 193.253 70.2187 191.762 70.4818 189.906C70.5576 189.473 70.5413 189.028 70.434 188.601C70.3267 188.174 70.1309 187.775 69.8591 187.428C69.5874 187.082 69.2458 186.797 68.8567 186.591C68.4675 186.386 68.0395 186.264 67.6003 186.235C64.955 186.134 62.0735 189.953 61.2637 192.174C61.2637 192.254 61.0882 192.848 60.933 193.489C61.0612 192.039 61.1692 190.594 61.2367 189.157C61.3631 186.683 61.3225 184.203 61.1152 181.734C61.4594 181.734 65.7648 181.356 67.5126 180.384C69.0512 179.527 70.7855 178.002 71.042 176.146C71.1188 175.713 71.1033 175.268 70.9964 174.84C70.8896 174.413 70.6938 174.013 70.4218 173.667C70.1499 173.32 69.8079 173.035 69.4182 172.83C69.0286 172.624 68.6 172.504 68.1604 172.475C65.5151 172.374 62.6403 176.194 61.8238 178.414C61.7698 178.569 61.2569 180.681 61.1017 181.444C61.1017 181.444 61.1017 181.383 61.1017 181.356C60.8431 178.941 60.3688 176.554 59.6846 174.223C59.0805 172.141 58.3572 170.095 57.5184 168.096C56.7625 166.233 55.9527 164.573 55.2239 163.109C54.8258 162.319 54.4479 161.61 54.0835 160.942H54.1374C54.1847 160.942 53.9215 157.75 53.881 157.568C53.4154 155.247 51.1817 151.036 48.4824 150.732C48.046 150.698 47.6074 150.756 47.1948 150.902C46.7822 151.048 46.4047 151.278 46.0868 151.579C45.7689 151.88 45.5175 152.244 45.349 152.648C45.1804 153.052 45.0984 153.487 45.1082 153.924C45.1082 155.793 46.5591 157.561 47.956 158.648C49.3529 159.734 53.0172 160.672 53.9215 160.915C54.2859 161.59 54.6638 162.359 55.0687 163.19C55.7435 164.667 56.5263 166.334 57.2417 168.21C57.4374 168.71 57.6196 169.25 57.8085 169.776C57.3092 168.959 56.6006 167.846 56.5196 167.751C55.0417 165.909 51.121 163.217 48.6173 164.161C48.211 164.33 47.8447 164.582 47.5421 164.902C47.2396 165.221 47.0076 165.601 46.8613 166.016C46.7149 166.43 46.6574 166.871 46.6926 167.31C46.7277 167.749 46.8547 168.175 47.0652 168.561C47.902 170.235 50.0277 171.119 51.789 171.443C53.5503 171.767 57.3429 170.896 58.1594 170.694C58.5643 171.861 58.949 173.069 59.2797 174.351C59.9085 176.666 60.3264 179.033 60.5281 181.423C60.5281 181.558 60.5281 181.707 60.5281 181.842C60.3526 181.396 59.1784 179.014 59.0975 178.859C57.8288 176.835 54.1982 173.751 51.6338 174.419C51.2108 174.541 50.8183 174.751 50.4819 175.035C50.1456 175.32 49.873 175.672 49.6819 176.068C49.4909 176.465 49.3857 176.898 49.3732 177.338C49.3606 177.778 49.4411 178.216 49.6093 178.623C50.2842 180.377 52.3087 181.498 53.9687 181.997C55.919 182.584 60.3661 181.957 60.5348 181.936C60.6706 184.322 60.6548 186.713 60.4876 189.096C60.3661 190.864 60.1772 192.646 59.968 194.434C59.725 193.861 58.6183 191.647 58.5508 191.499C57.2822 189.474 53.6516 186.39 51.0872 187.058C50.6642 187.181 50.2716 187.391 49.9353 187.675C49.599 187.959 49.3264 188.311 49.1353 188.708C48.9443 189.105 48.8391 189.537 48.8265 189.977C48.814 190.418 48.8945 190.856 49.0627 191.262C49.7375 193.017 51.762 194.131 53.4221 194.637C55.3252 195.204 59.5901 194.637 59.9545 194.576C59.8533 195.386 59.7655 196.202 59.6643 197.012C59.3336 199.664 58.9895 202.33 58.7263 204.962C58.6386 205.873 58.5846 206.777 58.5238 207.661C58.1257 206.811 57.3766 205.272 57.2957 205.151C56.027 203.126 52.4031 200.042 49.8725 200.71C49.4501 200.833 49.0582 201.044 48.7225 201.328C48.3867 201.613 48.1146 201.965 47.9237 202.361C47.7327 202.758 47.6273 203.19 47.6143 203.63C47.6013 204.07 47.6809 204.507 47.848 204.914C48.5229 206.669 50.5473 207.782 52.2074 208.288C53.8675 208.795 57.5049 208.39 58.5171 208.255C58.4294 209.76 58.3754 211.258 58.3956 212.729C58.3956 213.37 58.3956 214.018 58.4564 214.625L58.5778 216.454C58.7128 217.696 58.8275 218.85 58.976 220.01C59.0502 220.591 59.1312 221.137 59.2122 221.704C58.9355 220.786 58.4834 219.329 58.4294 219.2C57.4711 217.034 54.3804 213.41 51.7216 213.68C51.2855 213.738 50.8665 213.887 50.4917 214.117C50.1169 214.347 49.7946 214.653 49.5458 215.016C49.297 215.379 49.1272 215.79 49.0475 216.222C48.9678 216.655 48.9798 217.099 49.083 217.527C49.4609 219.362 51.2829 220.773 52.8823 221.529C54.6436 222.365 58.8005 222.453 59.3134 222.46C59.5091 223.85 59.7116 225.193 59.9275 226.455C60.6023 230.43 61.2772 233.723 61.8305 236.017C62.3839 238.312 62.7213 239.621 62.7213 239.621C62.8041 239.841 62.9672 240.022 63.1779 240.127C63.3886 240.232 63.6312 240.253 63.8569 240.186C64.0826 240.12 64.2747 239.97 64.3946 239.767C64.5144 239.565 64.5531 239.324 64.5028 239.095C64.5028 239.095 64.0912 237.954 63.5176 235.687Z" fill="black"/>
<path opacity="0.1" d="M58.3555 170.282C58.3555 170.282 62.7486 168.729 64.2265 167.279C65.4884 166.037 66.7571 164.114 66.5209 162.258C66.4796 161.819 66.3465 161.394 66.1301 161.011C65.9137 160.627 65.6189 160.293 65.265 160.031C64.9111 159.769 64.5059 159.584 64.0759 159.488C63.6458 159.393 63.2005 159.389 62.7689 159.478C60.191 160.078 58.423 164.519 58.2273 166.901C58.207 167.096 58.3082 170.302 58.3555 170.282Z" fill="black"/>
<path opacity="0.1" d="M60.9866 236.637C59.2658 235.072 56.8364 232.791 54.0426 229.929C53.2395 229.106 52.396 228.222 51.5457 227.304C51.8966 226.926 54.7241 223.883 55.3517 222.041C55.9186 220.367 56.175 218.079 55.1223 216.527C54.8878 216.155 54.5775 215.837 54.2117 215.593C53.8459 215.348 53.4328 215.184 52.9992 215.11C52.5657 215.036 52.1214 215.055 51.6954 215.164C51.2694 215.273 50.8712 215.471 50.5267 215.745C48.5022 217.445 48.9274 222.209 49.8181 224.396C49.8721 224.538 50.7359 226.123 51.1678 226.92C50.6482 226.366 50.1353 225.813 49.6089 225.219C48.8464 224.382 48.0703 223.465 47.3078 222.587L46.1605 221.157C45.7624 220.678 45.4452 220.171 45.0741 219.679C44.5477 218.943 44.0416 218.154 43.5355 217.364C44.4397 216.642 47.0581 214.462 47.8476 212.944C48.6372 211.426 49.2648 209.151 48.455 207.464C48.2797 207.061 48.0212 206.698 47.6965 206.401C47.3717 206.104 46.9879 205.879 46.5702 205.74C46.1525 205.601 45.7101 205.552 45.2721 205.595C44.8341 205.639 44.4102 205.775 44.0281 205.993C41.7607 207.343 41.4705 212.134 42.0036 214.435C42.0036 214.516 42.1925 214.989 42.395 215.549C41.9226 214.766 41.4502 213.99 40.9981 213.18C39.7227 210.886 38.4945 208.517 37.2528 206.142C36.9963 205.649 36.7332 205.156 36.47 204.664C37.2325 204.056 40.0871 201.722 40.9171 200.129C41.7472 198.536 42.3275 196.336 41.5245 194.649C41.3492 194.246 41.0907 193.883 40.7659 193.586C40.4412 193.289 40.0574 193.064 39.6397 192.925C39.2219 192.786 38.7796 192.737 38.3416 192.78C37.9036 192.824 37.4797 192.96 37.0976 193.178C34.8301 194.528 34.54 199.319 35.0731 201.62C35.0731 201.708 35.2958 202.295 35.5252 202.903C34.8504 201.62 34.1216 200.358 33.386 199.117C32.1247 196.991 30.7248 194.951 29.1953 193.009C29.472 192.794 32.8731 190.128 33.7909 188.36C34.6074 186.794 35.208 184.567 34.3982 182.88C34.2236 182.476 33.9656 182.113 33.6411 181.815C33.3167 181.517 32.933 181.291 32.5152 181.152C32.0974 181.012 31.6549 180.962 31.2165 181.006C30.7782 181.049 30.3539 181.184 29.9714 181.402C27.7039 182.752 27.4137 187.55 27.9469 189.851C27.9874 190.013 28.7297 192.058 29.0131 192.78L28.9659 192.706C27.4123 190.839 25.6985 189.112 23.8439 187.543C22.2146 186.14 20.5068 184.831 18.7287 183.623C17.0686 182.489 15.476 181.551 14.0656 180.734C13.2963 180.296 12.581 179.911 11.9196 179.56H11.9669C12.0141 179.56 10.0234 177.016 9.8749 176.861C8.20806 175.18 4.00387 172.92 1.64196 174.121C1.25493 174.33 0.916348 174.619 0.648282 174.968C0.380215 175.316 0.188684 175.718 0.0861732 176.146C-0.0163373 176.574 -0.0275249 177.018 0.0533383 177.451C0.134202 177.883 0.3053 178.294 0.555482 178.656C1.56773 180.235 3.77442 180.896 5.54248 181.031C7.31054 181.166 10.8939 179.938 11.7644 179.628C12.4393 180.005 13.1816 180.417 13.9779 180.896C15.368 181.74 16.9336 182.712 18.56 183.879C18.9986 184.189 19.4507 184.554 19.9096 184.871C19.0458 184.466 17.8379 183.933 17.7164 183.893C15.4625 183.17 10.6847 183.096 9.13933 185.242C8.89421 185.608 8.72846 186.02 8.65281 186.454C8.57715 186.887 8.59327 187.331 8.70012 187.758C8.80697 188.185 9.00217 188.584 9.27311 188.931C9.54405 189.278 9.8847 189.564 10.273 189.77C11.8994 190.695 14.1601 190.27 15.7864 189.575C17.4128 188.88 20.1188 186.052 20.6924 185.438C21.6709 186.187 22.6562 186.983 23.6414 187.867C25.4404 189.453 27.0936 191.196 28.5812 193.077C28.6689 193.185 28.7432 193.306 28.8309 193.421C28.4327 193.144 26.1316 191.802 25.9831 191.727C23.8236 190.762 19.0796 190.162 17.3115 192.139C17.0271 192.475 16.8164 192.866 16.6931 193.288C16.5699 193.711 16.5367 194.154 16.5959 194.59C16.6551 195.026 16.8053 195.444 17.0367 195.819C17.2681 196.193 17.5755 196.514 17.9391 196.762C19.4507 197.862 21.7519 197.686 23.439 197.173C25.3893 196.586 28.7567 193.61 28.8849 193.502C30.3186 195.415 31.626 197.419 32.7989 199.501C33.6762 201.04 34.4995 202.633 35.3093 204.225C34.7896 203.881 32.6707 202.633 32.5087 202.558C30.3493 201.593 25.6052 200.999 23.8304 202.97C23.5453 203.306 23.3342 203.697 23.2108 204.12C23.0875 204.543 23.0547 204.987 23.1145 205.423C23.1744 205.859 23.3256 206.278 23.5582 206.652C23.7909 207.026 24.0998 207.346 24.4647 207.593C25.9764 208.699 28.2708 208.517 29.9646 208.011C31.8676 207.431 35.1068 204.596 35.3633 204.36C35.7344 205.089 36.1056 205.818 36.47 206.547C37.6577 208.949 38.8319 211.351 40.0736 213.693C40.4987 214.503 40.9509 215.292 41.4232 216.075C40.6202 215.583 39.1491 214.726 39.0141 214.658C36.8546 213.693 32.1106 213.099 30.3425 215.07C30.0581 215.405 29.8474 215.797 29.7241 216.219C29.6008 216.641 29.5677 217.085 29.6269 217.521C29.6861 217.957 29.8362 218.375 30.0676 218.749C30.299 219.123 30.6065 219.445 30.9701 219.692C32.4817 220.799 34.7762 220.617 36.47 220.111C38.1638 219.605 40.9441 217.27 41.7202 216.602C42.476 217.904 43.252 219.186 44.0821 220.401C44.4532 220.92 44.7974 221.474 45.1753 221.953L46.2888 223.404C47.0851 224.369 47.8206 225.273 48.5832 226.15L49.7102 227.439C48.9746 226.819 47.7936 225.86 47.6857 225.786C45.6612 224.504 41.0993 223.195 39.0478 224.875C38.7149 225.164 38.4465 225.519 38.26 225.918C38.0735 226.317 37.9732 226.751 37.9656 227.192C37.9579 227.632 38.0431 228.07 38.2157 228.475C38.3882 228.88 38.6441 229.245 38.9669 229.545C40.3165 230.861 42.5974 231.036 44.3655 230.787C46.2955 230.51 49.8114 228.29 50.2433 228.013C51.1678 229.059 52.0856 230.037 52.9426 231.002C55.6959 233.951 58.105 236.307 59.8124 237.926C61.5197 239.546 62.5117 240.45 62.5117 240.45C62.7024 240.59 62.9391 240.652 63.1739 240.624C63.4086 240.595 63.6238 240.479 63.7757 240.297C63.9277 240.116 64.005 239.884 63.9921 239.648C63.9792 239.412 63.877 239.19 63.7061 239.026C63.7061 239.026 62.7141 238.21 60.9866 236.637Z" fill="black"/>
<path opacity="0.1" d="M20.6049 184.939C20.6049 184.939 23.4055 181.22 23.8441 179.189C24.2153 177.461 24.2085 175.14 22.9871 173.736C22.7101 173.394 22.3644 173.114 21.9724 172.914C21.5803 172.714 21.1506 172.598 20.711 172.575C20.2715 172.551 19.8319 172.62 19.4207 172.777C19.0095 172.934 18.6359 173.176 18.324 173.487C16.502 175.41 17.4805 180.093 18.6142 182.165C18.7289 182.347 20.5712 184.972 20.6049 184.939Z" fill="black"/>
</g>
<g opacity="0.1">
<path opacity="0.1" d="M80.7325 186.457C80.2601 184.176 79.6325 180.903 79.0589 176.949C78.8902 175.808 78.7282 174.6 78.5798 173.352C79.0926 173.257 83.1686 172.461 84.7545 171.327C86.1986 170.308 87.7507 168.628 87.8114 166.738C87.8463 166.296 87.7868 165.852 87.6369 165.434C87.487 165.017 87.2501 164.636 86.942 164.317C86.6338 163.998 86.2614 163.748 85.8494 163.584C85.4373 163.42 84.9951 163.345 84.552 163.364C81.9067 163.546 79.4638 167.649 78.8902 169.951C78.8564 170.099 78.6203 171.881 78.519 172.798C78.4313 172.043 78.3436 171.293 78.2626 170.511C78.1411 169.377 78.0466 168.183 77.9522 167.022C77.9522 166.414 77.8914 165.807 77.8644 165.193C77.8375 164.579 77.8644 163.978 77.8644 163.357C77.8644 162.453 77.9319 161.515 77.9792 160.584C79.1399 160.53 82.5343 160.307 84.0526 159.538C85.571 158.769 87.4268 157.304 87.771 155.489C87.8654 155.06 87.8691 154.616 87.7817 154.186C87.6943 153.756 87.5177 153.349 87.2635 152.991C87.0092 152.633 86.6828 152.332 86.3053 152.108C85.9278 151.884 85.5076 151.742 85.0716 151.69C82.433 151.474 79.3896 155.158 78.4853 157.345C78.4515 157.412 78.3098 157.898 78.1411 158.472C78.2221 157.561 78.2963 156.65 78.4111 155.732C78.7215 153.134 79.1264 150.488 79.5178 147.836C79.5988 147.283 79.673 146.736 79.754 146.183C80.7257 146.136 84.4103 145.933 86.0096 145.13C87.609 144.327 89.3838 142.89 89.728 141.081C89.8235 140.653 89.828 140.208 89.741 139.778C89.654 139.347 89.4776 138.94 89.2232 138.581C88.9687 138.223 88.6419 137.923 88.2639 137.699C87.8858 137.475 87.465 137.333 87.0287 137.282C84.3833 137.066 81.3466 140.751 80.4356 142.937C80.4356 143.011 80.2331 143.612 80.0441 144.233C80.2398 142.795 80.4086 141.351 80.5368 139.921C80.7743 137.454 80.8442 134.974 80.746 132.497C81.0901 132.497 85.409 132.329 87.1906 131.438C88.7765 130.648 90.5648 129.204 90.9089 127.389C91.0045 126.961 91.0089 126.517 90.9219 126.087C90.8349 125.656 90.6584 125.249 90.4039 124.892C90.1493 124.534 89.8224 124.234 89.4444 124.011C89.0664 123.788 88.6457 123.646 88.2096 123.596C85.5643 123.374 82.5275 127.065 81.6165 129.245C81.549 129.4 80.9417 131.492 80.7595 132.241C80.7561 132.212 80.7561 132.182 80.7595 132.153C80.6033 129.73 80.2329 127.325 79.6527 124.966C79.1434 122.858 78.5125 120.78 77.7632 118.744C77.0884 116.855 76.3528 115.161 75.6915 113.67C75.3271 112.86 74.9762 112.131 74.6455 111.456H74.6995C74.7467 111.456 74.6185 108.251 74.5915 108.082C74.2271 105.747 72.1554 101.442 69.537 101.023C69.1005 100.965 68.6567 101 68.2345 101.125C67.8123 101.25 67.4212 101.463 67.0869 101.75C66.7525 102.037 66.4824 102.39 66.2941 102.788C66.1058 103.187 66.0036 103.62 65.9942 104.06C65.8862 105.929 67.2831 107.758 68.626 108.905C69.9689 110.053 73.5995 111.173 74.4903 111.429C74.821 112.145 75.1651 112.907 75.5363 113.757C76.1639 115.262 76.8859 116.963 77.4865 118.866C77.6553 119.372 77.8172 119.925 77.9859 120.452C77.5203 119.615 76.8657 118.474 76.7847 118.373C75.3878 116.464 71.5615 113.595 69.0512 114.432C68.637 114.582 68.2591 114.817 67.9419 115.122C67.6248 115.428 67.3757 115.796 67.2107 116.205C67.0458 116.613 66.9688 117.051 66.9847 117.491C67.0007 117.931 67.1093 118.363 67.3033 118.758C68.0659 120.465 70.1511 121.457 71.8787 121.842C73.6063 122.227 77.4528 121.545 78.2761 121.383C78.627 122.564 78.9509 123.785 79.2344 125.081C79.7446 127.409 80.0472 129.778 80.1386 132.16C80.1386 132.302 80.1386 132.443 80.1386 132.585C79.9767 132.126 78.9239 129.704 78.8362 129.542C77.6553 127.517 74.1664 124.217 71.575 124.771C71.1464 124.874 70.7444 125.067 70.3953 125.337C70.0462 125.606 69.7579 125.946 69.549 126.335C69.3402 126.723 69.2155 127.151 69.1832 127.591C69.1509 128.031 69.2117 128.472 69.3616 128.887C69.9352 130.662 71.9057 131.87 73.5725 132.45C75.4958 133.125 79.9699 132.693 80.1319 132.68C80.1686 135.069 80.0492 137.459 79.7742 139.833C79.5785 141.594 79.3086 143.369 79.0184 145.144C78.7957 144.557 77.8239 142.303 77.7295 142.148C76.5553 140.123 73.0664 136.83 70.475 137.383C70.0472 137.487 69.646 137.68 69.2975 137.949C68.949 138.218 68.661 138.557 68.4523 138.945C68.2435 139.332 68.1187 139.76 68.0858 140.199C68.053 140.638 68.1128 141.079 68.2616 141.493C68.8352 143.275 70.799 144.476 72.4725 145.063C74.3486 145.738 78.6337 145.326 78.9982 145.292C78.8632 146.095 78.735 146.905 78.6 147.715C78.1479 150.347 77.689 152.992 77.3178 155.61C77.1829 156.521 77.0884 157.419 76.9939 158.31C76.6362 157.439 75.9547 155.874 75.8804 155.745C74.6995 153.721 71.2106 150.421 68.6193 150.981C68.1914 151.085 67.7902 151.278 67.4417 151.547C67.0932 151.816 66.8053 152.155 66.5965 152.543C66.3877 152.93 66.2629 153.357 66.23 153.796C66.1972 154.235 66.2571 154.676 66.4058 155.091C66.9794 156.872 68.9432 158.074 70.6168 158.661C72.2903 159.248 75.9007 158.991 76.9197 158.91C76.7645 160.408 76.6497 161.9 76.6025 163.371C76.6025 164.005 76.5418 164.66 76.6025 165.267C76.6632 165.875 76.6025 166.495 76.643 167.096C76.724 168.344 76.7847 169.505 76.8859 170.666C76.9332 171.253 76.9872 171.806 77.0412 172.373C76.8117 171.442 76.4203 169.964 76.3663 169.836C75.5093 167.629 72.5603 163.87 69.9082 164.026C69.4698 164.065 69.0444 164.195 68.6597 164.409C68.275 164.623 67.9395 164.916 67.6749 165.267C67.4103 165.619 67.2224 166.022 67.1236 166.451C67.0247 166.88 67.017 167.325 67.1009 167.757C67.3978 169.6 69.1254 171.091 70.718 171.921C72.4455 172.832 76.5958 173.102 77.1019 173.136C77.2369 174.526 77.3853 175.882 77.5405 177.144C78.0399 181.153 78.6 184.466 79.0252 186.788C79.4503 189.109 79.754 190.425 79.754 190.425C79.7743 190.552 79.8209 190.674 79.8907 190.782C79.9605 190.89 80.052 190.983 80.1594 191.054C80.2668 191.125 80.3879 191.173 80.5148 191.195C80.6418 191.217 80.7719 191.213 80.897 191.182C81.0221 191.151 81.1394 191.094 81.2415 191.016C81.3436 190.937 81.4283 190.838 81.4902 190.725C81.5521 190.612 81.5899 190.488 81.6012 190.359C81.6125 190.231 81.597 190.102 81.5558 189.98C81.5558 189.98 81.2049 188.745 80.7325 186.457Z" fill="black"/>
<path opacity="0.1" d="M78.4651 120.89C78.4651 120.89 82.919 119.54 84.4643 118.144C85.814 116.969 87.1637 115.1 86.968 113.231C86.9468 112.791 86.8333 112.361 86.6349 111.969C86.4365 111.576 86.1575 111.23 85.8163 110.952C85.475 110.675 85.0791 110.472 84.6543 110.358C84.2295 110.243 83.7854 110.22 83.3509 110.289C80.746 110.774 78.7823 115.134 78.4853 117.482C78.4584 117.685 78.4179 120.904 78.4651 120.89Z" fill="black"/>
</g>
<path d="M223.452 203.295C223.539 224.437 240.363 241.511 240.363 241.511C240.363 241.511 257.045 224.296 256.95 203.153C256.856 182.011 240.073 164.938 240.073 164.938C240.073 164.938 223.357 182.152 223.452 203.295Z" fill="#FF7900"/>
<path d="M240.363 241.511L240.039 164.938" stroke="white" stroke-width="0.910297" stroke-miterlimit="10"/>
<path d="M240.154 192.153L230.74 184.008" stroke="white" stroke-width="0.910297" stroke-miterlimit="10"/>
<path d="M240.357 204.806L251.897 187.936" stroke="white" stroke-width="0.910297" stroke-miterlimit="10"/>
<path d="M240.241 212.1L226.34 199.805" stroke="white" stroke-width="0.910297" stroke-miterlimit="10"/>
<path d="M240.432 221.925L254.077 209.656" stroke="white" stroke-width="0.910297" stroke-miterlimit="10"/>
<path d="M240.465 230.408L229.715 221.973" stroke="white" stroke-width="0.910297" stroke-miterlimit="10"/>
<path d="M211.987 235.929C220.159 245.094 234 246.052 234 246.052C234 246.052 234.614 232.171 226.442 223.033C218.27 213.896 204.402 212.965 204.402 212.965C204.402 212.965 203.815 226.819 211.987 235.929Z" fill="#FF7900"/>
<path d="M234.026 246.024L204.428 212.938" stroke="white" stroke-width="0.910297" stroke-miterlimit="10"/>
<path d="M214.949 224.693L207.729 224.781" stroke="white" stroke-width="0.910297" stroke-miterlimit="10"/>
<path d="M219.903 230.105L218.418 218.35" stroke="white" stroke-width="0.910297" stroke-miterlimit="10"/>
<path d="M222.655 233.316L211.898 233.33" stroke="white" stroke-width="0.910297" stroke-miterlimit="10"/>
<path d="M226.521 237.501L227.723 226.934" stroke="white" stroke-width="0.910297" stroke-miterlimit="10"/>
<path d="M229.802 241.172L221.893 241.644" stroke="white" stroke-width="0.910297" stroke-miterlimit="10"/>
<path d="M254.608 222.561C246.105 231.395 246.213 245.29 246.213 245.29C246.213 245.29 260.101 244.865 268.604 236.031C277.107 227.197 276.999 213.303 276.999 213.303C276.999 213.303 263.111 213.728 254.608 222.561Z" fill="#FF7900"/>
<path d="M246.213 245.29L276.999 213.303" stroke="white" stroke-width="0.910297" stroke-miterlimit="10"/>
<path d="M266.061 224.672L265.434 217.479" stroke="white" stroke-width="0.910297" stroke-miterlimit="10"/>
<path d="M261.033 230.017L272.647 227.662" stroke="white" stroke-width="0.910297" stroke-miterlimit="10"/>
<path d="M258.037 233.007L257.221 222.277" stroke="white" stroke-width="0.910297" stroke-miterlimit="10"/>
<path d="M254.15 237.17L264.779 237.575" stroke="white" stroke-width="0.910297" stroke-miterlimit="10"/>
<path d="M250.736 240.712L249.67 232.857" stroke="white" stroke-width="0.910297" stroke-miterlimit="10"/>
<g opacity="0.1">
<path opacity="0.1" d="M223.454 203.295C223.541 224.437 240.365 241.511 240.365 241.511C240.365 241.511 257.047 224.296 256.952 203.153C256.858 182.011 240.075 164.938 240.075 164.938C240.075 164.938 223.359 182.152 223.454 203.295Z" fill="black"/>
<path opacity="0.1" d="M211.987 235.929C220.159 245.094 234 246.052 234 246.052C234 246.052 234.614 232.171 226.442 223.033C218.27 213.896 204.402 212.965 204.402 212.965C204.402 212.965 203.815 226.819 211.987 235.929Z" fill="black"/>
<path opacity="0.1" d="M254.61 222.561C246.107 231.395 246.215 245.29 246.215 245.29C246.215 245.29 260.103 244.865 268.606 236.031C277.109 227.197 277.001 213.303 277.001 213.303C277.001 213.303 263.113 213.728 254.61 222.561Z" fill="black"/>
</g>
<path d="M228.245 30.6309H61.7773V244.896H228.245V30.6309Z" fill="white" stroke="#263238" stroke-width="0.987488" stroke-linecap="round" stroke-linejoin="round"/>
<g style="mix-blend-mode:multiply">
<path d="M88.3319 30.6309H61.7773V244.896H88.3319V30.6309Z" fill="#FF7900"/>
</g>
<path d="M191.258 62.2871H140.207V68.2931H191.258V62.2871Z" fill="#FF7900" stroke="#263238" stroke-width="0.987488" stroke-linecap="round" stroke-linejoin="round"/>
<path d="M222.662 113.459H82.7227V119.465H222.662V113.459Z" fill="#FF7900"/>
<path d="M222.662 196.004H82.7227V202.01H222.662V196.004Z" fill="#FF7900"/>
<path d="M172.383 72.6328H140.207V78.6388H172.383V72.6328Z" fill="#FF7900" stroke="#263238" stroke-width="0.987488" stroke-linecap="round" stroke-linejoin="round"/>
<path d="M172.383 82.7617H140.207V88.7677H172.383V82.7617Z" fill="#FF7900" stroke="#263238" stroke-width="0.987488" stroke-linecap="round" stroke-linejoin="round"/>
<path d="M135.78 126.08H132.467V129.394H135.78V126.08Z" fill="#FF7900" stroke="#263238" stroke-width="0.987488" stroke-linecap="round" stroke-linejoin="round"/>
<path d="M135.78 168.695H132.467V172.009H135.78V168.695Z" fill="#FF7900" stroke="#263238" stroke-width="0.987488" stroke-linecap="round" stroke-linejoin="round"/>
<path d="M182.538 126.08H179.225V129.394H182.538V126.08Z" fill="#FF7900" stroke="#263238" stroke-width="0.987488" stroke-linecap="round" stroke-linejoin="round"/>
<path d="M182.538 168.695H179.225V172.009H182.538V168.695Z" fill="#FF7900" stroke="#263238" stroke-width="0.987488" stroke-linecap="round" stroke-linejoin="round"/>
<path d="M228.245 30.6309H61.7773V41.5294H228.245V30.6309Z" fill="#263238" stroke="#263238" stroke-width="0.987488" stroke-linecap="round" stroke-linejoin="round"/>
<path d="M170.453 128.38H141.152C140.901 128.38 140.661 128.28 140.484 128.103C140.307 127.926 140.207 127.686 140.207 127.435C140.207 127.184 140.307 126.944 140.484 126.767C140.661 126.59 140.901 126.49 141.152 126.49H170.453C170.704 126.49 170.944 126.59 171.121 126.767C171.298 126.944 171.398 127.184 171.398 127.435C171.398 127.686 171.298 127.926 171.121 128.103C170.944 128.28 170.704 128.38 170.453 128.38Z" fill="#263238"/>
<path d="M170.453 133.111H141.152C140.901 133.109 140.66 133.008 140.483 132.83C140.306 132.652 140.207 132.411 140.207 132.16C140.207 131.909 140.307 131.669 140.484 131.492C140.661 131.314 140.901 131.215 141.152 131.215H170.453C170.704 131.215 170.944 131.314 171.121 131.492C171.298 131.669 171.398 131.909 171.398 132.16C171.398 132.411 171.298 132.652 171.121 132.83C170.944 133.008 170.704 133.109 170.453 133.111Z" fill="#263238"/>
<path d="M170.453 137.835H141.152C140.901 137.835 140.661 137.735 140.484 137.558C140.307 137.381 140.207 137.141 140.207 136.89C140.207 136.64 140.307 136.399 140.484 136.222C140.661 136.045 140.901 135.945 141.152 135.945H170.453C170.704 135.945 170.944 136.045 171.121 136.222C171.298 136.399 171.398 136.64 171.398 136.89C171.398 137.141 171.298 137.381 171.121 137.558C170.944 137.735 170.704 137.835 170.453 137.835Z" fill="#263238"/>
<path d="M170.453 142.558H141.152C140.901 142.558 140.661 142.458 140.484 142.281C140.307 142.104 140.207 141.863 140.207 141.613C140.207 141.362 140.307 141.122 140.484 140.945C140.661 140.768 140.901 140.668 141.152 140.668H170.453C170.704 140.668 170.944 140.768 171.121 140.945C171.298 141.122 171.398 141.362 171.398 141.613C171.398 141.863 171.298 142.104 171.121 142.281C170.944 142.458 170.704 142.558 170.453 142.558Z" fill="#263238"/>
<path d="M170.453 147.282H141.152C140.901 147.282 140.661 147.183 140.484 147.005C140.307 146.828 140.207 146.588 140.207 146.337C140.207 146.087 140.307 145.846 140.484 145.669C140.661 145.492 140.901 145.393 141.152 145.393H170.453C170.704 145.393 170.944 145.492 171.121 145.669C171.298 145.846 171.398 146.087 171.398 146.337C171.398 146.588 171.298 146.828 171.121 147.005C170.944 147.183 170.704 147.282 170.453 147.282Z" fill="#263238"/>
<path d="M214.775 128.38H185.474C185.223 128.38 184.983 128.28 184.806 128.103C184.629 127.926 184.529 127.686 184.529 127.435C184.529 127.184 184.629 126.944 184.806 126.767C184.983 126.59 185.223 126.49 185.474 126.49H214.775C215.026 126.49 215.266 126.59 215.443 126.767C215.62 126.944 215.72 127.184 215.72 127.435C215.72 127.686 215.62 127.926 215.443 128.103C215.266 128.28 215.026 128.38 214.775 128.38Z" fill="#263238"/>
<path d="M214.775 133.111H185.474C185.223 133.109 184.983 133.008 184.806 132.83C184.629 132.652 184.529 132.411 184.529 132.16C184.529 131.909 184.629 131.669 184.806 131.492C184.983 131.314 185.223 131.215 185.474 131.215H214.775C215.026 131.215 215.266 131.314 215.443 131.492C215.62 131.669 215.72 131.909 215.72 132.16C215.72 132.411 215.621 132.652 215.444 132.83C215.267 133.008 215.026 133.109 214.775 133.111Z" fill="#263238"/>
<path d="M214.775 137.835H185.474C185.223 137.835 184.983 137.735 184.806 137.558C184.629 137.381 184.529 137.141 184.529 136.89C184.529 136.64 184.629 136.399 184.806 136.222C184.983 136.045 185.223 135.945 185.474 135.945H214.775C215.026 135.945 215.266 136.045 215.443 136.222C215.62 136.399 215.72 136.64 215.72 136.89C215.72 137.141 215.62 137.381 215.443 137.558C215.266 137.735 215.026 137.835 214.775 137.835Z" fill="#263238"/>
<path d="M214.775 142.558H185.474C185.223 142.558 184.983 142.458 184.806 142.281C184.629 142.104 184.529 141.863 184.529 141.613C184.529 141.362 184.629 141.122 184.806 140.945C184.983 140.768 185.223 140.668 185.474 140.668H214.775C215.026 140.668 215.266 140.768 215.443 140.945C215.62 141.122 215.72 141.362 215.72 141.613C215.72 141.863 215.62 142.104 215.443 142.281C215.266 142.458 215.026 142.558 214.775 142.558Z" fill="#263238"/>
<path d="M214.775 147.282H185.474C185.223 147.282 184.983 147.183 184.806 147.005C184.629 146.828 184.529 146.588 184.529 146.337C184.529 146.087 184.629 145.846 184.806 145.669C184.983 145.492 185.223 145.393 185.474 145.393H214.775C215.026 145.393 215.266 145.492 215.443 145.669C215.62 145.846 215.72 146.087 215.72 146.337C215.72 146.588 215.62 146.828 215.443 147.005C215.266 147.183 215.026 147.282 214.775 147.282Z" fill="#263238"/>
<path d="M170.453 170.287H141.152C140.901 170.285 140.66 170.184 140.483 170.006C140.306 169.828 140.207 169.587 140.207 169.335C140.207 169.085 140.307 168.845 140.484 168.667C140.661 168.49 140.901 168.391 141.152 168.391H170.453C170.704 168.391 170.944 168.49 171.121 168.667C171.298 168.845 171.398 169.085 171.398 169.335C171.398 169.587 171.298 169.828 171.121 170.006C170.944 170.184 170.704 170.285 170.453 170.287Z" fill="#263238"/>
<path d="M170.453 175.011H141.152C140.901 175.011 140.661 174.911 140.484 174.734C140.307 174.557 140.207 174.316 140.207 174.066C140.207 173.815 140.307 173.575 140.484 173.398C140.661 173.221 140.901 173.121 141.152 173.121H170.453C170.704 173.121 170.944 173.221 171.121 173.398C171.298 173.575 171.398 173.815 171.398 174.066C171.398 174.316 171.298 174.557 171.121 174.734C170.944 174.911 170.704 175.011 170.453 175.011Z" fill="#263238"/>
<path d="M170.453 179.735H141.152C140.901 179.735 140.661 179.636 140.484 179.459C140.307 179.281 140.207 179.041 140.207 178.79C140.207 178.54 140.307 178.3 140.484 178.122C140.661 177.945 140.901 177.846 141.152 177.846H170.453C170.704 177.846 170.944 177.945 171.121 178.122C171.298 178.3 171.398 178.54 171.398 178.79C171.398 179.041 171.298 179.281 171.121 179.459C170.944 179.636 170.704 179.735 170.453 179.735Z" fill="#263238"/>
<path d="M170.453 184.458H141.152C140.901 184.458 140.661 184.358 140.484 184.181C140.307 184.004 140.207 183.764 140.207 183.513C140.207 183.263 140.307 183.022 140.484 182.845C140.661 182.668 140.901 182.568 141.152 182.568H170.453C170.704 182.568 170.944 182.668 171.121 182.845C171.298 183.022 171.398 183.263 171.398 183.513C171.398 183.764 171.298 184.004 171.121 184.181C170.944 184.358 170.704 184.458 170.453 184.458Z" fill="#263238"/>
<path d="M170.453 189.19H141.152C140.901 189.19 140.661 189.091 140.484 188.914C140.307 188.736 140.207 188.496 140.207 188.246C140.207 187.995 140.307 187.755 140.484 187.577C140.661 187.4 140.901 187.301 141.152 187.301H170.453C170.704 187.301 170.944 187.4 171.121 187.577C171.298 187.755 171.398 187.995 171.398 188.246C171.398 188.496 171.298 188.736 171.121 188.914C170.944 189.091 170.704 189.19 170.453 189.19Z" fill="#263238"/>
<path d="M214.775 170.287H185.474C185.223 170.285 184.983 170.184 184.806 170.006C184.629 169.828 184.529 169.587 184.529 169.335C184.529 169.085 184.629 168.845 184.806 168.667C184.983 168.49 185.223 168.391 185.474 168.391H214.775C215.026 168.391 215.266 168.49 215.443 168.667C215.62 168.845 215.72 169.085 215.72 169.335C215.72 169.587 215.621 169.828 215.444 170.006C215.267 170.184 215.026 170.285 214.775 170.287Z" fill="#263238"/>
<path d="M214.775 175.011H185.474C185.223 175.011 184.983 174.911 184.806 174.734C184.629 174.557 184.529 174.316 184.529 174.066C184.529 173.815 184.629 173.575 184.806 173.398C184.983 173.221 185.223 173.121 185.474 173.121H214.775C215.026 173.121 215.266 173.221 215.443 173.398C215.62 173.575 215.72 173.815 215.72 174.066C215.72 174.316 215.62 174.557 215.443 174.734C215.266 174.911 215.026 175.011 214.775 175.011Z" fill="#263238"/>
<path d="M214.775 179.735H185.474C185.223 179.735 184.983 179.636 184.806 179.459C184.629 179.281 184.529 179.041 184.529 178.79C184.529 178.54 184.629 178.3 184.806 178.122C184.983 177.945 185.223 177.846 185.474 177.846H214.775C215.026 177.846 215.266 177.945 215.443 178.122C215.62 178.3 215.72 178.54 215.72 178.79C215.72 179.041 215.62 179.281 215.443 179.459C215.266 179.636 215.026 179.735 214.775 179.735Z" fill="#263238"/>
<path d="M214.775 184.458H185.474C185.223 184.458 184.983 184.358 184.806 184.181C184.629 184.004 184.529 183.764 184.529 183.513C184.529 183.263 184.629 183.022 184.806 182.845C184.983 182.668 185.223 182.568 185.474 182.568H214.775C215.026 182.568 215.266 182.668 215.443 182.845C215.62 183.022 215.72 183.263 215.72 183.513C215.72 183.764 215.62 184.004 215.443 184.181C215.266 184.358 215.026 184.458 214.775 184.458Z" fill="#263238"/>
<path d="M214.775 189.19H185.474C185.223 189.19 184.983 189.091 184.806 188.914C184.629 188.736 184.529 188.496 184.529 188.246C184.529 187.995 184.629 187.755 184.806 187.577C184.983 187.4 185.223 187.301 185.474 187.301H214.775C215.026 187.301 215.266 187.4 215.443 187.577C215.62 187.755 215.72 187.995 215.72 188.246C215.72 188.496 215.62 188.736 215.443 188.914C215.266 189.091 215.026 189.19 214.775 189.19Z" fill="#263238"/>
<path d="M214.775 210.757H185.474C185.223 210.757 184.983 210.657 184.806 210.48C184.629 210.303 184.529 210.063 184.529 209.812C184.529 209.561 184.629 209.321 184.806 209.144C184.983 208.967 185.223 208.867 185.474 208.867H214.775C215.026 208.867 215.266 208.967 215.443 209.144C215.62 209.321 215.72 209.561 215.72 209.812C215.72 210.063 215.62 210.303 215.443 210.48C215.266 210.657 215.026 210.757 214.775 210.757Z" fill="#263238"/>
<path d="M214.775 215.481H185.474C185.223 215.481 184.983 215.382 184.806 215.205C184.629 215.027 184.529 214.787 184.529 214.537C184.529 214.286 184.629 214.046 184.806 213.869C184.983 213.691 185.223 213.592 185.474 213.592H214.775C215.026 213.592 215.266 213.691 215.443 213.869C215.62 214.046 215.72 214.286 215.72 214.537C215.72 214.787 215.62 215.027 215.443 215.205C215.266 215.382 215.026 215.481 214.775 215.481Z" fill="#263238"/>
<path d="M214.775 220.212H185.474C185.223 220.212 184.983 220.112 184.806 219.935C184.629 219.758 184.529 219.518 184.529 219.267C184.529 219.016 184.629 218.776 184.806 218.599C184.983 218.422 185.223 218.322 185.474 218.322H214.775C215.026 218.322 215.266 218.422 215.443 218.599C215.62 218.776 215.72 219.016 215.72 219.267C215.72 219.518 215.62 219.758 215.443 219.935C215.266 220.112 215.026 220.212 214.775 220.212Z" fill="#263238"/>
<path d="M214.775 223.045H185.474C184.952 223.045 184.529 223.468 184.529 223.99C184.529 224.511 184.952 224.934 185.474 224.934H214.775C215.297 224.934 215.72 224.511 215.72 223.99C215.72 223.468 215.297 223.045 214.775 223.045Z" fill="#263238"/>
<path d="M214.775 229.659H185.474C185.223 229.659 184.983 229.56 184.806 229.382C184.629 229.205 184.529 228.965 184.529 228.714C184.529 228.464 184.629 228.223 184.806 228.046C184.983 227.869 185.223 227.77 185.474 227.77H214.775C215.026 227.77 215.266 227.869 215.443 228.046C215.62 228.223 215.72 228.464 215.72 228.714C215.72 228.965 215.62 229.205 215.443 229.382C215.266 229.56 215.026 229.659 214.775 229.659Z" fill="#263238"/>
<path d="M211.94 155.791C211.047 155.791 210.182 156.108 209.5 156.685C208.819 157.262 208.363 158.062 208.215 158.942H203.693C203.528 158.079 203.067 157.301 202.39 156.741C201.712 156.181 200.861 155.874 199.982 155.874C199.103 155.874 198.251 156.181 197.574 156.741C196.897 157.301 196.436 158.079 196.27 158.942H191.749C191.583 158.079 191.122 157.301 190.445 156.741C189.768 156.181 188.916 155.874 188.037 155.874C187.158 155.874 186.307 156.181 185.63 156.741C184.952 157.301 184.491 158.079 184.326 158.942H179.744C179.586 158.073 179.128 157.287 178.449 156.721C177.771 156.154 176.916 155.844 176.032 155.844C175.148 155.844 174.293 156.154 173.615 156.721C172.936 157.287 172.478 158.073 172.32 158.942H167.792C167.634 158.073 167.176 157.287 166.498 156.721C165.82 156.154 164.964 155.844 164.081 155.844C163.197 155.844 162.342 156.154 161.663 156.721C160.985 157.287 160.527 158.073 160.369 158.942H155.841C155.683 158.073 155.225 157.287 154.547 156.721C153.869 156.154 153.013 155.844 152.13 155.844C151.246 155.844 150.39 156.154 149.712 156.721C149.034 157.287 148.576 158.073 148.418 158.942H143.89C143.732 158.008 143.228 157.168 142.48 156.587C141.731 156.006 140.791 155.728 139.847 155.808C138.903 155.887 138.023 156.318 137.382 157.016C136.741 157.713 136.385 158.626 136.385 159.573C136.385 160.521 136.741 161.434 137.382 162.131C138.023 162.829 138.903 163.26 139.847 163.339C140.791 163.419 141.731 163.14 142.48 162.56C143.228 161.979 143.732 161.139 143.89 160.204H148.418C148.576 161.074 149.034 161.86 149.712 162.426C150.39 162.992 151.246 163.303 152.13 163.303C153.013 163.303 153.869 162.992 154.547 162.426C155.225 161.86 155.683 161.074 155.841 160.204H160.369C160.527 161.074 160.985 161.86 161.663 162.426C162.342 162.992 163.197 163.303 164.081 163.303C164.964 163.303 165.82 162.992 166.498 162.426C167.176 161.86 167.634 161.074 167.792 160.204H172.32C172.478 161.074 172.936 161.86 173.615 162.426C174.293 162.992 175.148 163.303 176.032 163.303C176.916 163.303 177.771 162.992 178.449 162.426C179.128 161.86 179.586 161.074 179.744 160.204H184.272C184.437 161.068 184.898 161.846 185.576 162.406C186.253 162.966 187.104 163.272 187.983 163.272C188.862 163.272 189.714 162.966 190.391 162.406C191.068 161.846 191.529 161.068 191.695 160.204H196.216C196.382 161.068 196.843 161.846 197.52 162.406C198.197 162.966 199.049 163.272 199.928 163.272C200.807 163.272 201.658 162.966 202.336 162.406C203.013 161.846 203.474 161.068 203.639 160.204H208.161C208.282 160.915 208.603 161.575 209.087 162.109C209.571 162.642 210.197 163.027 210.892 163.216C211.587 163.406 212.322 163.392 213.009 163.178C213.697 162.964 214.309 162.558 214.774 162.008C215.239 161.457 215.536 160.785 215.632 160.071C215.727 159.357 215.617 158.631 215.313 157.978C215.01 157.324 214.526 156.772 213.919 156.384C213.311 155.997 212.606 155.791 211.886 155.791H211.94Z" fill="#263238"/>
<path d="M123.795 209.219C122.535 209.217 121.303 209.59 120.254 210.289C119.206 210.988 118.388 211.983 117.905 213.147C117.422 214.311 117.295 215.592 117.54 216.828C117.785 218.064 118.391 219.2 119.281 220.091C120.172 220.983 121.307 221.59 122.543 221.837C123.779 222.083 125.06 221.957 126.225 221.475C127.389 220.993 128.384 220.177 129.085 219.129C129.785 218.081 130.159 216.849 130.159 215.589C130.16 214.753 129.996 213.925 129.676 213.152C129.357 212.379 128.888 211.677 128.297 211.085C127.706 210.493 127.004 210.024 126.232 209.704C125.459 209.384 124.631 209.219 123.795 209.219ZM123.795 218.761C123.166 218.762 122.55 218.577 122.027 218.228C121.503 217.879 121.095 217.383 120.853 216.802C120.612 216.221 120.548 215.581 120.671 214.964C120.793 214.347 121.096 213.78 121.541 213.335C121.986 212.89 122.553 212.587 123.17 212.465C123.787 212.342 124.427 212.406 125.008 212.647C125.589 212.889 126.085 213.297 126.434 213.821C126.783 214.344 126.968 214.96 126.967 215.589C126.965 216.43 126.63 217.235 126.036 217.83C125.441 218.424 124.636 218.759 123.795 218.761Z" fill="#FF7900" stroke="#263238" stroke-width="0.987488" stroke-linecap="round" stroke-linejoin="round"/>
<path d="M125.69 218.12L128.727 219.598C129.485 218.666 129.964 217.539 130.108 216.346C130.252 215.154 130.056 213.945 129.542 212.86C129.028 211.774 128.218 210.856 127.204 210.212C126.191 209.568 125.015 209.223 123.814 209.219V212.411C124.477 212.418 125.121 212.632 125.656 213.024C126.19 213.416 126.589 213.965 126.795 214.595C127.001 215.225 127.005 215.904 126.806 216.536C126.606 217.168 126.214 217.722 125.684 218.12H125.69Z" fill="#263238" stroke="#263238" stroke-width="0.987488" stroke-linecap="round" stroke-linejoin="round"/>
<path d="M126.857 229.854H120.784C120.585 229.855 120.388 229.817 120.203 229.741C120.019 229.666 119.852 229.554 119.711 229.414C119.57 229.273 119.458 229.106 119.381 228.923C119.305 228.739 119.266 228.542 119.266 228.343C119.266 227.94 119.426 227.554 119.71 227.269C119.995 226.984 120.381 226.824 120.784 226.824H126.857C127.26 226.824 127.646 226.984 127.931 227.269C128.216 227.554 128.376 227.94 128.376 228.343C128.376 228.542 128.337 228.739 128.26 228.923C128.184 229.106 128.072 229.273 127.931 229.414C127.79 229.554 127.622 229.666 127.438 229.741C127.254 229.817 127.057 229.855 126.857 229.854Z" fill="#FF7900" stroke="#263238" stroke-width="0.987488" stroke-linecap="round" stroke-linejoin="round"/>
<path d="M142.777 209.219C141.517 209.219 140.285 209.592 139.237 210.292C138.19 210.992 137.373 211.987 136.891 213.151C136.409 214.315 136.283 215.596 136.529 216.832C136.774 218.068 137.381 219.203 138.272 220.094C139.163 220.985 140.298 221.591 141.534 221.837C142.77 222.083 144.05 221.957 145.215 221.475C146.379 220.992 147.373 220.176 148.073 219.128C148.773 218.081 149.147 216.849 149.147 215.589C149.148 214.752 148.984 213.924 148.664 213.15C148.344 212.377 147.875 211.674 147.283 211.083C146.691 210.491 145.989 210.022 145.216 209.702C144.442 209.382 143.613 209.218 142.777 209.219ZM142.777 218.761C142.148 218.761 141.533 218.574 141.01 218.225C140.487 217.875 140.08 217.378 139.84 216.797C139.599 216.216 139.537 215.577 139.66 214.96C139.783 214.343 140.086 213.777 140.532 213.333C140.977 212.888 141.544 212.586 142.161 212.464C142.778 212.342 143.417 212.406 143.998 212.648C144.578 212.889 145.074 213.298 145.423 213.821C145.771 214.345 145.956 214.96 145.955 215.589C145.955 216.006 145.873 216.419 145.713 216.804C145.553 217.19 145.319 217.54 145.024 217.834C144.729 218.129 144.378 218.362 143.992 218.521C143.607 218.68 143.194 218.762 142.777 218.761Z" fill="#FF7900" stroke="#263238" stroke-width="0.987488" stroke-linecap="round" stroke-linejoin="round"/>
<path d="M149.115 214.921C148.948 213.363 148.213 211.92 147.051 210.868C145.889 209.817 144.38 209.23 142.812 209.219V212.411C143.65 212.42 144.449 212.758 145.038 213.353C145.627 213.949 145.957 214.752 145.957 215.589C145.95 215.711 145.937 215.833 145.917 215.954L149.115 214.921Z" fill="#263238" stroke="#263238" stroke-width="0.987488" stroke-linecap="round" stroke-linejoin="round"/>
<path d="M145.815 229.854H139.741C139.542 229.855 139.345 229.817 139.16 229.741C138.976 229.666 138.809 229.554 138.668 229.414C138.527 229.273 138.415 229.106 138.338 228.923C138.262 228.739 138.223 228.542 138.223 228.343C138.223 227.94 138.383 227.554 138.667 227.269C138.952 226.984 139.338 226.824 139.741 226.824H145.815C146.217 226.824 146.603 226.984 146.888 227.269C147.173 227.554 147.333 227.94 147.333 228.343C147.333 228.542 147.294 228.739 147.217 228.923C147.141 229.106 147.029 229.273 146.888 229.414C146.747 229.554 146.579 229.666 146.395 229.741C146.211 229.817 146.014 229.855 145.815 229.854Z" fill="#FF7900" stroke="#263238" stroke-width="0.987488" stroke-linecap="round" stroke-linejoin="round"/>
<path d="M161.876 209.219C160.616 209.219 159.385 209.592 158.337 210.292C157.289 210.992 156.473 211.987 155.991 213.151C155.509 214.315 155.382 215.596 155.628 216.832C155.874 218.068 156.481 219.203 157.372 220.094C158.263 220.985 159.398 221.591 160.633 221.837C161.869 222.083 163.15 221.957 164.314 221.475C165.478 220.992 166.473 220.176 167.173 219.128C167.873 218.081 168.247 216.849 168.247 215.589C168.248 214.752 168.083 213.924 167.764 213.15C167.444 212.377 166.975 211.674 166.383 211.083C165.791 210.491 165.088 210.022 164.315 209.702C163.542 209.382 162.713 209.218 161.876 209.219ZM161.876 218.761C161.247 218.761 160.633 218.574 160.11 218.225C159.587 217.875 159.179 217.378 158.939 216.797C158.699 216.216 158.636 215.577 158.759 214.96C158.883 214.343 159.186 213.777 159.631 213.333C160.076 212.888 160.643 212.586 161.26 212.464C161.877 212.342 162.517 212.406 163.097 212.648C163.678 212.889 164.174 213.298 164.522 213.821C164.871 214.345 165.056 214.96 165.055 215.589C165.055 216.006 164.972 216.419 164.813 216.804C164.653 217.19 164.419 217.54 164.123 217.834C163.828 218.129 163.478 218.362 163.092 218.521C162.707 218.68 162.293 218.762 161.876 218.761Z" fill="#FF7900" stroke="#263238" stroke-width="0.987488" stroke-linecap="round" stroke-linejoin="round"/>
<path d="M161.909 209.219V212.411C162.444 212.412 162.97 212.547 163.438 212.806C163.907 213.064 164.303 213.436 164.589 213.888C164.875 214.34 165.043 214.856 165.076 215.39C165.11 215.924 165.008 216.458 164.78 216.942C164.553 217.426 164.207 217.844 163.774 218.159C163.342 218.474 162.837 218.674 162.306 218.742C161.776 218.81 161.237 218.742 160.739 218.546C160.241 218.35 159.801 218.032 159.459 217.62L156.936 219.591C157.612 220.424 158.487 221.073 159.482 221.478C160.476 221.882 161.556 222.028 162.622 221.902C163.688 221.777 164.704 221.384 165.578 220.76C166.451 220.136 167.152 219.301 167.616 218.334C168.08 217.366 168.292 216.297 168.232 215.225C168.171 214.154 167.841 213.115 167.272 212.205C166.702 211.296 165.912 210.545 164.974 210.023C164.037 209.501 162.982 209.224 161.909 209.219Z" fill="#263238" stroke="#263238" stroke-width="0.987488" stroke-linecap="round" stroke-linejoin="round"/>
<path d="M164.91 229.854H158.837C158.638 229.855 158.44 229.817 158.256 229.741C158.072 229.666 157.905 229.554 157.763 229.414C157.622 229.273 157.51 229.106 157.434 228.923C157.358 228.739 157.318 228.542 157.318 228.343C157.317 228.143 157.356 227.945 157.432 227.76C157.508 227.576 157.62 227.408 157.761 227.267C157.902 227.126 158.07 227.014 158.255 226.938C158.439 226.862 158.637 226.823 158.837 226.824H164.91C165.313 226.824 165.699 226.984 165.984 227.269C166.269 227.554 166.429 227.94 166.429 228.343C166.429 228.542 166.389 228.739 166.313 228.923C166.237 229.106 166.125 229.273 165.983 229.414C165.842 229.554 165.675 229.666 165.491 229.741C165.307 229.817 165.109 229.855 164.91 229.854Z" fill="#FF7900" stroke="#263238" stroke-width="0.987488" stroke-linecap="round" stroke-linejoin="round"/>
<path d="M96.4677 111.031C112.211 111.031 124.973 98.2691 124.973 82.5263C124.973 66.7835 112.211 54.0215 96.4677 54.0215C80.7249 54.0215 67.9629 66.7835 67.9629 82.5263C67.9629 98.2691 80.7249 111.031 96.4677 111.031Z" fill="white"/>
<path d="M105.106 241.112C105.106 241.112 109.222 247.3 108.656 249.749C108.089 252.199 104.472 251.443 102.757 248.805C101.043 246.166 96.684 242.225 97.4736 240.531C98.2631 238.837 103.567 239.607 105.106 241.112Z" fill="white" stroke="#263238" stroke-width="1.02307" stroke-linecap="round" stroke-linejoin="round"/>
<path d="M87.4198 240.768C87.4198 240.768 82.4463 248.15 83.2426 250.168C84.0389 252.186 86.6167 251.585 88.5873 249.763C90.5578 247.941 94.492 242.826 94.492 242.826C94.492 242.826 91.1853 238.75 87.4198 240.768Z" fill="white" stroke="#263238" stroke-width="1.02307" stroke-linecap="round" stroke-linejoin="round"/>
<path d="M83.2422 250.168C84.591 250.353 85.9632 250.085 87.1427 249.405C89.4101 248.258 93.3646 243.082 93.3646 243.082" stroke="#263238" stroke-width="0.767303" stroke-linecap="round" stroke-linejoin="round"/>
<path d="M98.8574 241.766C98.8574 241.766 101.01 245.815 103.433 248.109C105.855 250.403 107.043 251.058 108.636 249.749" stroke="#263238" stroke-width="0.767303" stroke-linecap="round" stroke-linejoin="round"/>
<path d="M80.4349 148.639C80.4349 148.639 76.0822 157.519 76.2779 161.15C76.4736 164.781 77.2699 183.15 78.4576 189.203C79.6453 195.256 80.8128 210.332 81.6225 216.358C82.4323 222.384 87.6218 236.502 87.6218 236.502C87.6218 236.502 86.8255 239.734 87.4193 240.74C88.0132 241.745 94.2959 243.405 94.4916 242.798C94.6873 242.19 95.6793 240.375 95.8412 238.56C96.0032 236.745 93.0744 217.37 94.2621 213.132C95.4498 208.894 95.6793 180.403 95.8412 177.467C96.0032 174.532 95.794 169.369 95.794 169.369C96.1469 169.478 96.5242 169.479 96.8777 169.372C97.2311 169.265 97.5446 169.055 97.778 168.769C98.5676 167.757 101.186 195.189 101.982 201.647C102.778 208.105 100.99 209.92 100.396 213.956C99.8025 217.991 98.4191 231.103 98.4191 232.723C98.4191 234.342 96.6375 239.579 97.4271 240.591C98.2166 241.603 99.897 241.435 100.585 241.624C102.65 242.197 104.263 241.3 105.053 241.097C105.842 240.895 106.51 237.973 106.51 237.973C106.51 237.973 112.867 220.009 114.055 212.538C115.243 205.068 117.22 191.207 116.828 182.731C116.437 174.255 114.055 157.088 114.055 157.088L113.461 152.04L80.4349 148.639Z" fill="#263238" stroke="#263238" stroke-width="1.02307" stroke-linecap="round" stroke-linejoin="round"/>
<path d="M77.6547 158.91C77.6547 158.91 77.27 163.89 80.5294 167.143" stroke="white" stroke-width="0.506629" stroke-linecap="round" stroke-linejoin="round"/>
<path d="M77.8438 165.996C77.8438 165.996 79.7603 169.256 82.0614 169.633" stroke="white" stroke-width="0.506629" stroke-linecap="round" stroke-linejoin="round"/>
<path d="M93.1611 220.496C93.1611 220.496 90.4617 226.934 90.0973 230.45C89.7329 233.966 93.1611 232.596 93.9304 234.937C94.6997 237.279 89.3348 237.09 90.293 237.671C91.2513 238.251 94.1193 238.649 94.1193 238.649" stroke="white" stroke-width="0.511535" stroke-linecap="round" stroke-linejoin="round"/>
<path d="M98.3574 236.502C98.931 236.306 105.443 235.153 104.674 231.623C103.905 228.094 100.078 227.912 100.625 223.815C101.171 219.719 107.13 210.73 107.13 208.193C107.13 205.656 102.919 196.201 102.535 190.344" stroke="white" stroke-width="0.511535" stroke-linecap="round" stroke-linejoin="round"/>
<path d="M107.72 158.531C107.72 158.531 103.313 164.848 102.739 165.806C102.166 166.764 107.909 161.595 107.909 161.595" stroke="white" stroke-width="0.506629" stroke-linecap="round" stroke-linejoin="round"/>
<path d="M96.1914 156.299C96.1914 156.299 96.6705 160.915 96.6705 161.866V167.123" stroke="white" stroke-width="0.506629" stroke-linecap="round" stroke-linejoin="round"/>
<path d="M96.6699 164.262C96.6699 164.262 98.7417 163.945 99.214 162.352C99.6864 160.759 99.538 157.574 99.538 157.574" stroke="white" stroke-width="0.506629" stroke-linecap="round" stroke-linejoin="round"/>
<path d="M136.655 101.531C134.28 94.6003 133.881 90.8415 133.686 88.8642C133.49 86.887 131.31 87.4741 131.31 87.4741C131.31 87.4741 126.586 90.2476 126.586 90.8482C126.586 91.4488 128.766 106.093 129.158 108.664C129.395 110.171 129.528 111.693 129.556 113.219C129.556 113.219 121.242 104.311 119.062 102.131C117.402 100.465 116.086 99.0407 114.676 98.1904C113.913 97.5156 112.59 97.2659 110.552 96.5911C106.989 95.4033 103.231 92.6298 98.8711 92.8255C96.0091 93.0221 93.1996 93.6925 90.5572 94.8095C90.5572 94.8095 84.2273 97.7788 79.8679 99.756C79.3602 99.9827 78.8783 100.263 78.4305 100.593C77.7152 100.505 76.2238 100.89 74.5232 104.703C72.1546 110.047 61.4653 124.104 59.677 129.05C57.8887 133.997 61.6542 138.95 65.8112 142.905C68.8104 145.854 71.651 148.96 74.3208 152.211L79.0446 146.394C79.1783 147.688 79.4038 148.971 79.7194 150.233C80.3133 152.211 82.2905 154.39 90.2131 154.957C98.1356 155.524 115.931 156.617 115.351 152.582C114.534 146.846 114.952 128.43 114.561 123.483C114.445 120.31 114.51 117.133 114.757 113.968C115.668 115.122 117.456 117.261 118.704 118.105C120.486 119.292 128.017 124.853 130.986 126.054C133.956 127.255 138.113 125.265 139.894 121.33C141.676 117.396 139.03 108.461 136.655 101.531ZM72.1276 134.388C71.3313 131.223 70.9399 130.036 70.9399 130.036C70.9399 130.036 76.0146 124.57 78.4575 121.654C78.7882 129.476 78.9974 138.032 78.7679 139.288C78.5878 141.392 78.6354 143.51 78.9096 145.604C77.587 143.789 72.8024 137.115 72.1276 134.388Z" fill="#FF7900" stroke="#263238" stroke-width="1.01326" stroke-linecap="round" stroke-linejoin="round"/>
<path opacity="0.1" d="M136.655 101.531C134.28 94.6003 133.881 90.8415 133.686 88.8642C133.49 86.887 131.31 87.4741 131.31 87.4741C131.31 87.4741 126.586 90.2476 126.586 90.8482C126.586 91.4488 128.766 106.093 129.158 108.664C129.395 110.171 129.528 111.693 129.556 113.219C129.556 113.219 121.242 104.311 119.062 102.131C117.402 100.465 116.086 99.0407 114.676 98.1904C113.913 97.5156 112.59 97.2659 110.552 96.5911C106.989 95.4033 103.231 92.6298 98.8711 92.8255C96.0091 93.0221 93.1996 93.6925 90.5572 94.8095C90.5572 94.8095 84.2273 97.7788 79.8679 99.756C79.3602 99.9827 78.8783 100.263 78.4305 100.593C77.7152 100.505 76.2238 100.89 74.5232 104.703C72.1546 110.047 61.4653 124.104 59.677 129.05C57.8887 133.997 61.6542 138.95 65.8112 142.905C68.8104 145.854 71.651 148.96 74.3208 152.211L79.0446 146.394C79.1783 147.688 79.4038 148.971 79.7194 150.233C80.3133 152.211 82.2905 154.39 90.2131 154.957C98.1356 155.524 115.931 156.617 115.351 152.582C114.534 146.846 114.952 128.43 114.561 123.483C114.445 120.31 114.51 117.133 114.757 113.968C115.668 115.122 117.456 117.261 118.704 118.105C120.486 119.292 128.017 124.853 130.986 126.054C133.956 127.255 138.113 125.265 139.894 121.33C141.676 117.396 139.03 108.461 136.655 101.531ZM72.1276 134.388C71.3313 131.223 70.9399 130.036 70.9399 130.036C70.9399 130.036 76.0146 124.57 78.4575 121.654C78.7882 129.476 78.9974 138.032 78.7679 139.288C78.5878 141.392 78.6354 143.51 78.9096 145.604C77.587 143.789 72.8024 137.115 72.1276 134.388Z" fill="black"/>
<path d="M80.9062 120.803C82.1594 118.922 83.2498 116.937 84.1657 114.871" stroke="#263238" stroke-width="0.759943" stroke-linecap="round" stroke-linejoin="round"/>
<path d="M85.8872 115.443C85.429 116.398 84.7762 117.246 83.9707 117.933" stroke="#263238" stroke-width="0.759943" stroke-linecap="round" stroke-linejoin="round"/>
<path d="M129.529 113.211C129.556 114.351 129.808 115.475 130.271 116.518C130.735 117.56 131.4 118.5 132.229 119.284" stroke="#263238" stroke-width="1.01326" stroke-linecap="round" stroke-linejoin="round"/>
<path d="M130.312 116.402C130.151 118.203 130.554 120.01 131.466 121.572" stroke="#263238" stroke-width="1.01326" stroke-linecap="round" stroke-linejoin="round"/>
<path d="M70.9392 130.034C70.9392 130.034 69.4816 128.65 65.8848 129.251" stroke="#263238" stroke-width="0.759943" stroke-linecap="round" stroke-linejoin="round"/>
<path d="M63.8945 128.455C63.8945 128.455 64.8933 126.856 68.6791 128.05" stroke="#263238" stroke-width="0.759943" stroke-linecap="round" stroke-linejoin="round"/>
<path d="M118.968 107.9C118.172 108.096 114.777 113.886 114.777 113.886L122.963 111.693" stroke="#263238" stroke-width="0.759943" stroke-linecap="round" stroke-linejoin="round"/>
<path d="M95.4637 103.952C95.4637 103.952 96.9955 106.058 100.444 105.106C103.892 104.155 105.04 100.511 104.493 98.2094C103.946 95.9082 92.3999 97.8247 95.4637 103.952Z" fill="white" stroke="#263238" stroke-width="1.01326" stroke-linecap="round" stroke-linejoin="round"/>
<path d="M92.1833 90.8397C92.1833 90.8397 89.8687 92.3783 89.565 93.7685C89.2613 95.1586 90.0239 99.6193 90.638 101.158C91.2521 102.696 93.2631 106.239 93.2631 106.239C93.2631 106.239 100.194 102.238 100.686 101.927C101.179 101.617 106.085 104.39 107.158 103.952C108.231 103.513 104.539 94.0924 102.846 92.0949C101.152 90.0974 94.6465 88.9839 92.1833 90.8397Z" fill="white" stroke="#263238" stroke-width="1.01326" stroke-linecap="round" stroke-linejoin="round"/>
<path d="M90.9355 85.752C90.9355 85.752 91.0908 88.2151 91.4012 91.9132C91.7116 95.6112 92.96 98.5332 94.9845 100.227C97.009 101.921 99.9108 102.845 100.68 101.921C101.449 100.996 102.374 97.1498 102.03 94.8352C101.686 92.5205 101.26 87.601 101.26 87.601L90.9355 85.752Z" fill="white" stroke="#263238" stroke-width="1.01326" stroke-linecap="round" stroke-linejoin="round"/>
<g style="mix-blend-mode:multiply" opacity="0.5">
<path d="M101.733 91.9536C101.503 89.8009 101.294 87.601 101.294 87.601L90.9355 85.752C90.9355 85.752 91.0908 88.2151 91.4012 91.9132C91.5186 93.6232 91.9129 95.3029 92.5686 96.8867L101.733 91.9536Z" fill="#FF7900"/>
</g>
<path d="M87.5601 82.0677C87.5601 82.0677 85.2522 79.7597 84.7865 81.7572C84.3209 83.7547 86.1767 86.8455 88.795 86.0694V84.2271L87.5601 82.0677Z" fill="white" stroke="#263238" stroke-width="1.01326" stroke-linecap="round" stroke-linejoin="round"/>
<path opacity="0.5" d="M87.5601 82.0677C87.5601 82.0677 85.2522 79.7597 84.7865 81.7572C84.3209 83.7547 86.1767 86.8455 88.795 86.0694V84.2271L87.5601 82.0677Z" fill="#FF7900" stroke="#263238" stroke-width="1.01326" stroke-linecap="round" stroke-linejoin="round"/>
<path d="M85.5369 77.8963C85.5369 77.8963 89.3902 88.2145 92.7779 90.2187C96.1655 92.223 102.941 94.0653 104.79 86.8446C106.639 79.6239 101.713 69.1302 100.019 66.0463C98.325 62.9623 92.0086 62.0445 88.0068 65.1218C84.0051 68.199 83.0941 71.1143 85.5369 77.8963Z" fill="white" stroke="#263238" stroke-width="1.01326" stroke-linecap="round" stroke-linejoin="round"/>
<g style="mix-blend-mode:multiply" opacity="0.5">
<path d="M89.8088 69.159C91.4442 68.4025 93.2172 67.9892 95.0185 67.9443L98.8583 64.7118C96.3344 62.7683 91.3744 62.5321 88.0273 65.11C84.0188 68.194 83.0942 71.116 85.5574 77.898C85.5574 77.898 89.4107 88.2162 92.7983 90.2204C93.9999 90.9268 95.3012 91.4478 96.6583 91.7658C95.0252 89.6603 92.5149 86.3132 91.7186 84.6058C90.5039 82.001 89.9843 76.6226 88.4187 73.4981C86.853 70.3737 87.3794 70.3737 89.8088 69.159Z" fill="#FF7900"/>
</g>
<path d="M97.8797 74.8125C97.8797 74.8125 99.4183 77.5861 98.8042 78.1867C98.5961 78.3663 98.3451 78.4892 98.0756 78.5436C97.8061 78.598 97.5271 78.582 97.2656 78.4971" stroke="#263238" stroke-width="1.01326" stroke-linecap="round" stroke-linejoin="round"/>
<path d="M90.793 74.3549C90.793 74.3549 91.1034 72.5059 93.4113 72.5059" stroke="#263238" stroke-width="2.02651" stroke-linecap="round" stroke-linejoin="round"/>
<path d="M92.1836 76.2038C92.1836 76.2038 93.8774 76.9731 94.4915 75.2793" stroke="#263238" stroke-width="1.01326" stroke-linecap="round" stroke-linejoin="round"/>
<path d="M99.5723 74.9675C99.5723 74.9675 101.266 75.7368 101.887 74.043" stroke="#263238" stroke-width="1.01326" stroke-linecap="round" stroke-linejoin="round"/>
<path d="M98.168 71.4317C98.5793 71.0126 99.1349 70.766 99.7217 70.7421C100.308 70.7183 100.882 70.9191 101.326 71.3035" stroke="#263238" stroke-width="2.02651" stroke-linecap="round" stroke-linejoin="round"/>
<path d="M105.107 80.9142C103.312 80.1314 99.0334 78.4038 97.6028 79.1259C95.7537 80.0504 90.9759 83.2896 90.9759 85.7527C90.9759 85.7527 87.8987 81.5958 87.8987 80.0504C87.8987 78.505 89.1269 78.0259 88.0539 76.0486C86.9809 74.0714 85.4288 73.8892 85.8945 71.5813C86.3196 69.4421 90.5778 67.1746 92.6428 66.8575C93.9328 67.949 95.5758 68.5342 97.2654 68.504C100.64 68.504 103.427 66.3378 103.427 63.652C103.427 60.9662 100.667 58.8067 97.2654 58.8067C96.5084 58.8032 95.7552 58.9147 95.0317 59.1374C91.806 58.9012 91.1919 61.2901 88.9582 62.5993C86.7245 63.9084 85.3208 67.7685 85.3208 67.7685H85.4153C83.7822 70.1574 83.789 73.0389 85.5638 77.8909C85.5638 77.8909 89.4171 88.2091 92.8047 90.2134C96.1924 92.2176 102.968 94.0599 104.817 86.8392C105.266 84.8973 105.364 82.8907 105.107 80.9142Z" fill="#263238" stroke="#263238" stroke-width="1.01326" stroke-linecap="round" stroke-linejoin="round"/>
<path d="M101.428 80.7578C101.428 80.7578 99.1203 83.9903 96.502 81.8375" stroke="white" stroke-width="1.01326" stroke-linecap="round" stroke-linejoin="round"/>
<path d="M79.2473 146.068C80.1621 146.646 80.9665 147.381 81.6227 148.241C82.4268 149.342 83.2872 150.401 84.2005 151.413C84.2005 151.413 86.3735 151.609 86.1778 152.601C85.9821 153.593 85.584 154.18 84.592 154.18C83.5999 154.18 81.427 152.203 81.427 152.203L78.262 157.149C78.262 157.149 75.2928 154.976 74.3008 152.203L79.2473 146.068Z" fill="white" stroke="#263238" stroke-width="1.01326" stroke-linecap="round" stroke-linejoin="round"/>
<path d="M96.4677 111.031C112.211 111.031 124.973 98.2691 124.973 82.5263C124.973 66.7835 112.211 54.0215 96.4677 54.0215C80.7249 54.0215 67.9629 66.7835 67.9629 82.5263C67.9629 98.2691 80.7249 111.031 96.4677 111.031Z" stroke="#263238" stroke-width="2.02651" stroke-linecap="round" stroke-linejoin="round"/>
<path d="M122.207 76.9857C122.207 76.9857 120.223 76.7833 119.832 77.971C119.44 79.1587 118.84 80.3464 118.84 81.1427C118.84 81.939 119.036 82.5261 120.028 82.7218C121.02 82.9175 121.613 81.5341 121.613 81.5341L122.207 76.9857Z" fill="white" stroke="#263238" stroke-width="1.01326" stroke-linecap="round" stroke-linejoin="round"/>
<path d="M122.599 75.5958C122.599 75.5958 121.613 80.9404 121.613 82.5263C121.656 83.7457 122.071 84.9229 122.801 85.9004C123.162 86.3096 123.649 86.5873 124.184 86.69L125.176 85.5023C125.176 85.5023 123.989 87.0881 125.568 89.0654C127.147 91.0426 128.341 90.8469 129.725 90.2531C131.108 89.6592 131.506 88.8697 130.912 86.69C130.319 84.5103 129.927 80.9472 129.529 78.7742C129.131 76.6013 127.747 75.805 126.958 75.805C126.168 75.805 124.002 75.0019 122.599 75.5958Z" fill="white" stroke="#263238" stroke-width="1.01326" stroke-linecap="round" stroke-linejoin="round"/>
<path d="M121.876 83.6392C121.876 83.6392 121.525 82.411 123.016 82.2355C124.508 82.0601 126.971 81.7969 126.971 81.7969" stroke="#263238" stroke-width="0.506629" stroke-linecap="round" stroke-linejoin="round"/>
<path d="M122.051 80.4816C122.051 80.4816 125.472 79.5976 126.707 79.773" stroke="#263238" stroke-width="0.506629" stroke-linecap="round" stroke-linejoin="round"/>
<path d="M122.314 78.0189C123.591 77.7921 124.885 77.6747 126.181 77.668" stroke="#263238" stroke-width="0.506629" stroke-linecap="round" stroke-linejoin="round"/>
<path d="M123.455 84.6035C123.726 84.8471 124.051 85.0225 124.403 85.1152C124.755 85.208 125.124 85.2153 125.48 85.1366" stroke="#263238" stroke-width="0.506629" stroke-linecap="round" stroke-linejoin="round"/>
</svg>
