<svg
  width="5"
  height="5"
  viewBox="0 0 12 12"
  fill="none"
  xmlns="http://www.w3.org/2000/svg"
>
<path
    d="M11.55 2.55L8.1 6L11.55 9.45C12.15 10.05 12.15 10.95 11.55 11.55C11.25 11.85 10.95 12 10.5 12C10.05 12 9.75 11.85 9.45 11.55L6 8.1L2.55 11.55C2.25 11.85 1.95 12 1.5 12C1.05 12 0.75 11.85 0.45 11.55C-0.15 10.95 -0.15 10.05 0.45 9.45L3.9 6L0.45 2.55C-0.15 1.95 -0.15 1.05 0.45 0.45C1.05 -0.15 1.95 -0.15 2.55 0.45L6 3.9L9.45 0.45C10.05 -0.15 10.95 -0.15 11.55 0.45C12.15 1.05 12.15 1.95 11.55 2.55Z"
    fill="black"
  />
</svg>
