<svg width="18" height="18" viewBox="0 0 18 18" fill="none" xmlns="http://www.w3.org/2000/svg">
<rect x="0.5" y="0.5" width="17" height="17" fill="white" stroke="black"/>
<path d="M12.2896 4.1746C12.131 4.08617 11.9565 4.02993 11.7761 4.0091C11.5958 3.98828 11.4131 4.00327 11.2385 4.05322C11.064 4.10318 10.901 4.18712 10.7588 4.30024C10.6167 4.41335 10.4981 4.55344 10.4101 4.71247L7.84441 9.33804L6.37604 7.86702C6.24856 7.73479 6.09606 7.62932 5.92745 7.55676C5.75885 7.4842 5.5775 7.446 5.394 7.44441C5.2105 7.44281 5.02852 7.47784 4.85868 7.54745C4.68884 7.61707 4.53454 7.71987 4.40478 7.84986C4.27502 7.97985 4.1724 8.13443 4.10291 8.30458C4.03342 8.47473 3.99846 8.65704 4.00005 8.84087C4.00165 9.0247 4.03977 9.20637 4.1122 9.37529C4.18463 9.5442 4.28991 9.69697 4.42191 9.82468L7.18589 12.5937C7.44709 12.856 7.79949 13 8.16296 13L8.35436 12.9862C8.56619 12.9565 8.76825 12.8779 8.94463 12.7567C9.12101 12.6355 9.2669 12.475 9.37082 12.2877L12.8258 6.0575C12.914 5.8986 12.9701 5.72384 12.9909 5.54322C13.0117 5.36259 12.9968 5.17963 12.947 5.00479C12.8972 4.82994 12.8135 4.66664 12.7007 4.52419C12.5879 4.38175 12.4482 4.26296 12.2896 4.1746V4.1746Z" fill="#343434"/>
</svg>
