<svg width="18" height="18" viewBox="0 0 18 18" fill="none" xmlns="http://www.w3.org/2000/svg">
<rect x="0.5" y="0.5" width="17" height="17" fill="white" stroke="#FF7900"/>
<path d="M12.2896 5.1358C12.131 5.06702 11.9565 5.02328 11.7761 5.00708C11.5958 4.99088 11.4131 5.00254 11.2385 5.0414C11.064 5.08025 10.901 5.14554 10.7588 5.23352C10.6167 5.3215 10.4981 5.43045 10.4101 5.55414L7.84441 9.15181L6.37604 8.00768C6.24856 7.90484 6.09606 7.8228 5.92745 7.76637C5.75885 7.70993 5.5775 7.68023 5.394 7.67898C5.2105 7.67774 5.02852 7.70499 4.85868 7.75913C4.68884 7.81327 4.53454 7.89323 4.40478 7.99434C4.27502 8.09544 4.1724 8.21567 4.10291 8.34801C4.03342 8.48035 3.99846 8.62214 4.00005 8.76512C4.00165 8.9081 4.03977 9.0494 4.1122 9.18078C4.18463 9.31215 4.28991 9.43098 4.42191 9.53031L7.18589 11.684C7.44709 11.888 7.79949 12 8.16296 12L8.35436 11.9892C8.56619 11.9661 8.76825 11.9051 8.94463 11.8108C9.12101 11.7165 9.2669 11.5916 9.37082 11.446L12.8258 6.60028C12.914 6.47669 12.9701 6.34077 12.9909 6.20028C13.0117 6.05979 12.9968 5.91749 12.947 5.7815C12.8972 5.64551 12.8135 5.5185 12.7007 5.40771C12.5879 5.29691 12.4482 5.20452 12.2896 5.1358Z" fill="#FF7900"/>
</svg>
