<svg width="78" height="78" viewBox="0 0 78 78" fill="none" xmlns="http://www.w3.org/2000/svg">
<path d="M65.8125 9.75H2.4375V58.5H65.8125V9.75ZM60.9375 53.625H7.3125V14.625H60.9375V53.625Z" fill="#454545"/>
<path d="M70.6875 21.9375V63.375H14.625V68.25H75.5625V21.9375H70.6875Z" fill="#454545"/>
<path d="M34.125 46.0779C40.173 46.0779 45.0938 40.7249 45.0938 34.1454C45.0938 27.5658 40.173 22.2129 34.125 22.2129C28.077 22.2129 23.1562 27.5656 23.1562 34.1454C23.1562 40.7251 28.077 46.0779 34.125 46.0779ZM34.125 27.0879C37.4851 27.0879 40.2188 30.2539 40.2188 34.1454C40.2188 38.0368 37.4851 41.2029 34.125 41.2029C30.7649 41.2029 28.0312 38.0368 28.0312 34.1454C28.0312 30.2539 30.7649 27.0879 34.125 27.0879Z" fill="#454545"/>
<path d="M12.1875 20.7188H17.0625V47.5312H12.1875V20.7188Z" fill="#454545"/>
<path d="M51.1875 20.7188H56.0625V47.5312H51.1875V20.7188Z" fill="#454545"/>
</svg>
