<svg width="17" height="16" viewBox="0 0 17 16" fill="none" xmlns="http://www.w3.org/2000/svg">
<path d="M8.59961 1.9C9.75961 1.9 10.6996 2.84 10.6996 4C10.6996 5.16 9.75961 6.1 8.59961 6.1C7.43961 6.1 6.49961 5.16 6.49961 4C6.49961 2.84 7.43961 1.9 8.59961 1.9ZM8.59961 10.9C11.5696 10.9 14.6996 12.36 14.6996 13V14.1H2.49961V13C2.49961 12.36 5.62961 10.9 8.59961 10.9ZM8.59961 0C6.38961 0 4.59961 1.79 4.59961 4C4.59961 6.21 6.38961 8 8.59961 8C10.8096 8 12.5996 6.21 12.5996 4C12.5996 1.79 10.8096 0 8.59961 0ZM8.59961 9C5.92961 9 0.599609 10.34 0.599609 13V16H16.5996V13C16.5996 10.34 11.2696 9 8.59961 9Z" fill="black"/>
</svg>
