<svg width="54" height="27" viewBox="0 0 54 27" fill="none" xmlns="http://www.w3.org/2000/svg">
<path d="M40.5 27H32.4V21.6H40.5C42.6483 21.6 44.7085 20.7466 46.2276 19.2276C47.7466 17.7085 48.6 15.6483 48.6 13.5C48.6 11.3517 47.7466 9.29148 46.2276 7.77243C44.7085 6.25339 42.6483 5.4 40.5 5.4H32.4V0H40.5C44.0804 0 47.5142 1.42232 50.0459 3.95406C52.5777 6.4858 54 9.91958 54 13.5C54 17.0804 52.5777 20.5142 50.0459 23.0459C47.5142 25.5777 44.0804 27 40.5 27ZM21.6 27H13.5C9.91958 27 6.4858 25.5777 3.95406 23.0459C1.42232 20.5142 0 17.0804 0 13.5C0 9.91958 1.42232 6.4858 3.95406 3.95406C6.4858 1.42232 9.91958 0 13.5 0H21.6V5.4H13.5C11.3517 5.4 9.29148 6.25339 7.77244 7.77243C6.25339 9.29148 5.4 11.3517 5.4 13.5C5.4 15.6483 6.25339 17.7085 7.77244 19.2276C9.29148 20.7466 11.3517 21.6 13.5 21.6H21.6V27ZM40.5 16.2H13.5V10.8H40.5V16.2Z" fill="white"/>
</svg>
