<svg width="25" height="31" viewBox="0 0 25 31" fill="none" xmlns="http://www.w3.org/2000/svg">
<path d="M16.389 5.13794H2.382C1.75034 5.1382 1.14462 5.38925 0.697964 5.8359C0.251309 6.28255 0.000265016 6.88827 0 7.51994V27.6199C0.000265016 28.2516 0.251309 28.8573 0.697964 29.304C1.14462 29.7506 1.75034 30.0017 2.382 30.0019H16.389C17.0207 30.0017 17.6264 29.7506 18.073 29.304C18.5197 28.8573 18.7707 28.2516 18.771 27.6199V7.51994C18.7686 6.88892 18.5169 6.28443 18.0707 5.83823C17.6245 5.39203 17.02 5.14031 16.389 5.13794ZM17.099 27.6119C17.099 27.8018 17.0236 27.9839 16.8893 28.1182C16.755 28.2525 16.5729 28.3279 16.383 28.3279H2.376C2.1861 28.3279 2.00399 28.2525 1.86971 28.1182C1.73543 27.9839 1.66 27.8018 1.66 27.6119V7.51994C1.66 7.33004 1.73543 7.14793 1.86971 7.01365C2.00399 6.87937 2.1861 6.80394 2.376 6.80394H16.383C16.5729 6.80394 16.755 6.87937 16.8893 7.01365C17.0236 7.14793 17.099 7.33004 17.099 7.51994V27.6119Z" fill="white"/>
<path d="M21.641 0H7.63396C7.00229 0.000265016 6.39657 0.25131 5.94992 0.697964C5.50327 1.14462 5.25222 1.75034 5.25195 2.382C5.25195 2.60293 5.33972 2.8148 5.49594 2.97102C5.65216 3.12724 5.86404 3.215 6.08496 3.215C6.30589 3.215 6.51776 3.12724 6.67398 2.97102C6.8302 2.8148 6.91795 2.60293 6.91795 2.382C6.91795 2.28797 6.93648 2.19487 6.97246 2.108C7.00844 2.02113 7.06118 1.9422 7.12767 1.87571C7.19416 1.80922 7.27309 1.75648 7.35995 1.7205C7.44682 1.68452 7.53993 1.666 7.63396 1.666H21.641C21.735 1.666 21.8281 1.68452 21.915 1.7205C22.0018 1.75648 22.0808 1.80922 22.1472 1.87571C22.2137 1.9422 22.2665 2.02113 22.3025 2.108C22.3384 2.19487 22.3569 2.28797 22.3569 2.382V22.482C22.3569 22.576 22.3384 22.6691 22.3025 22.756C22.2665 22.8429 22.2137 22.9218 22.1472 22.9883C22.0808 23.0548 22.0018 23.1075 21.915 23.1435C21.8281 23.1795 21.735 23.198 21.641 23.198C21.42 23.198 21.2082 23.2858 21.0519 23.442C20.8957 23.5982 20.808 23.8101 20.808 24.031C20.808 24.2519 20.8957 24.4638 21.0519 24.62C21.2082 24.7762 21.42 24.864 21.641 24.864C22.2726 24.8637 22.8783 24.6127 23.325 24.166C23.7717 23.7194 24.0227 23.1137 24.0229 22.482V2.382C24.0227 1.75034 23.7717 1.14462 23.325 0.697964C22.8783 0.25131 22.2726 0.000265016 21.641 0Z" fill="white"/>
</svg>
