<svg width="10" height="10" viewBox="0 0 10 10" fill="none" xmlns="http://www.w3.org/2000/svg">
<path d="M3.82167 3.61111C4.10167 3.27222 4.52556 3.05556 5 3.05556C5.47444 3.05556 5.89833 3.27222 6.17833 3.61111C6.36268 3.83462 6.47967 4.10593 6.51567 4.39341C6.55166 4.68089 6.50517 4.97267 6.38162 5.23473C6.25806 5.49679 6.06255 5.71831 5.81787 5.87346C5.57319 6.02861 5.28944 6.11099 4.99972 6.11099C4.71 6.11099 4.42625 6.02861 4.18157 5.87346C3.9369 5.71831 3.74138 5.49679 3.61783 5.23473C3.49428 4.97267 3.44779 4.68089 3.48378 4.39341C3.51977 4.10593 3.63677 3.83462 3.82111 3.61111H3.82167ZM7.08333 4.58333C7.08333 4.23222 6.99667 3.90111 6.84333 3.61111H9.16667C9.38768 3.61111 9.59964 3.69891 9.75592 3.85519C9.9122 4.01147 10 4.22343 10 4.44444V4.72222C10 5.60389 9.33 6.50667 8.15833 6.82444C8.03793 6.60816 7.8619 6.42798 7.64848 6.30256C7.43506 6.17714 7.19199 6.11105 6.94444 6.11111H6.41667C6.62724 5.91628 6.79519 5.67995 6.90992 5.41701C7.02466 5.15407 7.0837 4.87022 7.08333 4.58333ZM6.94444 6.66667C7.05396 6.66637 7.16246 6.68773 7.26369 6.7295C7.36493 6.77128 7.45691 6.83265 7.53435 6.91009C7.61179 6.98753 7.67317 7.07951 7.71494 7.18075C7.75672 7.28199 7.77807 7.39048 7.77778 7.5V7.77778C7.77778 8.87278 6.74444 10 5 10C3.25556 10 2.22222 8.87278 2.22222 7.77778V7.5C2.22193 7.39048 2.24328 7.28199 2.28506 7.18075C2.32683 7.07951 2.38821 6.98753 2.46565 6.91009C2.54309 6.83265 2.63507 6.77128 2.73631 6.7295C2.83754 6.68773 2.94604 6.66637 3.05556 6.66667H6.94444ZM0 4.72222C0 5.60389 0.67 6.50667 1.84167 6.82444C1.96207 6.60816 2.1381 6.42798 2.35152 6.30256C2.56495 6.17714 2.80801 6.11105 3.05556 6.11111H3.58333C3.37276 5.91628 3.20481 5.67995 3.09008 5.41701C2.97534 5.15407 2.9163 4.87022 2.91667 4.58333C2.91667 4.23222 3.00333 3.90111 3.15722 3.61111H0.833333C0.61232 3.61111 0.400358 3.69891 0.244078 3.85519C0.0877974 4.01147 0 4.22343 0 4.44444V4.72222ZM4.30556 1.52778C4.30556 1.12259 4.14459 0.73399 3.85808 0.447476C3.57157 0.160962 3.18297 0 2.77778 0C2.37259 0 1.98399 0.160962 1.69748 0.447476C1.41096 0.73399 1.25 1.12259 1.25 1.52778C1.25 1.93297 1.41096 2.32157 1.69748 2.60808C1.98399 2.89459 2.37259 3.05556 2.77778 3.05556C3.18297 3.05556 3.57157 2.89459 3.85808 2.60808C4.14459 2.32157 4.30556 1.93297 4.30556 1.52778ZM8.75 1.52778C8.75 1.12259 8.58904 0.73399 8.30252 0.447476C8.01601 0.160962 7.62741 0 7.22222 0C6.81703 0 6.42843 0.160962 6.14192 0.447476C5.85541 0.73399 5.69444 1.12259 5.69444 1.52778C5.69444 1.93297 5.85541 2.32157 6.14192 2.60808C6.42843 2.89459 6.81703 3.05556 7.22222 3.05556C7.62741 3.05556 8.01601 2.89459 8.30252 2.60808C8.58904 2.32157 8.75 1.93297 8.75 1.52778Z" fill="#00CCA7"/>
</svg>
