<svg width="12" height="16" viewBox="0 0 12 16" fill="none" xmlns="http://www.w3.org/2000/svg">
<path d="M0 0V4.18099H1.2V1.19457H10.8V4.18099H12V0H0ZM2.1 5.37557C1.90295 5.37533 1.70779 5.41379 1.52569 5.48875C1.3436 5.56371 1.17815 5.67369 1.03881 5.81239C0.899476 5.9511 0.788996 6.1158 0.713698 6.29707C0.6384 6.47834 0.599763 6.67262 0.6 6.86878V8.66063C0.6 9.48668 1.2702 10.1538 2.1 10.1538C2.9298 10.1538 3.6 9.48668 3.6 8.66063V8.36199H2.4V8.66063C2.4 8.78905 2.229 8.95928 2.1 8.95928C1.971 8.95928 1.8 8.78905 1.8 8.66063V6.86878C1.8 6.74036 1.971 6.57014 2.1 6.57014C2.229 6.57014 2.4 6.74036 2.4 6.86878V7.16742H3.6V6.86878C3.6 6.04273 2.9298 5.37557 2.1 5.37557ZM5.7 5.37557C5.50295 5.37533 5.30779 5.41379 5.1257 5.48875C4.9436 5.56371 4.77815 5.67369 4.63881 5.81239C4.49948 5.9511 4.389 6.1158 4.3137 6.29707C4.2384 6.47834 4.19976 6.67262 4.2 6.86878C4.2 7.69482 4.8702 8.36199 5.7 8.36199C5.829 8.36199 6 8.53222 6 8.66063C6 8.83982 5.9298 8.95928 5.7 8.95928C5.4798 8.95928 5.4444 8.91269 5.4372 8.90313C5.4306 8.89417 5.4 8.85654 5.4 8.71678H4.2C4.2 9.05484 4.2984 9.43531 4.575 9.7244C4.851 10.0141 5.262 10.1538 5.7 10.1538C6.5508 10.1538 7.2 9.4371 7.2 8.66063C7.2 7.83459 6.5298 7.16742 5.7 7.16742C5.571 7.16742 5.4 6.99719 5.4 6.86878C5.4 6.74036 5.571 6.57014 5.7 6.57014C5.8596 6.57014 5.9088 6.60776 5.9436 6.6448C5.98226 6.69206 6.00231 6.75172 6 6.81263H7.2C7.2 6.46024 7.071 6.10127 6.8064 5.82353C6.5412 5.54579 6.1404 5.37557 5.7 5.37557ZM7.8 5.37557V6.06603L7.8378 6.1592L9.0378 9.74291L9.6 11.4422L10.1628 9.74411L11.3628 6.1604L11.4 6.06662V5.37557H10.2V5.89819L9.6 7.69004L9 5.89819V5.37557H7.8ZM0 11.3484V15.5294H12V11.3484H10.8V14.3348H1.2V11.3484H0Z" fill="#151515"/>
</svg>
