<svg width="154" height="155" viewBox="0 0 154 155" fill="none" xmlns="http://www.w3.org/2000/svg">
<g opacity="0.05">
<circle cx="5" cy="5.80273" r="5" fill="#0F001A"/>
<circle cx="5" cy="34.4902" r="5" fill="#0F001A"/>
<circle cx="5" cy="63.1777" r="5" fill="#0F001A"/>
<circle cx="5" cy="91.8652" r="5" fill="#0F001A"/>
<circle cx="5" cy="120.553" r="5" fill="#0F001A"/>
<circle cx="5" cy="149.24" r="5" fill="#0F001A"/>
<circle cx="33.6875" cy="5.80273" r="5" fill="#0F001A"/>
<circle cx="33.6875" cy="34.4902" r="5" fill="#0F001A"/>
<circle cx="33.6875" cy="63.1777" r="5" fill="#0F001A"/>
<circle cx="33.6875" cy="91.8652" r="5" fill="#0F001A"/>
<circle cx="33.6875" cy="120.553" r="5" fill="#0F001A"/>
<circle cx="33.6875" cy="149.24" r="5" fill="#0F001A"/>
<circle cx="62.375" cy="5.80273" r="5" fill="#0F001A"/>
<circle cx="62.375" cy="34.4902" r="5" fill="#0F001A"/>
<circle cx="62.375" cy="63.1777" r="5" fill="#0F001A"/>
<circle cx="62.375" cy="91.8652" r="5" fill="#0F001A"/>
<circle cx="62.375" cy="120.553" r="5" fill="#0F001A"/>
<circle cx="62.375" cy="149.24" r="5" fill="#0F001A"/>
<circle cx="91.0625" cy="5.80273" r="5" fill="#0F001A"/>
<circle cx="119.75" cy="5.80273" r="5" fill="#0F001A"/>
<circle cx="148.438" cy="5.80273" r="5" fill="#0F001A"/>
<circle cx="91.0625" cy="34.4902" r="5" fill="#0F001A"/>
<circle cx="119.75" cy="34.4902" r="5" fill="#0F001A"/>
<circle cx="148.438" cy="34.4902" r="5" fill="#0F001A"/>
<circle cx="91.0625" cy="63.1777" r="5" fill="#0F001A"/>
<circle cx="119.75" cy="63.1777" r="5" fill="#0F001A"/>
<circle cx="148.438" cy="63.1777" r="5" fill="#0F001A"/>
<circle cx="91.0625" cy="91.8652" r="5" fill="#0F001A"/>
<circle cx="91.0625" cy="120.553" r="5" fill="#0F001A"/>
<circle cx="91.0625" cy="149.24" r="5" fill="#0F001A"/>
<circle cx="119.75" cy="91.8652" r="5" fill="#0F001A"/>
<circle cx="119.75" cy="120.553" r="5" fill="#0F001A"/>
<circle cx="119.75" cy="149.24" r="5" fill="#0F001A"/>
<circle cx="148.438" cy="91.8652" r="5" fill="#0F001A"/>
<circle cx="148.438" cy="120.553" r="5" fill="#0F001A"/>
<circle cx="148.438" cy="149.24" r="5" fill="#0F001A"/>
</g>
</svg>
