<svg width="28" height="22" viewBox="0 0 28 22" fill="none" xmlns="http://www.w3.org/2000/svg">
<path d="M27.675 11.3261L24.731 0.752072C24.6974 0.633864 24.6386 0.524318 24.5587 0.430943C24.4787 0.337568 24.3796 0.262569 24.268 0.211071L24.187 0.174069C24.0765 0.124859 23.957 0.099315 23.836 0.0990718H18.536C18.4233 0.0951822 18.311 0.114016 18.2058 0.154454C18.1005 0.194891 18.0045 0.2561 17.9234 0.334439C17.8423 0.412777 17.7778 0.506641 17.7338 0.610432C17.6897 0.714223 17.667 0.825823 17.667 0.938572C17.667 1.05132 17.6897 1.16291 17.7338 1.2667C17.7778 1.3705 17.8423 1.46435 17.9234 1.54269C18.0045 1.62103 18.1005 1.68225 18.2058 1.72268C18.311 1.76312 18.4233 1.78196 18.536 1.77807H23.271L25.757 10.7231H19.176C19.0651 10.7221 18.9552 10.7432 18.8525 10.785C18.7499 10.8268 18.6565 10.8886 18.5779 10.9667C18.4992 11.0448 18.4368 11.1377 18.3942 11.2401C18.3517 11.3424 18.3299 11.4522 18.33 11.5631V12.3221C18.3291 12.5876 18.2759 12.8503 18.1734 13.0953C18.0709 13.3403 17.9212 13.5627 17.7328 13.7498C17.5444 13.9369 17.321 14.0851 17.0753 14.1858C16.8296 14.2866 16.5665 14.338 16.301 14.3371H11.141C10.8755 14.338 10.6124 14.2866 10.3667 14.1858C10.121 14.0851 9.89759 13.9369 9.70918 13.7498C9.52076 13.5627 9.37105 13.3403 9.26859 13.0953C9.16613 12.8503 9.11292 12.5876 9.112 12.3221V11.5631C9.11214 11.4522 9.0903 11.3424 9.04776 11.2401C9.00522 11.1377 8.94281 11.0448 8.86415 10.9667C8.78548 10.8886 8.69212 10.8268 8.58945 10.785C8.48679 10.7432 8.37685 10.7221 8.266 10.7231H1.947L4.447 1.76007H9.182C9.29468 1.76396 9.40699 1.74512 9.51224 1.70468C9.61749 1.66424 9.71352 1.60304 9.79461 1.5247C9.8757 1.44636 9.94019 1.3525 9.98424 1.24871C10.0283 1.14492 10.051 1.03332 10.051 0.920567C10.051 0.807817 10.0283 0.696225 9.98424 0.592434C9.94019 0.488643 9.8757 0.39478 9.79461 0.316441C9.71352 0.238102 9.61749 0.176886 9.51224 0.136448C9.40699 0.0960107 9.29468 0.0771768 9.182 0.0810665H3.87C3.74905 0.0813097 3.62949 0.106862 3.519 0.156071L3.438 0.193066C3.32576 0.243595 3.22606 0.318289 3.14602 0.411808C3.06598 0.505328 3.00759 0.615366 2.975 0.734066L0.0310001 11.3081C0.0114847 11.3812 0.00107243 11.4564 0 11.5321V15.9421C0.00741046 17.5538 0.653771 19.0969 1.79731 20.2327C2.94086 21.3686 4.48821 22.0045 6.1 22.0011H21.607C23.2188 22.0045 24.7661 21.3686 25.9097 20.2327C27.0532 19.0969 27.6996 17.5538 27.707 15.9421V11.5501C27.7096 11.4741 27.6988 11.3983 27.675 11.3261ZM26.015 15.9411C26.0094 17.1059 25.5422 18.2211 24.7157 19.042C23.8892 19.8628 22.7709 20.3225 21.606 20.3201H6.099C4.93412 20.3225 3.81582 19.8628 2.98932 19.042C2.16281 18.2211 1.69556 17.1059 1.69 15.9411V12.4021H7.433C7.45987 13.3699 7.86391 14.2889 8.5589 14.9629C9.2539 15.637 10.1848 16.0128 11.153 16.0101H16.314C17.2822 16.0128 18.2131 15.637 18.9081 14.9629C19.6031 14.2889 20.0071 13.3699 20.034 12.4021H26.028V15.9411H26.015Z" fill="white"/>
</svg>
