<svg width="12" height="12" viewBox="0 0 12 12" fill="none" xmlns="http://www.w3.org/2000/svg">
<path d="M10.9175 2.31138L9.58142 0.97527C9.46658 0.865772 9.31399 0.804688 9.15531 0.804688C8.99663 0.804687 8.84405 0.865772 8.7292 0.97527L7.54115 2.16694H1.16753C0.97599 2.16694 0.792289 2.24303 0.656846 2.37847C0.521404 2.51391 0.445313 2.69761 0.445312 2.88916V10.8336C0.445313 11.0251 0.521404 11.2088 0.656846 11.3443C0.792289 11.4797 0.97599 11.5558 1.16753 11.5558H9.11198C9.30352 11.5558 9.48722 11.4797 9.62267 11.3443C9.75811 11.2088 9.8342 11.0251 9.8342 10.8336V4.24694L10.9175 3.1636C11.0304 3.05053 11.0939 2.89728 11.0939 2.73749C11.0939 2.57771 11.0304 2.42445 10.9175 2.31138ZM5.80059 7.26944L4.28754 7.60527L4.64865 6.10666L8.09726 2.65083L9.26365 3.81721L5.80059 7.26944ZM9.65365 3.40555L8.48726 2.23916L9.15531 1.5711L10.3217 2.73749L9.65365 3.40555Z" fill="#00CCA7"/>
</svg>
