<svg width="24" height="19" viewBox="0 0 24 19" fill="none" xmlns="http://www.w3.org/2000/svg">
<path d="M22.5135 0.906271C22.4122 0.895826 22.31 0.895826 22.2086 0.906271H1.38632C1.25287 0.908327 1.1203 0.928338 0.992188 0.965763L11.738 11.6669L22.5135 0.906271Z" fill="white"/>
<path d="M23.7077 2L12.8801 12.783C12.6014 13.06 12.2245 13.2155 11.8315 13.2155C11.4386 13.2155 11.0617 13.06 10.783 12.783L0.0520558 2.0818C0.0190669 2.20305 0.00157557 2.32799 0 2.45363V17.3267C0 17.7212 0.156698 18.0995 0.435623 18.3784C0.714547 18.6573 1.09285 18.814 1.48731 18.814H22.3096C22.7041 18.814 23.0824 18.6573 23.3613 18.3784C23.6402 18.0995 23.7969 17.7212 23.7969 17.3267V2.45363C23.791 2.29869 23.7609 2.14563 23.7077 2V2ZM2.50611 17.3267H1.47244V16.2633L6.8788 10.9015L7.92735 11.9501L2.50611 17.3267ZM22.2948 17.3267H21.2536L15.8324 11.9501L16.8809 10.9015L22.2873 16.2633L22.2948 17.3267Z" fill="white"/>
</svg>
