<svg width="10" height="10" viewBox="0 0 10 10" fill="none" xmlns="http://www.w3.org/2000/svg">
<path d="M4.99996 4.43924C5.7302 4.43924 6.32218 3.85472 6.32218 3.13368C6.32218 2.41264 5.7302 1.82812 4.99996 1.82812C4.26971 1.82812 3.67773 2.41264 3.67773 3.13368C3.67773 3.85472 4.26971 4.43924 4.99996 4.43924Z" fill="#00CCA7"/>
<path d="M2.99447 3.26339H3.1278V3.14394C3.12861 2.79661 3.2266 2.45643 3.41069 2.16189C3.59478 1.86736 3.85761 1.63021 4.16947 1.47728C4.07715 1.26466 3.92896 1.08101 3.74065 0.945843C3.55233 0.810677 3.33093 0.729039 3.09994 0.709599C2.86896 0.69016 2.63702 0.733645 2.42877 0.835436C2.22051 0.937227 2.04371 1.09352 1.91715 1.28772C1.79059 1.48192 1.71899 1.70678 1.70996 1.9384C1.70093 2.17003 1.7548 2.39977 1.86585 2.60324C1.9769 2.80671 2.14099 2.9763 2.34069 3.094C2.54038 3.2117 2.76823 3.27311 3.00003 3.27172L2.99447 3.26339Z" fill="#00CCA7"/>
<path d="M6.87648 3.13197V3.25141H7.00981C7.23852 3.24912 7.46238 3.18521 7.65783 3.06641C7.85328 2.94761 8.01309 2.77832 8.12044 2.57636C8.22778 2.37439 8.2787 2.14722 8.26782 1.91876C8.25695 1.6903 8.18468 1.46899 8.05864 1.27814C7.93259 1.08728 7.75742 0.933939 7.55157 0.834245C7.34572 0.734551 7.1168 0.692195 6.88891 0.711636C6.66101 0.731076 6.44258 0.811594 6.25658 0.944714C6.07059 1.07783 5.92393 1.25863 5.83203 1.46808C6.14398 1.62041 6.40711 1.85696 6.59168 2.15099C6.77624 2.44502 6.87489 2.78481 6.87648 3.13197Z" fill="#00CCA7"/>
<path d="M6.19141 4.56869C6.7437 4.67801 7.27772 4.86505 7.77752 5.12425C7.84793 5.16293 7.9117 5.21263 7.96641 5.27147H9.44418V4.32147C9.44445 4.28503 9.43476 4.24921 9.41616 4.21788C9.39756 4.18655 9.37075 4.16089 9.33863 4.14369C8.61867 3.76711 7.81779 3.57166 7.00529 3.57424H6.82196C6.72569 3.96555 6.50429 4.31473 6.19141 4.56869Z" fill="#00CCA7"/>
<path d="M1.81303 5.81014C1.81252 5.67024 1.8503 5.53287 1.92228 5.41291C1.99425 5.29295 2.09768 5.19497 2.22136 5.12958C2.72116 4.87039 3.25517 4.68334 3.80747 4.57403C3.4961 4.32223 3.27484 3.9762 3.17691 3.58792H2.99358C2.18109 3.58533 1.38021 3.78078 0.660249 4.15736C0.628129 4.17457 0.60132 4.20022 0.582717 4.23155C0.564114 4.26288 0.554424 4.2987 0.554693 4.33514V6.11014H1.81303V5.81014Z" fill="#00CCA7"/>
<path d="M5.96094 7.41406H7.61649V7.80295H5.96094V7.41406Z" fill="#00CCA7"/>
<path d="M9.11359 5.9056H7.20526V5.62782C7.20526 5.55415 7.17599 5.4835 7.1239 5.43141C7.0718 5.37931 7.00115 5.35005 6.92748 5.35005C6.85381 5.35005 6.78315 5.37931 6.73106 5.43141C6.67897 5.4835 6.6497 5.55415 6.6497 5.62782V5.9056H6.11081V5.11949C5.74535 5.04275 5.37313 5.00273 4.9997 5.00005C4.12297 4.9964 3.25876 5.20816 2.48303 5.61671C2.44848 5.63464 2.41956 5.66177 2.39946 5.6951C2.37936 5.72844 2.36887 5.76668 2.36915 5.8056V7.36394H4.34415V9.0556C4.34415 9.12927 4.37341 9.19993 4.4255 9.25202C4.4776 9.30411 4.54825 9.33338 4.62192 9.33338H9.11359C9.18726 9.33338 9.25791 9.30411 9.31001 9.25202C9.3621 9.19993 9.39137 9.12927 9.39137 9.0556V6.18338C9.39137 6.10971 9.3621 6.03905 9.31001 5.98696C9.25791 5.93487 9.18726 5.9056 9.11359 5.9056ZM8.83581 8.78338H4.8997V6.46116H6.6497V6.71394C6.6497 6.78761 6.67897 6.85826 6.73106 6.91035C6.78315 6.96245 6.85381 6.99171 6.92748 6.99171C7.00115 6.99171 7.0718 6.96245 7.1239 6.91035C7.17599 6.85826 7.20526 6.78761 7.20526 6.71394V6.46116H8.83581V8.78338Z" fill="#00CCA7"/>
</svg>
