<svg width="156" height="47" viewBox="0 0 156 47" fill="none" xmlns="http://www.w3.org/2000/svg">
<path d="M35.7439 25.0275C35.7439 31.6075 32.1812 37.3063 26.9832 40.4787L27.9176 44.5913C28.0344 45.1787 27.9176 45.7663 27.5088 46.2362C27.1584 46.7062 26.5743 47 25.9903 47H21.6099C21.3763 47 21.1426 46.9412 20.909 46.8825C20.6754 46.9412 20.4418 47 20.2082 47H15.4773C15.2437 47 15.0101 46.9412 14.8349 46.8825C14.6013 46.9412 14.3677 47 14.134 47H9.75365C9.11119 47 8.58555 46.7062 8.17671 46.2362C7.82628 45.7663 7.70947 45.1787 7.82628 44.5913L8.76076 40.4787C3.50431 37.3063 0 31.6075 0 25.0275C0 16.0975 6.48296 8.695 14.9517 7.285L15.8278 1.645C16.003 0.705 16.8207 0 17.7551 0C18.748 0 19.5657 0.705 19.6825 1.645L20.617 7.285C29.1441 8.63625 35.7439 16.0387 35.7439 25.0275ZM26.1655 19.7987H9.57843L12.4987 25.0863H23.1868L26.1655 19.7987ZM18.5728 7.10875L17.7551 1.9975L16.9959 7.10875L16.5286 9.92875H19.0401L18.5728 7.10875ZM20.325 14.0413L21.7851 11.28H13.9004L15.3605 14.0413L14.7765 18.4475H20.9674L20.3834 14.0413H20.325ZM9.75365 45.0025H14.134L14.3092 42.6525L15.711 26.555H13.9004L10.5713 41.4188L9.75365 45.0025ZM15.6526 42.8288L15.4773 45.0025H20.2082L20.0329 42.8288L18.6312 26.555H17.0543L15.6526 42.8288ZM21.6099 45.0025H25.9903L25.1726 41.4188L21.7851 26.555H20.0329L21.3763 42.6525L21.6099 45.0025ZM48.4178 39.3037H49.2939V33.0175H50.9292V32.195H46.7241V33.0175H48.4178V39.3037ZM63.2527 35.72C63.2527 33.7225 61.559 32.0187 59.5148 32.0187C57.529 32.0187 55.8353 33.7225 55.8353 35.72C55.8353 37.835 57.4706 39.48 59.5148 39.48C61.559 39.48 63.2527 37.835 63.2527 35.72ZM62.3766 35.72C62.3766 37.365 61.0917 38.5988 59.5148 38.5988C57.9963 38.5988 56.7113 37.365 56.7113 35.72C56.7113 34.1925 57.8794 32.9 59.5148 32.9C61.2085 32.9 62.3766 34.1925 62.3766 35.72ZM73.824 32.195H72.6559L69.6773 35.25V32.195H68.8012V39.3037H69.6773V36.3075L70.0277 36.0137L72.7143 39.3037H73.8824L70.6702 35.3675L73.824 32.195ZM79.3725 32.195H78.3796L80.7158 36.19V39.3037H81.5919V36.19L83.8697 32.195H82.8768L81.1247 35.25L79.3725 32.195ZM96.0764 35.72C96.0764 33.7225 94.3826 32.0187 92.3969 32.0187C90.3527 32.0187 88.6589 33.7225 88.6589 35.72C88.6589 37.835 90.3527 39.48 92.3969 39.48C94.441 39.48 96.0764 37.835 96.0764 35.72ZM95.2003 35.72C95.2003 37.365 93.9154 38.5988 92.3969 38.5988C90.8783 38.5988 89.535 37.365 89.535 35.72C89.535 34.1925 90.7031 32.9 92.3969 32.9C94.0322 32.9 95.2003 34.1925 95.2003 35.72ZM110.736 39.3037V38.4813H107.874L110.21 35.6613C110.502 35.25 110.736 34.7212 110.736 34.1925C110.736 32.9588 109.685 32.0187 108.517 32.0187C107.232 32.0187 106.414 32.9 106.239 34.1338H107.115C107.173 33.4287 107.757 32.8413 108.517 32.8413C109.218 32.8413 109.86 33.4875 109.86 34.1925C109.86 34.6625 109.568 35.1325 109.276 35.485L106.18 39.3037H110.736ZM123.41 35.72C123.41 33.7225 121.775 32.0187 119.73 32.0187C117.686 32.0187 116.051 33.7225 116.051 35.72C116.051 37.835 117.686 39.48 119.73 39.48C121.775 39.48 123.41 37.835 123.41 35.72ZM122.534 35.72C122.534 37.365 121.249 38.5988 119.73 38.5988C118.212 38.5988 116.927 37.365 116.927 35.72C116.927 34.1925 118.095 32.9 119.73 32.9C121.366 32.9 122.534 34.1925 122.534 35.72ZM129.367 32.195L128.9 33.0175H130.127V39.3037H130.944V32.195H129.367ZM142.45 39.3037V38.4813H139.588L141.924 35.6613C142.275 35.25 142.45 34.7212 142.45 34.1925C142.45 32.9588 141.457 32.0187 140.231 32.0187C138.946 32.0187 138.128 32.9 138.011 34.1338H138.887C138.946 33.4287 139.53 32.8413 140.231 32.8413C140.99 32.8413 141.632 33.4875 141.632 34.1925C141.632 34.6625 141.282 35.1325 140.99 35.485L137.894 39.3037H142.45ZM72.1303 17.9188C72.5975 18.2125 72.8311 18.6825 72.8311 19.27C72.8311 19.9163 72.5975 20.3862 72.1303 20.68C71.7215 20.9737 71.0206 21.15 70.0861 21.15H68.4508V17.4487H70.0861C70.9622 17.4487 71.663 17.625 72.1303 17.9188ZM71.3126 19.3875V19.2113H71.2542C71.1958 19.1525 70.787 18.9762 70.0861 18.9762H69.9693V19.5637H70.0861C70.8454 19.6225 71.2542 19.4462 71.3126 19.3875ZM155.241 25.38C155.825 25.9675 156 26.7313 156 27.3775C156 28.0825 155.825 28.9638 155.124 29.5513C154.423 30.1388 153.664 30.1975 152.963 30.2563H149.517C148.816 30.1975 148.057 30.1388 147.356 29.5513C147.181 29.375 147.006 29.1987 146.889 29.0225C146.83 29.1987 146.655 29.375 146.48 29.5513C145.779 30.1388 145.02 30.1975 144.319 30.2563H141.34C140.756 30.1975 140.114 30.1388 139.471 29.7862C138.887 30.1388 138.245 30.2563 137.661 30.2563H130.769C130.068 30.1975 129.367 30.1388 128.666 29.5513C128.491 29.4338 128.374 29.3162 128.316 29.14C126.973 30.1975 125.221 30.6087 123.293 30.6087C122.534 30.6087 121.775 30.55 121.132 30.4325C120.84 30.3738 120.49 30.315 120.198 30.2563H120.081C119.614 30.55 119.146 30.6087 118.679 30.6087C118.037 30.6087 117.336 30.55 116.635 29.9037L116.577 29.845C115.993 30.1975 115.35 30.2563 114.824 30.2563H111.32C110.619 30.1975 109.86 30.1388 109.159 29.5513C108.984 29.375 108.867 29.1987 108.75 29.0225C108.633 29.1987 108.458 29.375 108.283 29.5513C107.582 30.1388 106.823 30.1975 106.122 30.2563H103.143C102.443 30.1975 101.742 30.1388 100.982 29.5513C100.515 29.0812 100.282 28.5525 100.223 28.0238C99.7559 28.2 99.2887 28.2587 98.8214 28.2587H98.763C97.7701 28.2587 96.7772 27.9062 96.018 27.26V27.2013C96.018 27.2013 95.9596 27.2013 95.9596 27.26C95.2003 27.965 94.2074 28.2587 93.1561 28.2587C92.28 28.2587 91.4624 28.0238 90.7615 27.495C90.5863 27.7887 90.4111 28.0238 90.2359 28.2587C89.7102 28.7875 89.1262 29.14 88.4253 29.5513C87.0236 30.2563 85.3882 30.6087 83.6945 30.6087H83.6361C81.2999 30.6087 79.1973 29.7275 77.6788 28.0825C76.5691 26.9075 75.9266 25.4975 75.5762 23.8525C74.5249 24.675 73.1816 25.0863 71.7215 25.2625H71.7799C72.4223 25.9088 72.5975 26.7313 72.5975 27.3775C72.5975 28.0825 72.4223 28.905 71.7799 29.4925C71.079 30.1388 70.3197 30.2563 69.6189 30.2563H65.6473C65.0633 30.2563 64.3624 30.1388 63.7784 29.7275C63.1359 30.1388 62.4934 30.2563 61.9094 30.2563H58.4051C57.7042 30.1975 56.945 30.1388 56.2441 29.5513C56.0689 29.375 55.9521 29.1987 55.8353 29.0225C55.7185 29.1987 55.5432 29.375 55.368 29.5513C54.6672 30.1388 53.9079 30.1975 53.2654 30.2563H50.2284C49.5859 30.1975 48.9435 30.1388 48.2426 29.6688C47.6001 30.1388 46.9577 30.2563 46.3152 30.2563H40.2995C39.5987 30.2563 38.8394 30.1388 38.1385 29.5513C37.4961 28.905 37.3209 28.0825 37.3209 27.3775C37.3209 26.7313 37.4377 25.9088 38.1385 25.2625C38.8394 24.675 39.5987 24.6162 40.2411 24.6162V24.0287L37.5545 18.9175C37.0872 18.8 36.6784 18.565 36.328 18.2125C35.7439 17.625 35.5687 16.8025 35.5687 16.1562C35.5687 15.51 35.6855 14.6875 36.3864 14.0413C37.0872 13.4537 37.8465 13.3363 38.5474 13.3363H41.526C42.1101 13.3363 42.8109 13.4537 43.395 13.9237C44.0374 13.395 44.6799 13.3363 45.2639 13.3363H47.8922C48.593 13.3363 49.3523 13.395 50.0532 14.0413L50.17 14.1587C50.17 14.1 50.2284 14.0413 50.2868 14.0413C50.9876 13.4537 51.7469 13.3363 52.4478 13.3363H56.7697C57.3538 13.3363 58.0547 13.5125 58.5803 13.9237C59.1059 14.335 59.4564 14.8637 59.6316 15.4513C59.69 15.51 59.69 15.5688 59.69 15.6275L63.0191 24.7337C63.2527 24.7925 63.5447 24.91 63.7784 25.0863L64.1288 24.91V18.6825C63.8368 18.565 63.6031 18.3888 63.4279 18.2125C62.8439 17.625 62.6687 16.8025 62.6687 16.1562C62.6687 15.51 62.8439 14.6287 63.4863 14.0413C64.1872 13.4537 64.9465 13.3363 65.6473 13.3363H70.4365C72.4807 13.3363 74.2913 13.6888 75.6346 14.7463C76.2186 15.1575 76.6859 15.745 77.0363 16.3325C77.2115 16.0975 77.4452 15.8038 77.6788 15.51C79.1973 13.8062 81.3583 12.925 83.6361 12.925C84.337 12.925 84.9794 13.0425 85.6219 13.16C85.9139 13.2188 86.2059 13.3363 86.4979 13.4537C86.5563 13.4537 86.5563 13.395 86.5563 13.395C87.0236 13.1012 87.5492 12.925 88.0749 12.925C88.6589 12.925 89.535 13.16 90.0606 13.865C90.4695 14.3938 90.5863 14.9225 90.6447 15.4513C91.3456 14.8637 92.28 14.57 93.1561 14.57C94.149 14.57 95.2003 14.8637 95.9596 15.5688C95.9596 15.6275 95.9596 15.6275 96.018 15.6275V15.5688C96.7772 14.8637 97.8285 14.57 98.8214 14.57C99.8143 14.57 100.866 14.8637 101.566 15.5688C101.917 15.8625 102.151 16.215 102.384 16.6262C102.326 16.45 102.326 16.3325 102.326 16.1562C102.326 15.4513 102.501 14.6287 103.202 14.0413C103.903 13.4537 104.662 13.3363 105.363 13.3363H109.685C110.269 13.3363 110.97 13.5125 111.495 13.9237C112.021 14.335 112.371 14.8637 112.547 15.4513C112.605 15.51 112.605 15.5688 112.605 15.6275L115.817 24.44C115.876 23.9112 115.993 23.3237 116.518 22.795C116.693 22.56 116.927 22.3837 117.161 22.325C116.401 21.385 116.051 20.21 116.051 19.035C116.051 17.2725 116.81 15.6862 118.095 14.57C119.38 13.4537 121.074 12.925 122.943 12.925C123.585 12.925 124.228 13.0425 124.812 13.16C125.045 13.2188 125.337 13.2775 125.571 13.3363C126.155 12.9838 126.622 12.9838 127.089 12.925C127.674 12.9838 128.374 12.9838 129.075 13.7475C129.659 13.395 130.243 13.395 130.769 13.3363H137.661C138.362 13.395 139.121 13.395 139.822 14.0413C140.289 14.4525 140.523 14.9225 140.581 15.4513C140.698 14.9225 140.931 14.4525 141.399 14.0413C142.1 13.4537 142.8 13.3363 143.501 13.3363H147.882C148.466 13.3363 149.167 13.5125 149.692 13.9237C150.218 14.335 150.568 14.8637 150.744 15.4513C150.802 15.51 150.802 15.5688 150.802 15.6275L154.131 24.7337C154.481 24.8512 154.89 25.0275 155.241 25.38ZM47.4249 28.3762C47.6586 28.2 47.7754 27.8475 47.7754 27.3775C47.7754 26.9662 47.6586 26.6138 47.4249 26.4375C47.1913 26.2612 46.8409 26.1437 46.3152 26.1437H44.7967V23.265L47.8922 17.4487H48.0674C48.4762 17.4487 48.8267 17.3312 49.0019 17.155C49.2355 16.92 49.3523 16.5675 49.3523 16.1562C49.3523 15.6862 49.2355 15.3925 49.0019 15.1575C48.7682 14.9812 48.4178 14.8637 47.8922 14.8637H45.2639C44.7967 14.8637 44.5047 14.9812 44.3295 15.1575C44.0958 15.3925 44.0374 15.6862 44.0374 16.1562C44.0374 16.5675 44.0958 16.92 44.2711 17.155C44.4463 17.3312 44.7383 17.4487 45.0887 17.4487H45.1471L43.395 21.2675L41.5844 17.4487H41.7596C42.1101 17.4487 42.4021 17.3312 42.5773 17.0963C42.7525 16.92 42.8109 16.5675 42.8109 16.1562C42.8109 15.6862 42.7525 15.3925 42.5189 15.1575C42.3437 14.9812 41.9933 14.8637 41.526 14.8637H38.5474C38.0217 14.8637 37.6129 14.9812 37.4377 15.1575C37.204 15.3925 37.0872 15.6862 37.0872 16.1562C37.0872 16.5675 37.204 16.92 37.3793 17.155C37.6129 17.3312 37.9049 17.4487 38.3137 17.4487H38.5474L41.818 23.6175V26.1437H40.2995C39.7739 26.1437 39.365 26.2612 39.1898 26.4375C38.9562 26.6138 38.8394 26.9662 38.8394 27.3775C38.8394 27.8475 38.9562 28.2 39.1898 28.3762C39.4234 28.6112 39.7739 28.67 40.2995 28.67H46.3152C46.7825 28.67 47.1913 28.6112 47.4249 28.3762ZM46.3152 23.6763V24.6162C46.9577 24.6162 47.6001 24.675 48.2426 25.145C48.5346 24.9688 48.8267 24.7925 49.1187 24.7337L51.2213 18.8587C50.9292 18.7412 50.5788 18.565 50.2868 18.33C50.2284 18.2712 50.17 18.2125 50.17 18.1537C50.1116 18.1537 50.1116 18.2125 50.1116 18.2125C49.7611 18.565 49.2939 18.8 48.8851 18.9175L46.3152 23.6763ZM63.0191 28.3762C63.2527 28.2 63.3695 27.8475 63.3695 27.3775C63.3695 26.9662 63.2527 26.6725 63.0191 26.4375C62.8439 26.2612 62.4934 26.1437 62.0846 26.1437H61.9094L58.2299 16.0387V15.98C57.9379 15.275 57.4706 14.8637 56.7697 14.8637H52.4478C51.9221 14.8637 51.5133 14.9812 51.2797 15.1575C51.046 15.3925 50.9292 15.6862 50.9292 16.1562C50.9292 16.6262 51.046 16.9788 51.2797 17.155C51.5133 17.3312 51.9221 17.4487 52.4478 17.4487H53.3823L50.2284 26.1437H50.0532C49.6443 26.1437 49.2939 26.2612 49.1187 26.4375C48.8851 26.6725 48.7682 26.9662 48.7682 27.3775C48.7682 27.8475 48.8851 28.2 49.1187 28.3762C49.3523 28.6112 49.7027 28.67 50.2284 28.67H53.2654C53.7327 28.67 54.1415 28.6112 54.3751 28.3762C54.6088 28.2 54.7256 27.8475 54.7256 27.3775C54.7256 26.9662 54.6088 26.6138 54.3751 26.4375C54.1415 26.2612 53.7327 26.1437 53.2654 26.1437H52.8566L53.3238 24.7925H58.3467L58.8139 26.1437H58.4051C57.8794 26.1437 57.4706 26.2612 57.2954 26.4375C57.0618 26.6138 56.945 26.9662 56.945 27.3775C56.945 27.8475 57.0618 28.2 57.2954 28.3762C57.4706 28.6112 57.8794 28.67 58.4051 28.67H61.9094C62.435 28.67 62.7855 28.6112 63.0191 28.3762ZM74.7001 22.6187C75.693 21.855 76.1602 20.68 76.1602 19.2113C76.1602 17.8013 75.693 16.685 74.7001 15.98C73.7656 15.2163 72.3055 14.8637 70.4365 14.8637H65.6473C65.1217 14.8637 64.7712 14.9812 64.5376 15.2163C64.304 15.3925 64.1872 15.745 64.1872 16.1562C64.1872 16.5675 64.304 16.92 64.5376 17.0963C64.7712 17.3312 65.0633 17.4487 65.4137 17.4487H65.6473V26.1437H65.4137C65.0633 26.1437 64.7128 26.2612 64.5376 26.4375C64.304 26.6725 64.1872 26.9662 64.1872 27.3775C64.1872 27.8475 64.304 28.2 64.5376 28.3762C64.7712 28.6112 65.1217 28.67 65.6473 28.67H69.6189C70.1445 28.67 70.4949 28.6112 70.7286 28.3762C70.9038 28.2 71.0206 27.8475 71.0206 27.3775C71.0206 26.9662 70.9038 26.6138 70.7286 26.4375C70.4949 26.2612 70.1445 26.1437 69.6189 26.1437H68.4508V23.735H70.4365C72.3055 23.735 73.7656 23.3825 74.7001 22.6187ZM97.0693 16.7437C96.602 17.155 96.4268 17.625 96.4268 18.2712C96.4268 18.9762 96.602 19.505 97.0693 19.9163C97.5365 20.3275 98.1206 20.5037 98.8214 20.5037C99.5223 20.5037 100.106 20.3275 100.574 19.9163C100.982 19.505 101.216 18.9762 101.216 18.2712C101.216 17.625 100.982 17.155 100.574 16.7437C100.106 16.3325 99.5223 16.1562 98.8214 16.1562C98.1206 16.1562 97.5365 16.3325 97.0693 16.7437ZM91.4624 16.7437C90.9951 17.155 90.7615 17.625 90.7615 18.2712C90.7615 18.9762 90.9951 19.505 91.4624 19.9163C91.8712 20.3275 92.4553 20.5037 93.1561 20.5037C93.9154 20.5037 94.4994 20.3275 94.9083 19.9163C95.3755 19.505 95.5507 18.9762 95.5507 18.2712C95.5507 17.625 95.3755 17.155 94.9083 16.7437C94.4994 16.3325 93.9154 16.1562 93.1561 16.1562C92.4553 16.1562 91.8712 16.3325 91.4624 16.7437ZM87.7829 28.1413C88.951 27.5537 89.535 26.9075 89.535 26.2025C89.535 25.85 89.4766 25.4975 89.243 25.2625C89.0094 25.0275 88.7757 24.8512 88.4837 24.8512C88.2501 24.8512 87.6076 25.145 86.6147 25.6737C85.6803 26.2025 84.7458 26.4963 83.9281 26.4963C82.76 26.4963 81.8839 26.085 81.1831 25.2625C80.5406 24.44 80.2486 23.3237 80.2486 21.7962C80.2486 20.2687 80.5406 19.0938 81.1831 18.2712C81.8255 17.4487 82.76 17.0375 83.9281 17.0375C84.6874 17.0375 85.3298 17.2138 85.7387 17.5662C86.2059 17.86 86.4979 18.3888 86.7316 19.1525C86.8484 19.5637 86.9652 19.8575 87.1404 19.975C87.3156 20.1513 87.6076 20.21 87.8997 20.21C88.3669 20.21 88.7173 20.1513 88.8341 19.975C89.0094 19.74 89.1262 19.3875 89.1262 18.8587V15.8625C89.1262 15.3337 89.0094 14.9812 88.8341 14.805C88.7173 14.57 88.4253 14.5112 88.0749 14.5112C87.7829 14.5112 87.6076 14.57 87.4324 14.6875C87.2572 14.805 87.1404 14.9812 86.9652 15.275C86.3811 14.9812 85.7971 14.805 85.2714 14.6875C84.7458 14.57 84.2201 14.5112 83.6361 14.5112C81.7087 14.5112 80.0734 15.1575 78.8469 16.5675C77.562 17.9775 76.9195 19.6812 76.9195 21.7962C76.9195 23.97 77.562 25.6737 78.7885 27.025C80.0734 28.3762 81.7087 29.0812 83.6945 29.0812C85.213 29.0812 86.5563 28.7288 87.7829 28.1413ZM90.4111 21.7962C90.5863 21.6787 90.7031 21.5613 90.8783 21.4438C90.7031 21.3263 90.5279 21.2087 90.4111 21.0325C90.2943 20.9737 90.2359 20.8563 90.1775 20.7388C90.1191 20.8563 90.0606 20.915 90.0022 21.0325C89.3014 21.6787 88.5421 21.7375 87.8997 21.7962C87.374 21.7962 86.6732 21.62 86.1475 21.15C85.6219 20.6213 85.4466 20.1513 85.213 19.5637C85.0962 18.9762 84.921 18.8587 84.8626 18.8C84.8042 18.7412 84.5122 18.6238 83.9281 18.6238C83.052 18.6238 82.76 18.8 82.4096 19.2113C82.0592 19.6225 81.7671 20.445 81.7671 21.7962C81.7671 23.0888 82.0592 23.9112 82.4096 24.3225C82.76 24.7337 83.1104 24.91 83.9281 24.9688C84.3954 24.9688 85.0962 24.7925 85.9139 24.3225C86.3811 24.0287 86.8484 23.8525 87.1988 23.6763C87.6076 23.5 87.8413 23.3825 88.4837 23.3237C88.7757 23.3237 89.0678 23.3825 89.3598 23.5C89.535 22.8538 89.8854 22.2075 90.4111 21.7962ZM94.9083 26.085C95.3755 25.6737 95.6091 25.145 95.6091 24.4988C95.6091 23.8525 95.3755 23.3237 94.9083 22.9125C94.4994 22.56 93.9154 22.325 93.1561 22.325C92.4553 22.325 91.8712 22.56 91.4624 22.9713C90.9951 23.3237 90.7615 23.8525 90.7615 24.4988C90.7615 25.145 90.9951 25.6737 91.4624 26.085C91.8712 26.4963 92.4553 26.7313 93.1561 26.7313C93.9154 26.7313 94.4994 26.4963 94.9083 26.085ZM96.018 21.855C96.018 21.7962 96.018 21.7962 96.0764 21.7962C96.1932 21.6787 96.3684 21.5613 96.5436 21.4438C96.3684 21.3263 96.1932 21.2087 96.018 21.0325V20.9737L95.9596 21.0325C95.7843 21.15 95.6675 21.3263 95.4923 21.4438C95.6675 21.5025 95.7843 21.6787 95.9596 21.7962C95.9596 21.7962 96.018 21.7962 96.018 21.855ZM100.574 26.085C101.041 25.6737 101.216 25.145 101.216 24.4988C101.216 23.8525 101.041 23.3237 100.574 22.9125C100.106 22.56 99.5223 22.325 98.8214 22.325C98.1206 22.325 97.5365 22.56 97.0693 22.9713C96.602 23.3237 96.4268 23.8525 96.4268 24.4988C96.4268 25.145 96.602 25.6737 97.0693 26.085C97.5365 26.4963 98.1206 26.7313 98.8214 26.7313C99.5223 26.7313 100.106 26.4963 100.574 26.085ZM101.099 21.4438C101.274 21.5025 101.45 21.62 101.566 21.7962C102.034 22.1488 102.384 22.6775 102.559 23.265L104.136 18.8587C103.844 18.7412 103.494 18.565 103.202 18.33C102.968 18.095 102.793 17.9188 102.676 17.6838C102.735 17.86 102.735 18.095 102.735 18.2712C102.793 19.27 102.384 20.3275 101.625 21.0325C101.45 21.15 101.274 21.3263 101.099 21.4438ZM115.934 28.3762C116.168 28.2 116.285 27.8475 116.285 27.3775C116.285 26.9662 116.168 26.6725 115.934 26.4375C115.7 26.2612 115.408 26.1437 115 26.1437H114.824L111.145 16.0387V15.98C110.853 15.275 110.386 14.8637 109.685 14.8637H105.363C104.837 14.8637 104.428 14.9812 104.195 15.1575C103.961 15.3925 103.844 15.6862 103.844 16.1562C103.844 16.6262 103.961 16.9788 104.195 17.155C104.428 17.3312 104.837 17.4487 105.363 17.4487H106.239L103.143 26.1437H102.968C102.559 26.1437 102.209 26.2612 102.034 26.4375C101.8 26.6725 101.683 26.9662 101.683 27.3775C101.683 27.8475 101.8 28.2 102.034 28.3762C102.267 28.6112 102.618 28.67 103.143 28.67H106.18C106.648 28.67 107.057 28.6112 107.29 28.3762C107.524 28.2 107.641 27.8475 107.641 27.3775C107.641 26.9662 107.524 26.6138 107.29 26.4375C107.057 26.2612 106.648 26.1437 106.18 26.1437H105.772L106.239 24.7925H111.262L111.729 26.1437H111.32C110.794 26.1437 110.386 26.2612 110.152 26.4375C109.977 26.6138 109.86 26.9662 109.86 27.3775C109.86 27.8475 109.977 28.2 110.152 28.3762C110.386 28.6112 110.794 28.67 111.32 28.67H114.824C115.35 28.67 115.7 28.6112 115.934 28.3762ZM127.44 27.9062C128.374 27.1425 128.9 26.0263 128.9 24.6162C128.9 23.4412 128.55 22.5012 127.849 21.855C127.206 21.2087 126.155 20.68 124.636 20.3862C124.461 20.3275 124.228 20.2687 123.877 20.21C121.891 19.7987 120.957 19.2113 120.957 18.5063C120.957 18.0362 121.132 17.625 121.599 17.2725C122.008 16.9788 122.534 16.8025 123.235 16.8025C123.819 16.8025 124.286 16.92 124.695 17.155C125.104 17.39 125.454 17.7425 125.688 18.2712C125.688 18.33 125.746 18.3888 125.746 18.4475C126.038 19.035 126.447 19.3288 126.973 19.3288C127.44 19.3288 127.732 19.27 127.907 19.0938C128.082 18.8587 128.199 18.565 128.199 18.095V17.9775L128.141 15.745C128.141 15.2163 128.082 14.9225 127.907 14.7463C127.79 14.57 127.498 14.5112 127.089 14.5112C126.739 14.5112 126.564 14.5112 126.389 14.6287C126.272 14.7463 126.097 14.9225 125.98 15.1575C125.513 14.9225 124.987 14.7463 124.461 14.6287C123.994 14.57 123.468 14.5112 122.943 14.5112C121.366 14.5112 120.081 14.9225 119.088 15.745C118.095 16.6262 117.628 17.6838 117.628 19.035C117.628 20.0338 117.92 20.8563 118.446 21.4438C119.03 22.0312 120.081 22.56 121.599 22.9125C121.891 23.03 122.3 23.1475 122.826 23.265C124.636 23.6763 125.513 24.3225 125.513 25.145C125.513 25.6737 125.337 26.085 124.928 26.3787C124.52 26.6725 123.994 26.8487 123.293 26.8487C122.475 26.8487 121.833 26.6725 121.307 26.3787C120.782 26.085 120.373 25.6737 120.022 25.0275C120.022 24.9688 119.964 24.7925 119.847 24.6162C119.497 23.9112 119.088 23.5588 118.621 23.5588C118.153 23.5588 117.803 23.6175 117.628 23.8525C117.394 24.0287 117.336 24.3813 117.336 24.91V25.0275L117.394 27.7887C117.394 28.2587 117.453 28.6112 117.686 28.7875C117.861 28.9638 118.212 29.0812 118.679 29.0812C118.971 29.0812 119.205 29.0225 119.38 28.905C119.497 28.8463 119.672 28.67 119.789 28.4937C120.314 28.67 120.84 28.8463 121.424 28.905C121.95 29.0225 122.592 29.0812 123.293 29.0812C125.104 29.0812 126.447 28.67 127.44 27.9062ZM121.541 24.4988C121.658 24.7925 121.833 24.91 122.067 25.0275C122.3 25.145 122.709 25.2625 123.293 25.2625C123.527 25.2625 123.702 25.2625 123.819 25.2038C123.585 25.0863 123.118 24.91 122.475 24.7337C122.125 24.675 121.775 24.6162 121.541 24.4988ZM124.111 18.6825C124.052 18.565 123.994 18.5063 123.936 18.5063C123.76 18.3888 123.585 18.33 123.235 18.33H122.943C123.235 18.4475 123.644 18.565 124.111 18.6825ZM128.608 20.445C128.725 20.5625 128.842 20.68 128.958 20.7388C129.951 21.7375 130.419 23.1475 130.419 24.6162H131.178V18.9762H130.769C130.419 18.9762 130.01 18.9762 129.659 18.8587C129.601 19.27 129.426 19.74 129.017 20.1513C128.9 20.2687 128.783 20.3862 128.608 20.445ZM138.77 28.3762C139.004 28.2 139.121 27.8475 139.121 27.3775C139.121 26.9662 139.004 26.6138 138.77 26.4375C138.595 26.2612 138.186 26.1437 137.661 26.1437H135.733V17.4487H137.661C138.186 17.4487 138.595 17.3312 138.77 17.155C139.004 16.9788 139.121 16.6262 139.121 16.1562C139.121 15.6862 139.004 15.3925 138.829 15.2163C138.595 14.9812 138.186 14.9225 137.661 14.9225H130.769C130.243 14.9225 129.893 14.9812 129.659 15.2163C129.426 15.3925 129.309 15.6862 129.309 16.1562C129.309 16.6262 129.426 16.9788 129.659 17.155C129.893 17.3312 130.243 17.4487 130.769 17.4487H132.755V26.1437H130.769C130.243 26.1437 129.893 26.2612 129.659 26.4375C129.426 26.6138 129.309 26.9662 129.309 27.3775C129.309 27.8475 129.426 28.2 129.659 28.3762C129.893 28.6112 130.243 28.67 130.769 28.67H137.661C138.186 28.67 138.537 28.6112 138.77 28.3762ZM137.252 24.6162H137.661C138.245 24.6162 138.887 24.675 139.53 25.0863C139.763 24.91 139.997 24.7925 140.231 24.7337L142.333 18.8587C141.983 18.7412 141.691 18.565 141.399 18.33C140.931 17.9188 140.698 17.39 140.581 16.92C140.523 17.39 140.289 17.9188 139.822 18.2712C139.121 18.9175 138.362 18.9762 137.661 18.9762H137.252V24.6162ZM154.131 28.3762C154.365 28.2 154.481 27.8475 154.481 27.3775C154.481 26.9662 154.365 26.6725 154.131 26.4375C153.897 26.2612 153.605 26.1437 153.197 26.1437H152.963L149.342 16.0387V15.98C149.05 15.275 148.583 14.8637 147.882 14.8637H143.501C142.976 14.8637 142.625 14.9812 142.392 15.1575C142.158 15.3925 142.041 15.6862 142.041 16.1562C142.041 16.6262 142.158 16.9788 142.392 17.155C142.625 17.3312 142.976 17.4487 143.501 17.4487H144.436L141.34 26.1437H141.165C140.756 26.1437 140.406 26.2612 140.231 26.4375C139.997 26.6725 139.88 26.9662 139.88 27.3775C139.88 27.8475 139.997 28.2 140.231 28.3762C140.464 28.6112 140.815 28.67 141.34 28.67H144.319C144.845 28.67 145.253 28.6112 145.487 28.3762C145.721 28.2 145.838 27.8475 145.838 27.3775C145.838 26.9662 145.721 26.6138 145.487 26.4375C145.253 26.2612 144.845 26.1437 144.319 26.1437H143.91L144.436 24.7925H149.459L149.926 26.1437H149.517C148.991 26.1437 148.583 26.2612 148.349 26.4375C148.115 26.6138 148.057 26.9662 148.057 27.3775C148.057 27.8475 148.115 28.2 148.349 28.3762C148.583 28.6112 148.991 28.67 149.517 28.67H152.963C153.489 28.67 153.897 28.6112 154.131 28.3762ZM148.583 22.3837H145.253L146.947 17.4487L148.583 22.3837ZM110.386 22.3837H107.057L108.75 17.4487L110.386 22.3837ZM57.4706 22.3837H54.1415L55.8353 17.4487L57.4706 22.3837Z" fill="white"/>
</svg>
