<svg width="12" height="16" viewBox="0 0 12 16" fill="none" xmlns="http://www.w3.org/2000/svg">
<path d="M11.8398 3.8436L8.17159 0.160863C8.06932 0.0581845 7.93125 0 7.78636 0H0.545455C0.24375 0 0 0.244717 0 0.547619V14.7857C0 15.0886 0.24375 15.3333 0.545455 15.3333H11.4545C11.7563 15.3333 12 15.0886 12 14.7857V4.23207C12 4.08661 11.942 3.94628 11.8398 3.8436ZM10.742 4.48363H7.53409V1.26295L10.742 4.48363ZM10.7727 14.1012H1.22727V1.23214H6.375V4.92857C6.375 5.1192 6.45043 5.30201 6.58469 5.4368C6.71894 5.5716 6.90104 5.64732 7.09091 5.64732H10.7727V14.1012ZM6.0358 8.83207L4.98239 7.07969C4.94489 7.01808 4.87841 6.98043 4.80682 6.98043H4.15227C4.11307 6.98043 4.07557 6.9907 4.04318 7.01295C3.94773 7.07284 3.91875 7.19948 3.98011 7.29702L5.38295 9.52857L3.96136 11.8012C3.94205 11.8324 3.93138 11.8681 3.93046 11.9048C3.92954 11.9415 3.9384 11.9778 3.95613 12.0099C3.97386 12.042 3.99981 12.0688 4.03129 12.0875C4.06278 12.1061 4.09866 12.116 4.13523 12.1161H4.7233C4.79489 12.1161 4.85966 12.0784 4.89716 12.0185L5.96591 10.2815L7.02784 12.0168C7.06534 12.0784 7.13182 12.1144 7.2017 12.1144H7.84091C7.88011 12.1144 7.91761 12.1024 7.9517 12.0818C8.04716 12.0202 8.07443 11.8936 8.01307 11.7978L6.58125 9.56622L8.03523 7.29874C8.05491 7.26766 8.06594 7.23185 8.06716 7.19504C8.06838 7.15824 8.05975 7.12177 8.04217 7.08945C8.0246 7.05713 7.99871 7.03012 7.96721 7.01125C7.93571 6.99238 7.89975 6.98233 7.86307 6.98214H7.25455C7.18295 6.98214 7.11648 7.01979 7.07898 7.0814L6.0358 8.83207Z" fill="#151515"/>
</svg>
