<svg width="20" height="20" viewBox="0 0 20 20" fill="none" xmlns="http://www.w3.org/2000/svg">
<path d="M10 0C4.48644 0 0 4.48519 0 9.99938C0 15.5136 4.48644 19.9988 10 19.9988C15.5136 19.9988 20 15.5136 20 9.99938C20 4.48519 15.5136 0 10 0ZM10 19.3327C4.85376 19.3327 0.66729 15.1456 0.66729 9.99938C0.66729 4.85313 4.85376 0.666043 10 0.666043C15.1462 0.666043 19.3327 4.85313 19.3327 9.99938C19.3327 15.1456 15.1462 19.3327 10 19.3327Z" fill="black"/>
<path d="M12.1823 4.38723H10.5184C8.39928 4.36602 8.12862 5.67753 8.12862 7.09692V8.12904H7.19317C7.15089 8.12339 7.10787 8.12757 7.06747 8.14124C7.02706 8.15492 6.99035 8.17772 6.96019 8.20788C6.93003 8.23804 6.90722 8.27475 6.89355 8.31516C6.87988 8.35557 6.8757 8.39858 6.88135 8.44086V10.3118C6.8757 10.354 6.87988 10.3971 6.89355 10.4375C6.90722 10.4779 6.93003 10.5146 6.96019 10.5447C6.99035 10.5749 7.02706 10.5977 7.06747 10.6114C7.10787 10.6251 7.15089 10.6292 7.19317 10.6236H8.12862V15.3009C8.12342 15.3432 8.12798 15.3862 8.14193 15.4265C8.15589 15.4669 8.17888 15.5035 8.20914 15.5335C8.23941 15.5636 8.27615 15.5864 8.31656 15.6001C8.35697 15.6138 8.39998 15.6181 8.44231 15.6127H10.3475C10.5315 15.6339 10.6805 15.4848 10.6219 15.3009L10.6232 10.6236H12.1823C12.2245 10.6292 12.2675 10.6251 12.308 10.6114C12.3484 10.5977 12.3851 10.5749 12.4152 10.5447C12.4454 10.5146 12.4682 10.4779 12.4819 10.4375C12.4955 10.3971 12.4997 10.354 12.4941 10.3118V8.44086C12.4997 8.39858 12.4955 8.35557 12.4819 8.31516C12.4682 8.27475 12.4454 8.23804 12.4152 8.20788C12.3851 8.17772 12.3484 8.15492 12.308 8.14124C12.2675 8.12757 12.2245 8.12339 12.1823 8.12904H10.6213L10.6232 7.19359C10.6837 6.79508 10.6837 6.85994 11.0535 6.88177H12.1692C12.2558 6.86244 12.3481 6.87304 12.413 6.81005C12.4779 6.74706 12.5153 6.661 12.4934 6.56995V4.69904C12.4992 4.6568 12.4951 4.61379 12.4815 4.57338C12.4679 4.53297 12.4452 4.49624 12.4151 4.46606C12.385 4.43588 12.3483 4.41307 12.3079 4.39939C12.2675 4.38572 12.2245 4.38155 12.1823 4.38723ZM11.8486 6.22321L11.0666 6.19328C10.0981 6.19328 10.017 6.719 10.017 7.2572L10.0145 8.43961C10.0144 8.4834 10.023 8.52677 10.0397 8.56725C10.0564 8.60772 10.0809 8.64451 10.1118 8.6755C10.1427 8.70649 10.1795 8.73107 10.2199 8.74785C10.2604 8.76462 10.3037 8.77326 10.3475 8.77326H11.8704V9.97812H10.3488C10.2604 9.97812 10.1756 10.0132 10.1131 10.0756C10.0505 10.1381 10.0153 10.2228 10.0151 10.3111L10.0145 14.989H8.75226V10.3118C8.75226 10.1278 8.62691 9.97875 8.44231 9.97875H7.50499V8.77388H8.44231C8.48607 8.77395 8.52941 8.76539 8.56986 8.7487C8.61031 8.732 8.64707 8.7075 8.67804 8.67659C8.74041 8.61361 8.75163 8.52879 8.75163 8.44024V7.0963C8.75163 5.69811 9.03414 5.03207 10.5178 5.03207H11.848V6.22321H11.8486Z" fill="black"/>
</svg>
