<svg width="20" height="20" viewBox="0 0 20 20" fill="none" xmlns="http://www.w3.org/2000/svg">
<path d="M8.6955 6.937V8.314H7.6875V9.997H8.6955V15H10.7675V9.997H12.1575C12.1575 9.997 12.2885 9.19 12.3515 8.307H10.7755V7.157C10.7755 6.984 11.0015 6.753 11.2255 6.753H12.3535V5H10.8185C8.6445 5 8.6955 6.685 8.6955 6.937Z" fill="black"/>
<path d="M10.001 18C12.1227 18 14.1575 17.1571 15.6578 15.6569C17.1581 14.1566 18.001 12.1217 18.001 10C18.001 7.87827 17.1581 5.84344 15.6578 4.34315C14.1575 2.84285 12.1227 2 10.001 2C7.87924 2 5.84441 2.84285 4.34412 4.34315C2.84383 5.84344 2.00098 7.87827 2.00098 10C2.00098 12.1217 2.84383 14.1566 4.34412 15.6569C5.84441 17.1571 7.87924 18 10.001 18ZM10.001 20C4.47798 20 0.000976562 15.523 0.000976562 10C0.000976562 4.477 4.47798 0 10.001 0C15.524 0 20.001 4.477 20.001 10C20.001 15.523 15.524 20 10.001 20Z" fill="black"/>
</svg>
