<svg width="84" height="84" viewBox="0 0 84 84" fill="none" xmlns="http://www.w3.org/2000/svg">
<path d="M69.125 40.2491C69.7593 40.2491 70.3722 40.4788 70.8503 40.8957C71.3283 41.3127 71.6392 41.8886 71.7255 42.5171L71.75 42.8741V60.3741C71.75 64.6518 70.101 68.7649 67.1461 71.858C64.1912 74.9511 60.1577 76.7861 55.8845 76.9816L55.125 76.9991H28.875C25.445 76.9991 22.5295 74.8081 21.448 71.7491H55.125L55.769 71.7316C58.5578 71.5728 61.1906 70.3934 63.1657 68.4183C65.1409 66.4431 66.3202 63.8103 66.479 61.0216L66.5 60.3741V42.8741C66.5 42.1779 66.7766 41.5102 67.2688 41.0179C67.7611 40.5256 68.4288 40.2491 69.125 40.2491ZM60.375 33.2491C61.0093 33.2491 61.6222 33.4788 62.1003 33.8957C62.5783 34.3127 62.8892 34.8886 62.9755 35.5171L63 35.8741V60.3741C63.0002 62.3695 62.243 64.2906 60.8812 65.7492C59.5194 67.2078 57.6548 68.095 55.664 68.2316L55.125 68.2491H20.125C18.1296 68.2493 16.2084 67.492 14.7499 66.1303C13.2913 64.7685 12.4041 62.9038 12.2675 60.9131L12.25 60.3741V35.8741C12.2502 35.209 12.5029 34.5688 12.9569 34.0828C13.411 33.5968 14.0325 33.3013 14.6961 33.256C15.3596 33.2106 16.0156 33.4189 16.5315 33.8386C17.0475 34.2583 17.3848 34.8582 17.4755 35.5171L17.5 35.8741V60.3741C17.5 61.7041 18.487 62.8031 19.768 62.9746L20.125 62.9991H55.125C55.7593 62.999 56.3722 62.7693 56.8503 62.3524C57.3283 61.9354 57.6392 61.3595 57.7255 60.7311L57.75 60.3741V35.8741C57.75 35.1779 58.0266 34.5102 58.5188 34.0179C59.0111 33.5256 59.6788 33.2491 60.375 33.2491ZM21.763 21.7551L35.756 7.76906C36.2005 7.3245 36.7897 7.0542 37.4166 7.00732C38.0435 6.96043 38.6664 7.14006 39.172 7.51356L39.466 7.76556L53.48 21.7551C53.9509 22.2229 54.2271 22.8517 54.253 23.5149C54.2789 24.1782 54.0525 24.8266 53.6195 25.3297C53.1866 25.8328 52.5791 26.1531 51.9193 26.2263C51.2596 26.2995 50.5967 26.12 50.064 25.7241L49.77 25.4686L40.25 15.9696V49.8916C40.25 50.5259 40.0203 51.1388 39.6033 51.6168C39.1864 52.0949 38.6104 52.4058 37.982 52.4921L37.625 52.5166C36.9907 52.5165 36.3778 52.2868 35.8997 51.8699C35.4217 51.4529 35.1108 50.877 35.0245 50.2486L35 49.8916V15.9451L25.4765 25.4686C25.0314 25.9135 24.4412 26.1837 23.8136 26.23C23.1859 26.2763 22.5625 26.0955 22.057 25.7206L21.763 25.4686C21.318 25.0235 21.0478 24.4333 21.0016 23.8056C20.9553 23.178 21.1361 22.5546 21.511 22.0491L21.763 21.7551L35.756 7.76906L21.763 21.7551Z" fill="#454545"/>
</svg>
