<svg width="17" height="16" viewBox="0 0 17 16" fill="none" xmlns="http://www.w3.org/2000/svg">
<path d="M11.1009 8.23667C11.1009 8.87692 10.8466 9.49094 10.3939 9.94366C9.94114 10.3964 9.32711 10.6507 8.68687 10.6507C8.04662 10.6507 7.4326 10.3964 6.97988 9.94366C6.52716 9.49094 6.27282 8.87692 6.27282 8.23667C6.27282 8.09907 6.2873 7.96469 6.31225 7.83433H5.46814V11.0506C5.46814 11.2743 5.64919 11.4554 5.87289 11.4554H11.5016C11.6089 11.4552 11.7116 11.4125 11.7873 11.3366C11.8631 11.2607 11.9056 11.1579 11.9056 11.0506V7.83433H11.0615C11.0864 7.96469 11.1009 8.09907 11.1009 8.23667V8.23667ZM8.68687 9.84604C8.89827 9.84598 9.10758 9.80429 9.30287 9.72335C9.49815 9.6424 9.67558 9.52378 9.82503 9.37426C9.97447 9.22474 10.093 9.04726 10.1739 8.85193C10.2547 8.6566 10.2963 8.44726 10.2962 8.23587C10.2962 8.02447 10.2545 7.81515 10.1735 7.61987C10.0926 7.42458 9.97398 7.24715 9.82446 7.09771C9.67494 6.94826 9.49745 6.82973 9.30212 6.74888C9.1068 6.66803 8.89746 6.62645 8.68606 6.6265C8.25913 6.62661 7.84972 6.79631 7.5479 7.09828C7.24609 7.40024 7.07659 7.80974 7.0767 8.23667C7.0768 8.66361 7.24651 9.07302 7.54847 9.37483C7.85044 9.67665 8.25993 9.84614 8.68687 9.84604V9.84604ZM10.6181 6.54684H11.5829C11.647 6.54684 11.7085 6.52143 11.7539 6.47618C11.7993 6.43093 11.8249 6.36953 11.8251 6.30543V5.34062C11.8251 5.27638 11.7996 5.21477 11.7542 5.16935C11.7088 5.12393 11.6472 5.09841 11.5829 5.09841H10.6181C10.5539 5.09841 10.4923 5.12393 10.4468 5.16935C10.4014 5.21477 10.3759 5.27638 10.3759 5.34062V6.30543C10.3767 6.43821 10.4853 6.54684 10.6181 6.54684V6.54684ZM8.68687 0.511719C6.63808 0.511719 4.67321 1.3256 3.2245 2.7743C1.77579 4.22301 0.961914 6.18789 0.961914 8.23667C0.961914 10.2855 1.77579 12.2503 3.2245 13.699C4.67321 15.1477 6.63808 15.9616 8.68687 15.9616C9.70132 15.9616 10.7058 15.7618 11.6431 15.3736C12.5803 14.9854 13.4319 14.4164 14.1492 13.699C14.8666 12.9817 15.4356 12.1301 15.8238 11.1929C16.212 10.2556 16.4118 9.25113 16.4118 8.23667C16.4118 7.22222 16.212 6.21769 15.8238 5.28046C15.4356 4.34323 14.8666 3.49163 14.1492 2.7743C13.4319 2.05698 12.5803 1.48796 11.6431 1.09975C10.7058 0.711531 9.70132 0.511719 8.68687 0.511719V0.511719ZM12.7103 11.3661C12.7103 11.8577 12.3079 12.2601 11.8163 12.2601H5.55746C5.0658 12.2601 4.66345 11.8577 4.66345 11.3661V5.10726C4.66345 4.6156 5.0658 4.21326 5.55746 4.21326H11.8163C12.3079 4.21326 12.7103 4.6156 12.7103 5.10726V11.3661V11.3661Z" fill="#00A386"/>
</svg>
