<svg width="16" height="16" viewBox="0 0 16 16" fill="none" xmlns="http://www.w3.org/2000/svg">
<path d="M8.21714 0.511719C3.95071 0.511719 0.492188 3.97024 0.492188 8.23667C0.492188 12.5031 3.95071 15.9616 8.21714 15.9616C12.4836 15.9616 15.9421 12.5031 15.9421 8.23667C15.9421 3.97024 12.4836 0.511719 8.21714 0.511719ZM6.32614 11.4385H4.76183V6.40441H6.32614V11.4385ZM5.53433 5.78641C5.04025 5.78641 4.72079 5.43638 4.72079 5.00346C4.72079 4.56169 5.04991 4.22211 5.55445 4.22211C6.05898 4.22211 6.36798 4.56169 6.37764 5.00346C6.37764 5.43638 6.05898 5.78641 5.53433 5.78641ZM12.0394 11.4385H10.4751V8.64867C10.4751 7.99929 10.2482 7.55832 9.68247 7.55832C9.25035 7.55832 8.99366 7.85686 8.8802 8.14413C8.83836 8.24633 8.8279 8.39117 8.8279 8.53521V11.4377H7.26279V8.00975C7.26279 7.38129 7.24267 6.85584 7.22175 6.4036H8.58086L8.65247 7.10287H8.68386C8.88986 6.77456 9.39439 6.29014 10.2385 6.29014C11.2677 6.29014 12.0394 6.97976 12.0394 8.46198V11.4385Z" fill="#00A386"/>
</svg>
