<svg width="269" height="269" viewBox="0 0 269 269" fill="none" xmlns="http://www.w3.org/2000/svg">
<g clip-path="url(#clip0_708_11051)">
<path d="M0 269H269V0H0V269Z" fill="white"/>
<path d="M14.3621 233.082H255.189" stroke="#D4A992" stroke-width="2.4243" stroke-linecap="round" stroke-linejoin="round"/>
<path d="M250.027 163.718C250.027 101.634 199.698 51.3047 137.613 51.3047C75.5287 51.3047 25.1998 101.634 25.1998 163.718C25.1998 189.782 34.0728 213.772 48.9594 232.839H226.267C241.154 213.772 250.027 189.782 250.027 163.718Z" fill="#F8E8DF"/>
<path d="M144.035 30.0478C143.613 36.3428 138.169 41.1045 131.874 40.683C125.578 40.2614 120.817 34.8173 121.238 28.5221C121.66 22.2267 127.105 17.4655 133.4 17.887C139.695 18.3085 144.456 23.7528 144.035 30.0478Z" fill="#F1CF56"/>
<path d="M129.972 25.9191C129.972 25.9191 129.755 24.7855 128.362 24.6951C127.047 24.6098 126.604 25.6934 126.604 25.6934" stroke="black" stroke-width="3.52303" stroke-linecap="round" stroke-linejoin="round"/>
<path d="M138.371 26.4816C138.371 26.4816 138.154 25.3478 136.762 25.2576C135.447 25.1723 135.004 26.2559 135.004 26.2559" stroke="black" stroke-width="3.52303" stroke-linecap="round" stroke-linejoin="round"/>
<path d="M129.149 31.1211C129.149 31.1211 132.072 33.207 135.378 31.5385" stroke="black" stroke-width="3.52303" stroke-linecap="round" stroke-linejoin="round"/>
<path d="M208.51 45.007C208.598 49.6359 204.916 53.4602 200.287 53.5483C195.658 53.6363 191.834 49.9547 191.746 45.3258C191.658 40.6969 195.34 36.8726 199.968 36.7847C204.598 36.6965 208.422 40.3776 208.51 45.007Z" fill="#F1CF56"/>
<path d="M197.969 42.8715C197.969 42.8715 197.739 42.0566 196.715 42.0778C195.748 42.098 195.492 42.9186 195.492 42.9186" stroke="black" stroke-width="2.58513" stroke-linecap="round" stroke-linejoin="round"/>
<path d="M204.144 42.7543C204.144 42.7543 203.914 41.9394 202.89 41.9606C201.923 41.9808 201.668 42.8014 201.668 42.8014" stroke="black" stroke-width="2.58513" stroke-linecap="round" stroke-linejoin="round"/>
<path d="M197.693 46.7266C197.693 46.7266 199.961 48.0677 202.273 46.6395" stroke="black" stroke-width="2.58513" stroke-linecap="round" stroke-linejoin="round"/>
<path d="M256.132 155.551C256.132 159.505 252.927 162.711 248.972 162.711C245.017 162.711 241.811 159.505 241.811 155.551C241.811 151.596 245.017 148.391 248.972 148.391C252.927 148.391 256.132 151.596 256.132 155.551Z" fill="#FF7900"/>
<path d="M251.407 153.709C250.819 153.135 249.88 153.145 249.306 153.731L248.928 154.118L248.538 153.735C247.955 153.159 247.013 153.167 246.438 153.751C245.863 154.336 245.869 155.276 246.454 155.852L247.899 157.275C247.902 157.278 247.905 157.281 247.908 157.284C248.138 157.51 248.423 157.645 248.719 157.691C249.177 157.76 249.66 157.617 250.007 157.262L251.429 155.811C252.002 155.225 251.993 154.283 251.407 153.709Z" fill="white"/>
<path d="M29.9813 118.899C29.9813 125.487 24.6418 130.827 18.0549 130.827C11.4671 130.827 6.12666 125.487 6.12666 118.899C6.12666 112.311 11.4671 106.973 18.0549 106.973C24.6418 106.973 29.9813 112.311 29.9813 118.899Z" fill="#FF7900"/>
<path d="M22.1096 115.832C21.1318 114.875 19.5659 114.892 18.61 115.869L17.9797 116.512L17.3311 115.874C16.3586 114.915 14.7926 114.927 13.8333 115.9C12.8748 116.874 12.8862 118.44 13.8604 119.4L16.2676 121.769C16.2728 121.775 16.2755 121.781 16.2807 121.786C16.665 122.162 17.1394 122.387 17.6331 122.463C18.3947 122.58 19.2 122.341 19.7794 121.749L22.1472 119.331C23.1031 118.355 23.0865 116.789 22.1096 115.832Z" fill="white"/>
<path d="M252.394 86.7084H237.959C236.031 86.7084 234.469 85.1463 234.469 83.2194C234.469 81.2925 236.031 79.7305 237.959 79.7305H252.394C254.321 79.7305 255.883 81.2925 255.883 83.2194C255.883 85.1463 254.321 86.7084 252.394 86.7084Z" fill="#FF7900"/>
<path d="M242.238 83.2296C242.24 83.7226 241.842 84.1233 241.349 84.125C240.855 84.1267 240.454 83.7283 240.453 83.2353C240.452 82.7423 240.85 82.341 241.343 82.3398C241.836 82.3381 242.237 82.7366 242.238 83.2296Z" fill="white"/>
<path d="M246.068 83.2179C246.07 83.7108 245.671 84.1122 245.178 84.1133C244.685 84.115 244.284 83.7165 244.282 83.2236C244.281 82.7306 244.679 82.3293 245.172 82.3281C245.665 82.3264 246.066 82.7249 246.068 83.2179Z" fill="white"/>
<path d="M249.896 83.2062C249.898 83.6991 249.5 84.1005 249.007 84.1016C248.513 84.1033 248.112 83.7048 248.111 83.2118C248.11 82.7189 248.509 82.3176 249.001 82.3164C249.494 82.3147 249.895 82.7132 249.896 83.2062Z" fill="white"/>
<path d="M55.6289 63.7118H27.4445C26.8126 63.7118 26.2997 63.1995 26.2997 62.5676V52.8356C26.2997 52.2037 26.8126 51.6914 27.4445 51.6914H55.6289C56.2607 51.6914 56.7731 52.2037 56.7731 52.8356V62.5676C56.7731 63.1995 56.2607 63.7118 55.6289 63.7118Z" fill="#FF7900"/>
<path d="M50.882 62.4023V66.6057C50.882 66.7293 50.7391 66.7987 50.6423 66.7213L45.2099 62.4023H50.882Z" fill="#FF7900"/>
<path d="M31.7914 55.8164C31.7914 55.8164 32.7609 55.8164 34.2392 55.8164" stroke="#FAF9FF" stroke-width="2.58006" stroke-linecap="round" stroke-linejoin="round"/>
<path d="M31.7914 59.0391H38.3925" stroke="#FAF9FF" stroke-width="2.58006" stroke-linecap="round" stroke-linejoin="round"/>
<path d="M179.201 25.3018C179.201 26.832 177.961 28.0724 176.431 28.0724C174.901 28.0724 173.661 26.832 173.661 25.3018C173.661 23.7717 174.901 22.5312 176.431 22.5312C177.961 22.5312 179.201 23.7717 179.201 25.3018Z" stroke="#FAF9FF" stroke-width="3.20645" stroke-linecap="round" stroke-linejoin="round"/>
<path d="M15.7959 188.657C15.7959 190.187 14.5549 191.428 13.0248 191.428C11.4946 191.428 10.2548 190.187 10.2548 188.657C10.2548 187.127 11.4946 185.887 13.0248 185.887C14.5549 185.887 15.7959 187.127 15.7959 188.657Z" stroke="#FAF9FF" stroke-width="3.20645" stroke-linecap="round" stroke-linejoin="round"/>
<path d="M260.748 199.641C260.748 201.171 259.508 202.412 257.978 202.412C256.448 202.412 255.208 201.171 255.208 199.641C255.208 198.111 256.448 196.871 257.978 196.871C259.508 196.871 260.748 198.111 260.748 199.641Z" stroke="#FAF9FF" stroke-width="3.20645" stroke-linecap="round" stroke-linejoin="round"/>
<path d="M56.8594 32.5547H94.3545" stroke="#FAF9FF" stroke-width="3.20645" stroke-linecap="round" stroke-linejoin="round"/>
<path d="M221.827 63.5078H240.43" stroke="#FAF9FF" stroke-width="3.20645" stroke-linecap="round" stroke-linejoin="round"/>
<path d="M17.9939 86.9688H30.858" stroke="#FAF9FF" stroke-width="3.20645" stroke-linecap="round" stroke-linejoin="round"/>
<path d="M50.2234 122.477L47.4102 139.103C47.0612 141.565 48.8145 143.829 51.2857 144.109C53.5245 144.362 55.5949 142.888 56.089 140.69L59.6059 124.774L50.2234 122.477Z" fill="#E6B89A"/>
<path d="M46.7949 125.705L49.1585 115.674C49.6258 112.316 53.1552 109.892 56.5371 110.125C60.1553 110.374 62.5758 113.442 62.2371 117.053L60.8822 126.897L46.7949 125.705Z" fill="white"/>
<path d="M55.2452 136.979C57.0799 138.871 56.7127 142.07 54.4494 143.42L38.7966 155.39L33.786 152.692L49.5088 135.876C51.1545 134.599 53.7953 135.483 55.2452 136.979Z" fill="#E6B89A"/>
<path d="M40.9664 156.926C41.9404 154.226 40.5406 151.248 37.8412 150.274C35.1413 149.3 32.1623 150.701 31.1889 153.401C30.2149 156.101 31.6147 159.078 34.3141 160.051C37.0147 161.025 39.993 159.626 40.9664 156.926Z" fill="#E6B89A"/>
<path d="M31.3229 157.253C31.3229 157.253 28.956 157.142 29.6818 154.514C30.4076 151.885 32.7979 148.892 37.8409 150.276L31.3229 157.253Z" fill="#E6B89A"/>
<path d="M39.1081 106.187C39.8629 108.958 42.0301 117.054 42.6648 119.428C42.7673 119.811 43.1305 120.063 43.5255 120.027L50.4471 119.391C50.9577 119.343 51.2993 118.842 51.1552 118.351L47.29 105.141C47.1801 104.767 46.8215 104.522 46.4333 104.558L39.8202 105.166C39.3159 105.212 38.9749 105.698 39.1081 106.187Z" fill="#332C2F"/>
<path d="M80.2875 228.123L80.3495 216.325L73.917 215.996L73.8452 228.692L80.0495 228.731L80.2875 228.123Z" fill="#E6B89A"/>
<path d="M73.4658 226.134C73.4658 226.134 78.5475 228.224 80.9344 224.93L93.2798 231.285L71.8907 231.16L73.4658 226.134Z" fill="#161F3C"/>
<path d="M93.2672 233.082L71.878 232.956L71.8917 231.16L93.2797 231.286L93.2672 233.082Z" fill="white"/>
<path d="M44.4099 228.123L46.6807 216.325L53.1138 215.996L50.8527 228.692L44.6479 228.731L44.4099 228.123Z" fill="#E6B89A"/>
<path d="M52.0087 226.134C52.0087 226.134 46.9276 228.224 44.5401 224.93L32.1953 231.285L53.5833 231.16L52.0087 226.134Z" fill="#161F3C"/>
<path d="M32.2087 233.082L53.5968 232.956L53.5842 231.16L32.1962 231.286L32.2087 233.082Z" fill="white"/>
<path d="M82.814 139.965L82.0182 219.059L70.5022 219.548L69.4952 157.054L67.8033 157.024L55.3959 219.548L44.4349 218.687C44.4349 218.687 52.6811 160.55 53.8418 156.004L56.5873 139.965H82.814Z" fill="#00CCA7"/>
<path d="M82.137 213.648L70.4412 213.876" stroke="#313066" stroke-width="1.61677" stroke-miterlimit="10"/>
<path d="M56.7172 213.876L45.2672 212.844" stroke="#313066" stroke-width="1.61677" stroke-miterlimit="10"/>
<path d="M62.7352 157.035H71.126" stroke="#313066" stroke-width="1.61677" stroke-miterlimit="10"/>
<path d="M60.5121 108.054L54.0271 110.422L54.3408 148.712L83.3227 148.778L86.0636 117.197L82.7278 109.953L74.3119 107.023L60.5121 108.054Z" fill="white"/>
<path d="M71.2109 138.318C69.4554 140.283 66.325 140.097 64.8148 137.936L48.792 122.272L52.1813 118.203L71.1694 130.533C72.5618 132.083 72.5988 136.764 71.2109 138.318Z" fill="#E6B89A"/>
<path d="M46.6462 114.534C46.6462 114.534 47.4802 111.74 50.154 112.275C52.8277 112.81 55.0928 115.404 54.0755 120.533L46.6462 114.534Z" fill="#E6B89A"/>
<path d="M47.3981 123.517C50.1612 124.294 53.2978 123.298 54.0748 120.535C54.8513 117.772 53.2414 114.903 50.4783 114.126C47.7151 113.349 44.2785 114.042 43.5015 116.805C42.725 119.568 44.6349 122.74 47.3981 123.517Z" fill="#E6B89A"/>
<path d="M72.2987 118.98L64.9667 132.99C63.5202 135.013 64.0291 137.831 66.0921 139.22C67.9604 140.479 70.4776 140.128 71.9315 138.407L80.7732 125.373L72.2987 118.98Z" fill="#E6B89A"/>
<path d="M69.1233 121.072L75.5359 112.392C77.5016 109.63 81.2694 108.859 84.1613 110.628C87.2557 112.521 87.4658 118.203 84.9127 121.738L81.4732 129.009L69.1233 121.072Z" fill="white"/>
<path d="M70.6035 122.022L74.6827 114.059" stroke="#313066" stroke-width="1.61677" stroke-miterlimit="10"/>
<path d="M79.2669 127.592L81.4728 129.011L84.5553 123.449" stroke="#313066" stroke-width="1.61677" stroke-miterlimit="10"/>
<path d="M64.0558 99.9025L63.786 106.752C63.6864 109.156 65.0691 110.496 67.3632 110.563C69.3214 110.62 71.5085 109.756 71.5062 107.632L71.4282 96.8359L64.0558 99.9025Z" fill="#E6B89A"/>
<path d="M63.8514 105.824L70.6039 101.36L64.0204 100.844L63.8514 105.824Z" fill="#D1977A"/>
<path d="M62.4519 93.4613C62.4952 95.045 61.2861 96.3679 59.752 96.4163C58.2178 96.4653 56.9387 95.2203 56.896 93.6366C56.8527 92.0524 58.0618 90.7294 59.596 90.6811C61.1301 90.6327 62.4092 91.8776 62.4519 93.4613Z" fill="#D1977A"/>
<path d="M66.0324 101.981C62.1211 101.836 59.0192 98.5265 59.0352 95.2236L59.1052 88.3146C59.1251 84.1755 62.3209 80.7902 66.3285 80.6638C70.4311 80.5346 74.5684 83.8408 74.6828 88.0761L74.5633 93.4595C74.4608 98.3056 70.7254 101.833 66.0324 101.981Z" fill="#E6B89A"/>
<path d="M77.9127 93.4613C77.9548 95.0296 76.7582 96.34 75.2389 96.3879C73.7195 96.4357 72.453 95.2032 72.4103 93.6349C72.3681 92.0661 73.5653 90.7562 75.0846 90.7084C76.6034 90.66 77.87 91.893 77.9127 93.4613Z" fill="#E6B89A"/>
<path d="M74.0042 94.2592C74.0042 94.2592 74.8667 91.964 76.7298 92.4347" stroke="#332C2F" stroke-width="1.2003" stroke-linecap="round" stroke-linejoin="round"/>
<path d="M59.0482 93.796C59.0482 93.796 59.1102 96.2609 60.4565 96.6349C61.8022 97.0089 62.3231 96.3582 64.155 96.2313C66.2123 96.0878 67.2568 96.4243 69.4251 97.4717C71.2394 98.3478 73.4207 92.6928 74.1619 91.1934C74.3071 90.9002 74.6128 91.1148 74.6128 91.1148L74.1352 95.925C74.1352 95.925 73.308 102.775 65.5309 102.551C57.7543 102.327 59.0482 93.796 59.0482 93.796Z" fill="#332C2F"/>
<path d="M59.0353 86.9799H74.8674V86.3497C74.8674 82.1953 71.3232 78.8281 66.9514 78.8281C62.5795 78.8281 59.0353 82.1953 59.0353 86.3497V86.9799Z" fill="#FF7900"/>
<path d="M74.8667 86.5038C74.8667 86.5038 66.222 81.7699 57.9325 82.8361C49.6436 83.9017 59.1177 86.9803 59.1177 86.9803H74.8667V86.5038Z" fill="#FF7900"/>
<path d="M74.8671 86.9805L74.6132 91.1172L74.2995 92.5705L73.1422 86.9805H74.8671Z" fill="#332C2F"/>
<path d="M59.0802 90.6806L59.0335 86.9531L59.7417 86.9804L59.0802 90.6806Z" fill="#332C2F"/>
<path d="M64.1393 93.8789L64.0374 95.3806L65.3718 95.3783" stroke="#332C2F" stroke-width="1.2003" stroke-linecap="round" stroke-linejoin="round"/>
<path d="M62.4354 92.7387C62.432 93.1224 62.128 93.432 61.7563 93.4292C61.3846 93.4269 61.0857 93.1138 61.0891 92.7302C61.0925 92.3465 61.3965 92.0374 61.7682 92.0391C62.14 92.0419 62.4382 92.355 62.4354 92.7387Z" fill="#332C2F"/>
<path d="M68.8672 92.7733C68.8638 93.157 68.5593 93.4666 68.1875 93.4644C67.8158 93.4621 67.517 93.149 67.5204 92.7653C67.5238 92.3816 67.8278 92.072 68.1995 92.0742C68.5712 92.0765 68.8706 92.3896 68.8672 92.7733Z" fill="#332C2F"/>
<path d="M63.203 89.7539C63.203 89.7539 63.3237 90.4308 62.4186 90.4131C61.7309 90.3995 61.296 90.3818 60.8947 90.4649C60.667 90.5116 60.4313 90.4029 60.3357 90.2071C60.2588 90.05 60.2878 89.8678 60.4153 89.7443C60.6738 89.4944 61.1969 89.1266 62.0337 89.1329C63.1079 89.1409 63.203 89.7539 63.203 89.7539Z" fill="#332C2F"/>
<path d="M66.9662 89.7545C66.9662 89.7545 66.829 90.4336 67.8081 90.4069C68.5522 90.3864 69.0229 90.3636 69.4561 90.4427C69.702 90.4883 69.9582 90.3767 70.0635 90.1809C70.1489 90.0221 70.1193 89.8399 69.9821 89.7181C69.7049 89.4699 69.1425 89.1073 68.2374 89.1215C67.0749 89.1397 66.9662 89.7545 66.9662 89.7545Z" fill="#332C2F"/>
<path d="M63.4639 97.6398C63.4639 97.6398 64.9019 98.5301 66.7064 97.4258" stroke="white" stroke-width="1.2003" stroke-linecap="round" stroke-linejoin="round"/>
<path d="M65.4182 106.268L60.5118 108.051C60.5118 108.051 58.8433 111.742 66.436 111.769C74.3139 111.796 74.3122 107.021 74.3122 107.021L69.5293 105.301L65.4182 106.268Z" fill="#E6B89A"/>
<path d="M106.692 233.082H169.941C178.014 233.082 184.558 226.537 184.558 218.464V85.8288C184.558 77.7557 178.014 71.2109 169.941 71.2109H106.692C98.6187 71.2109 92.074 77.7557 92.074 85.8288V218.464C92.074 226.537 98.6187 233.082 106.692 233.082Z" fill="#FF7900"/>
<path d="M106.604 228.654H170.027C175.585 228.654 180.091 224.149 180.091 218.591V86.6297C180.091 81.0721 175.585 76.5664 170.027 76.5664H106.604C101.047 76.5664 96.5412 81.0721 96.5412 86.6297V218.591C96.5412 224.149 101.047 228.654 106.604 228.654Z" fill="#FCFBFF"/>
<path d="M122.812 81.5064H153.135C154.636 81.5064 155.853 80.2899 155.853 78.7888V74.3555H120.093V78.7888C120.093 80.2899 121.311 81.5064 122.812 81.5064Z" fill="#FF7900"/>
<path d="M164.895 85.9584H107.864C105.953 85.9584 104.403 84.4094 104.403 82.4979V65.3673C104.403 63.4558 105.953 61.9062 107.864 61.9062H164.895C166.807 61.9062 168.356 63.4558 168.356 65.3673V82.4979C168.356 84.4094 166.807 85.9584 164.895 85.9584Z" fill="#FF7900"/>
<path d="M155.683 81.0321V89.9005L165.043 80.9062L155.683 81.0321Z" fill="#FF7900"/>
<path d="M112.71 69.7656H158.069" stroke="#271445" stroke-width="1.57783" stroke-miterlimit="10"/>
<path d="M112.71 74.2812H158.069" stroke="#271445" stroke-width="1.57783" stroke-miterlimit="10"/>
<path d="M112.71 78.793H127.665" stroke="#271445" stroke-width="1.57783" stroke-miterlimit="10"/>
<path d="M164.895 160.423H107.864C105.953 160.423 104.403 158.874 104.403 156.963V139.832C104.403 137.921 105.953 136.371 107.864 136.371H164.895C166.807 136.371 168.356 137.921 168.356 139.832V156.963C168.356 158.874 166.807 160.423 164.895 160.423Z" fill="#FF7900"/>
<path d="M155.683 155.494V164.361L165.043 155.367L155.683 155.494Z" fill="#FF7900"/>
<path d="M112.71 144.23H158.069" stroke="#271445" stroke-width="1.57783" stroke-miterlimit="10"/>
<path d="M112.71 148.742H158.069" stroke="#271445" stroke-width="1.57783" stroke-miterlimit="10"/>
<path d="M112.71 153.258H127.665" stroke="#271445" stroke-width="1.57783" stroke-miterlimit="10"/>
<path d="M107.864 123.826H164.895C166.807 123.826 168.356 122.277 168.356 120.365V103.235C168.356 101.323 166.807 99.7734 164.895 99.7734H107.864C105.953 99.7734 104.403 101.323 104.403 103.235V120.365C104.403 122.277 105.953 123.826 107.864 123.826Z" fill="#00CCA7"/>
<path d="M116.508 118.9V127.768L107.147 118.773L116.508 118.9Z" fill="#00CCA7"/>
<path d="M112.71 106.852H139.66" stroke="white" stroke-width="1.57783" stroke-miterlimit="10"/>
<path d="M112.71 111.367H158.069" stroke="white" stroke-width="1.57783" stroke-miterlimit="10"/>
<path d="M112.71 115.879H121.826" stroke="white" stroke-width="1.57783" stroke-miterlimit="10"/>
<path d="M107.864 197.81H164.895C166.807 197.81 168.356 196.261 168.356 194.349V177.219C168.356 175.307 166.807 173.758 164.895 173.758H107.864C105.953 173.758 104.403 175.307 104.403 177.219V194.349C104.403 196.261 105.953 197.81 107.864 197.81Z" fill="#00CCA7"/>
<path d="M116.508 192.884V201.752L107.147 192.758L116.508 192.884Z" fill="#00CCA7"/>
<path d="M112.71 180.836H139.66" stroke="white" stroke-width="1.57783" stroke-miterlimit="10"/>
<path d="M112.71 185.348H158.069" stroke="white" stroke-width="1.57783" stroke-miterlimit="10"/>
<path d="M112.71 189.863H121.826" stroke="white" stroke-width="1.57783" stroke-miterlimit="10"/>
<path d="M164.895 234.04H107.864C105.953 234.04 104.403 232.491 104.403 230.58V213.449C104.403 211.538 105.953 209.988 107.864 209.988H164.895C166.807 209.988 168.356 211.538 168.356 213.449V230.58C168.356 232.491 166.807 234.04 164.895 234.04Z" fill="#FF7900"/>
<path d="M155.683 229.115V237.982L165.043 228.988L155.683 229.115Z" fill="#FF7900"/>
<path d="M112.71 217.848H158.069" stroke="#271445" stroke-width="1.57783" stroke-miterlimit="10"/>
<path d="M112.71 222.363H158.069" stroke="#271445" stroke-width="1.57783" stroke-miterlimit="10"/>
<path d="M112.71 226.875H127.665" stroke="#271445" stroke-width="1.57783" stroke-miterlimit="10"/>
<path d="M107.864 270.138H164.895C166.807 270.138 168.356 268.589 168.356 266.678V249.547C168.356 247.635 166.807 246.086 164.895 246.086H107.864C105.953 246.086 104.403 247.635 104.403 249.547V266.678C104.403 268.589 105.953 270.138 107.864 270.138Z" fill="#00CCA7"/>
<path d="M116.508 265.212V274.08L107.147 265.086L116.508 265.212Z" fill="#00CCA7"/>
<path d="M112.71 253.164H139.66" stroke="white" stroke-width="1.57783" stroke-miterlimit="10"/>
<path d="M112.71 257.676H158.069" stroke="white" stroke-width="1.57783" stroke-miterlimit="10"/>
<path d="M112.71 262.191H121.826" stroke="white" stroke-width="1.57783" stroke-miterlimit="10"/>
<path d="M221.234 229.505L224.74 231.235C225.111 231.418 225.337 231.839 225.222 232.237C225.131 232.551 224.834 232.841 224.053 232.855C222.32 232.885 214.648 231.69 214.648 231.69V232.495L211.088 232.093C211.088 232.093 210.839 228.022 211.923 227.426L221.234 229.505Z" fill="#332C2F"/>
<path d="M215.582 225.428L221.234 229.502C221.234 229.502 220.629 231.057 217.953 230.02C215.276 228.984 211.923 227.423 211.923 227.423L212.412 224.988L215.582 225.428Z" fill="#E6B89A"/>
<path d="M211.924 227.424L211.365 212.328L217.01 212.865L216.206 226.886L211.924 227.424Z" fill="#E6B89A"/>
<path d="M195.868 229.505L192.362 231.235C191.99 231.418 191.765 231.839 191.88 232.237C191.971 232.551 192.269 232.841 193.049 232.855C194.782 232.885 202.455 231.69 202.455 231.69V232.495L206.014 232.093C206.014 232.093 206.264 228.022 205.179 227.426L195.868 229.505Z" fill="#332C2F"/>
<path d="M201.521 225.428L195.869 229.502C195.869 229.502 196.474 231.057 199.151 230.02C201.827 228.984 205.181 227.423 205.181 227.423L204.692 224.988L201.521 225.428Z" fill="#E6B89A"/>
<path d="M205.18 227.424L205.738 212.328L200.093 212.865L200.897 226.886L205.18 227.424Z" fill="#E6B89A"/>
<path d="M215.629 135.629C215.629 135.629 219.977 137.91 221.165 148.496C222.353 159.08 218.954 219.879 218.954 219.879H210.593L209.405 153.039L207.137 219.879H198.476L195.646 157.306C195.646 157.306 194.533 142.269 200.436 135.982L215.629 135.629Z" fill="#FF7900"/>
<path d="M209.303 153.345L213.417 151.484" stroke="#313066" stroke-width="1.61677" stroke-miterlimit="10"/>
<path d="M219.16 216.32H210.526" stroke="#313066" stroke-width="1.61677" stroke-miterlimit="10"/>
<path d="M207.265 216.32H198.305" stroke="#313066" stroke-width="1.61677" stroke-miterlimit="10"/>
<path d="M222.399 119.523L226.577 134.883C227.032 136.623 225.907 138.382 224.137 138.698C222.591 138.974 220.489 137.489 220.043 135.982L216.171 123.717L222.399 119.523Z" fill="#C78D6C"/>
<path d="M217.647 111.25C217.647 111.25 221.866 111.392 224.106 118.536L225.748 126.225L213.62 128.274L217.647 111.25Z" fill="#00CCA7"/>
<path d="M234.318 118.293L220.188 133.722C219.107 135.072 220.397 137.046 221.765 138.103C223.205 139.215 225.29 138.85 226.266 137.315L236.828 121.761L234.318 118.293Z" fill="#C78D6C"/>
<path d="M233.496 126.357L237.573 120.734C237.929 120.243 238.119 119.651 238.106 119.045C238.06 116.859 237.645 111.593 234.766 110.466C231.112 109.036 229.206 112.215 230.953 115.233C232.701 118.253 232.7 119.524 232.7 119.524L230.298 122.703L233.496 126.357Z" fill="#C78D6C"/>
<path d="M211.073 109.928L217.646 111.25C217.646 111.25 220.264 118.009 218.779 124.608L215.629 135.629L200.436 135.983L195.496 117.973L195.017 112.278L204.532 109.469L211.073 109.928Z" fill="#00CCA7"/>
<path d="M217.94 127.547C217.94 127.547 219.763 122.646 218.23 117.598" stroke="#313066" stroke-width="1.61677" stroke-miterlimit="10"/>
<path d="M215.762 92.1295C215.762 97.4196 211.291 102.847 205.775 102.847C200.259 102.847 196.33 97.4196 196.33 92.1295C196.33 86.8394 200.259 83.0938 205.775 83.0938C211.291 83.0938 215.762 86.8394 215.762 92.1295Z" fill="#332C2F"/>
<path d="M211.608 97.0591C211.56 98.4702 212.665 99.6526 214.076 99.7004C215.487 99.7482 216.67 98.6433 216.718 97.2327C216.766 95.8215 215.661 94.6392 214.25 94.5913C212.839 94.5435 211.656 95.6479 211.608 97.0591Z" fill="#A96347"/>
<path d="M210.283 102.844L211.073 110.812L203.816 110.483L204.371 102.844H210.283Z" fill="#C78D6C"/>
<path d="M210.78 107.885L204.919 104.127C204.641 103.94 206.132 102.599 206.466 102.57L210.404 103.943L210.78 107.885Z" fill="#A96347"/>
<path d="M208.438 105.184C212.055 105.066 214.94 102.113 214.944 99.1554L214.909 92.1774C214.912 88.471 211.975 85.4301 208.271 85.3048C204.479 85.1762 200.636 88.1226 200.506 91.915L200.596 97.5267C200.665 101.866 204.1 105.037 208.438 105.184Z" fill="#C78D6C"/>
<path d="M211.004 98.6328L211.234 100.095L210.341 100.161" stroke="#1A2228" stroke-width="1.19692" stroke-linecap="round" stroke-linejoin="round"/>
<path d="M212.205 97.2822C212.206 97.6357 212.494 97.9214 212.847 97.9203C213.201 97.9197 213.486 97.6323 213.485 97.2788C213.484 96.9253 213.196 96.6395 212.843 96.6406C212.489 96.6418 212.204 96.9287 212.205 97.2822Z" fill="#1A2228"/>
<path d="M206.679 97.2906C206.68 97.6441 206.967 97.9298 207.321 97.9287C207.674 97.9276 207.96 97.6401 207.959 97.2871C207.958 96.9336 207.67 96.6479 207.317 96.6484C206.964 96.6496 206.678 96.9371 206.679 97.2906Z" fill="#1A2228"/>
<path d="M205.15 95.2793C205.15 95.2793 205.172 95.8241 206.212 95.5475C207.002 95.3374 207.499 95.1968 207.982 95.1427C208.255 95.1126 208.502 94.9611 208.565 94.7864C208.616 94.6452 208.506 94.4647 208.331 94.409C207.972 94.2957 207.314 94.2234 206.35 94.4716C205.113 94.7898 205.15 95.2793 205.15 95.2793Z" fill="#332C2F"/>
<path d="M214.117 94.9046C214.117 94.9046 214.046 95.4118 213.291 95.2347C212.718 95.0998 212.357 95.0076 211.999 94.9945C211.796 94.9865 211.626 94.8659 211.596 94.7087C211.571 94.5818 211.642 94.4554 211.781 94.3905C212.062 94.2579 212.595 94.09 213.295 94.2471C214.195 94.448 214.117 94.9046 214.117 94.9046Z" fill="#332C2F"/>
<path d="M211.483 101.199H207.783C207.783 101.199 208.159 102.293 209.886 102.215C211.613 102.137 211.483 101.199 211.483 101.199Z" fill="#FCFBFF"/>
<path d="M205.459 89.375C205.459 89.375 204.111 92.3841 202.254 93.8954L202.001 96.9222L197.93 93.7082L198.694 89.86L205.459 89.375Z" fill="#332C2F"/>
<path d="M197.241 97.602C197.194 99.0132 198.299 100.196 199.71 100.243C201.12 100.292 202.304 99.1863 202.352 97.7756C202.4 96.3645 201.294 95.1821 199.883 95.1343C198.472 95.0865 197.289 96.1908 197.241 97.602Z" fill="#C78D6C"/>
<path d="M200.916 98.1403C200.916 98.1403 200.587 96.2026 198.648 97.0792" stroke="#1A2228" stroke-width="1.08687" stroke-linecap="round" stroke-linejoin="round"/>
<path d="M202 110.219L210.34 115.02L212.22 110.161L209.898 109.616L204.77 109.422L202 110.219Z" fill="#C78D6C"/>
<path d="M214.164 88.2885C214.164 88.2885 209.011 95.7401 200.271 93.5109L198.693 89.8574C198.693 89.8574 207.306 80.5706 214.164 88.2885Z" fill="#332C2F"/>
<path d="M210.787 88.3049C210.787 88.3049 213.91 89.2356 214.914 93.1464C214.914 93.1464 215.887 85.8508 208.191 85.0117L210.787 88.3049Z" fill="#332C2F"/>
<path d="M198.53 87.1547C198.53 87.1547 198.969 86.9811 198.53 87.1547C193.805 89.023 192.297 86.3629 193.186 83.9754C193.315 83.6293 193.498 83.2752 193.755 82.9274C193.755 82.9274 190.503 81.8624 191.381 79.2068C191.381 79.2068 191.969 77.1842 194.995 78.2743C194.995 78.2743 194.397 76.541 195.665 75.3546C196.392 74.6744 197.487 74.49 198.413 74.8577C199.049 75.111 199.802 75.6085 200.471 76.5808C200.471 76.5808 202.042 75.1292 203.284 76.7146C204.294 78.0045 203.133 79.8387 203.133 79.8387C203.133 79.8387 205.145 79.0929 205.716 80.285C206.287 81.4764 205.477 83.0817 202.767 84.7877C200.056 86.4932 198.53 87.1547 198.53 87.1547Z" fill="#332C2F"/>
<path d="M201.449 119.97L203.575 134.189C203.744 135.979 201.886 138.972 200.087 138.998C198.517 139.021 197.181 137.86 196.984 136.302L194.627 123.103L201.449 119.97Z" fill="#C78D6C"/>
<path d="M195 112.528C195 112.528 191.622 114.079 192.607 119.65L193.387 129.607L202.965 126.957L202.846 116.321L195 112.528Z" fill="#00CCA7"/>
<path d="M202.965 126.958L202.272 119.782" stroke="#313066" stroke-width="1.61677" stroke-miterlimit="10"/>
<path d="M219.53 121.875L200.189 130.571L201.952 137.998C201.952 137.998 212.402 131.313 221.504 124.84L219.53 121.875Z" fill="#C78D6C"/>
<path d="M226.717 122.596C226.483 124.926 224.402 126.626 222.072 126.391C219.742 126.157 218.043 124.077 218.278 121.747C218.512 119.417 220.591 117.717 222.921 117.952C225.252 118.186 226.952 120.266 226.717 122.596Z" fill="#C78D6C"/>
<path d="M221.59 117.966L228.061 116.326C228.352 116.253 228.655 116.393 228.788 116.661C228.94 116.969 228.82 117.343 228.518 117.505L223.553 120.163L221.59 117.966Z" fill="#C78D6C"/>
<path d="M233.495 126.357L237.572 120.734C237.928 120.243 238.118 119.651 238.105 119.045C238.059 116.859 237.644 111.593 234.766 110.466C231.111 109.036 229.205 112.215 230.953 115.233C232.7 118.253 232.7 119.524 232.7 119.524L230.297 122.703L233.495 126.357Z" fill="#C78D6C"/>
<path d="M236.648 104.78C236.149 107.608 234.732 115.869 234.317 118.29C234.25 118.681 233.911 118.965 233.514 118.965H226.563C226.051 118.965 225.665 118.497 225.763 117.993L228.405 104.486C228.479 104.104 228.814 103.828 229.204 103.828H235.846C236.352 103.828 236.736 104.281 236.648 104.78Z" fill="#332C2F"/>
</g>
<defs>
<clipPath id="clip0_708_11051">
<rect width="269" height="269" fill="white"/>
</clipPath>
</defs>
</svg>
