<svg width="24" height="24" viewBox="0 0 24 24" fill="none" xmlns="http://www.w3.org/2000/svg">
<path d="M12.3122 8.0994C10.1958 8.12534 8.48985 9.87364 8.5158 11.99C8.54175 14.1064 10.29 15.8123 12.4064 15.7864C14.5228 15.7604 16.2287 14.0121 16.2028 11.8958C16.1768 9.77939 14.4285 8.07345 12.3122 8.0994ZM23.8869 11.8016C23.8674 10.21 23.8624 8.63259 23.7536 7.04497C23.6416 5.20073 23.2005 3.56816 21.8346 2.2353C20.4657 0.899591 18.8257 0.50155 16.9793 0.43479C15.3866 0.364919 13.8096 0.398672 12.2209 0.41815C10.6293 0.437663 9.05192 0.442582 7.46429 0.551443C5.62005 0.66345 3.98748 1.1045 2.65462 2.47044C1.31891 3.8393 0.920872 5.47928 0.854112 7.32571C0.784242 8.91841 0.817994 10.4954 0.837472 12.0841C0.856949 13.6729 0.861904 15.2531 0.970765 16.8407C1.08277 18.685 1.52382 20.3175 2.88976 21.6504C4.25863 22.9861 5.89861 23.3841 7.74504 23.4509C9.33774 23.5208 10.9147 23.487 12.5035 23.4675C14.0951 23.448 15.6724 23.4431 17.2601 23.3343C19.1043 23.2222 20.7369 22.7812 22.0697 21.4153C23.4054 20.0464 23.8035 18.4064 23.8702 16.56C23.943 14.9701 23.9064 13.3932 23.8869 11.8016ZM12.4318 17.8566C9.1592 17.8967 6.48568 15.288 6.44556 12.0154C6.40544 8.7428 9.0142 6.06928 12.2868 6.02916C15.5594 5.98904 18.2329 8.5978 18.273 11.8704C18.3131 15.143 15.7044 17.8165 12.4318 17.8566ZM18.4567 7.09261C17.6926 7.10197 17.068 6.49251 17.0586 5.72842C17.0493 4.96434 17.6587 4.33974 18.4228 4.33037C19.1869 4.321 19.8115 4.93047 19.8209 5.69456C19.8233 5.87599 19.7899 6.05612 19.7227 6.22464C19.6554 6.39316 19.5556 6.54675 19.4288 6.67662C19.3021 6.80648 19.151 6.91007 18.9842 6.98146C18.8174 7.05284 18.6381 7.09061 18.4567 7.09261Z" fill="white"/>
</svg>
