<svg width="5" height="16" viewBox="0 0 5 16" fill="none" xmlns="http://www.w3.org/2000/svg">
<path d="M2.59961 4C3.69961 4 4.59961 3.1 4.59961 2C4.59961 0.9 3.69961 0 2.59961 0C1.49961 0 0.599609 0.9 0.599609 2C0.599609 3.1 1.49961 4 2.59961 4ZM2.59961 6C1.49961 6 0.599609 6.9 0.599609 8C0.599609 9.1 1.49961 10 2.59961 10C3.69961 10 4.59961 9.1 4.59961 8C4.59961 6.9 3.69961 6 2.59961 6ZM2.59961 12C1.49961 12 0.599609 12.9 0.599609 14C0.599609 15.1 1.49961 16 2.59961 16C3.69961 16 4.59961 15.1 4.59961 14C4.59961 12.9 3.69961 12 2.59961 12Z" fill="black"/>
</svg>
