<svg width="54" height="34" viewBox="0 0 54 34" fill="none" xmlns="http://www.w3.org/2000/svg">
<path d="M1 1H53.023V32.8851H1V1Z" fill="#5C9E31"/>
<path d="M1 1H53.023V11.908H1V1Z" fill="black"/>
<path d="M1 12.3281H53.023V21.558H1V12.3281Z" fill="#D22F27" stroke="white" stroke-width="0.5" stroke-miterlimit="10"/>
<path d="M21.3477 26.7522L32.6752 7.13281L21.3477 26.7522Z" fill="white"/>
<path d="M21.3477 26.7522L32.6752 7.13281" stroke="white" stroke-linecap="round" stroke-linejoin="round"/>
<path d="M21.3477 7.13281L32.6752 26.7522L21.3477 7.13281Z" fill="white"/>
<path d="M21.3477 7.13281L32.6752 26.7522" stroke="white" stroke-linecap="round" stroke-linejoin="round"/>
<path d="M27.2052 7.76078C27.1455 7.72933 27.0789 7.71289 27.0114 7.71289C26.9439 7.71289 26.8773 7.72933 26.8176 7.76078C25.1936 8.67392 23.8471 10.0097 22.921 11.6263C21.9949 13.2429 21.5237 15.08 21.5574 16.9428C21.5235 18.8055 21.9945 20.6425 22.9203 22.2591C23.8461 23.8757 25.1922 25.2115 26.8159 26.1249C26.8757 26.1562 26.9422 26.1726 27.0097 26.1727H27.0131C27.0803 26.1725 27.1465 26.1561 27.2061 26.1249C28.8299 25.2116 30.1762 23.8759 31.1022 22.2593C32.0281 20.6427 32.4992 18.8055 32.4654 16.9428C32.4991 15.08 32.0279 13.2429 31.1018 11.6263C30.1757 10.0097 28.8292 8.67392 27.2052 7.76078Z" fill="#D22F27"/>
<path d="M31.7967 13.168C30.8388 14.1872 30.3248 15.545 30.3677 16.943C30.3248 18.3414 30.8391 19.6996 31.7975 20.7189C32.6888 18.2808 32.6888 15.606 31.7975 13.168H31.7967Z" fill="black"/>
<path d="M22.2252 20.718C23.1833 19.699 23.6976 18.3411 23.655 16.943C23.6979 15.545 23.1839 14.1872 22.226 13.168C21.3348 15.6058 21.3348 18.2802 22.226 20.718H22.2252Z" fill="black"/>
<path d="M27.0117 9.39062V24.4941V9.39062Z" fill="white"/>
<path d="M27.0117 9.39062V24.4941" stroke="white" stroke-linecap="round" stroke-linejoin="round"/>
<path d="M1 1H53.023V32.8851H1V1Z" stroke="black" stroke-width="0.5" stroke-linecap="round" stroke-linejoin="round"/>
</svg>
