<svg width="108" height="108" viewBox="0 0 108 108" fill="none" xmlns="http://www.w3.org/2000/svg">
<path d="M70.875 10.2305L68.661 12.6571C63.7031 18.1145 59.616 20.5546 56.214 22.151C52.812 23.744 49.9534 24.2198 47.1454 26.3697C44.1517 28.6647 39.8014 33.0657 37.9688 40.9227C34.0403 41.78 31.1648 43.2852 28.8968 45.2461C26.6558 47.1833 24.9683 49.3872 22.8892 51.7868C22.8724 51.8138 22.8994 51.8645 22.8892 51.8915C19.9058 55.3205 17.2969 59.0127 12.2344 60.9635L10.125 61.8072V97.8758H74.4626C78.1515 97.6767 80.7097 95.1218 82.2656 92.6007C83.8181 90.083 84.6787 87.356 85.1141 85.115C86.2346 79.4045 88.2765 62.9648 88.2765 62.9648L88.3845 62.651V62.3337C88.2765 60.0522 87.3382 58.115 86.1671 56.3195L89.964 45.0368L95.9782 35.9648L97.6657 33.5382L95.4484 31.5368L73.3016 12.3398L70.875 10.2305ZM71.0876 19.5117L88.6984 34.8072L84.0577 41.6585L83.7439 41.9791L83.6359 42.5056L80.5781 51.5742C78.9818 50.9161 77.3381 50.4537 75.5156 50.5212H75.303L54 50.6258H50.625V63.704C50.1525 67.3827 48.1073 68.807 45.5625 69.8228C44.7188 70.1637 44.6141 69.9781 43.875 70.1367V50.5246C43.3215 38.0135 47.7765 34.4123 51.2595 31.7495C52.2214 31.0103 55.0395 30.1565 59.0625 28.2698C62.424 26.687 66.6022 23.852 71.0876 19.5151V19.5117ZM37.3376 48.5165C37.3241 49.2826 37.0845 49.8226 37.125 50.6258V77.6258H40.5C40.5 77.6258 44.1112 77.5853 47.9891 76.043C51.8636 74.5006 56.5448 70.8893 57.375 64.5477V57.3758L75.5156 57.2712H75.6202C77.1018 57.1901 78.5551 57.6993 79.6621 58.6873C80.7691 59.6754 81.4394 61.0618 81.5265 62.543C81.513 62.597 81.3577 63.8491 81.3173 64.1258H67.5V70.8758H80.4735C80.1158 73.4847 79.7884 75.1216 79.4171 77.6258H67.5V84.3758H78.3641C77.9653 86.0087 77.3249 87.5728 76.464 89.0165C75.5426 90.5183 74.7495 91.0853 74.0407 91.1258H16.875V65.918C22.3459 63.0155 25.7479 58.8406 27.9484 56.3228C30.2299 53.7106 31.7959 51.7328 33.3281 50.4166C34.3305 49.5593 35.8999 49.07 37.3376 48.5165Z" fill="#454545"/>
</svg>
