<svg width="26" height="24" viewBox="0 0 26 24" fill="none" xmlns="http://www.w3.org/2000/svg">
<path d="M6.08522 23.019V7.48811H0.785346V23.019H6.08522ZM3.43597 5.36636C5.28412 5.36636 6.43451 4.17377 6.43451 2.68343C6.40008 1.15949 5.28419 0 3.47104 0C1.65816 0 0.472656 1.15951 0.472656 2.68343C0.472656 4.17384 1.62276 5.36636 3.40137 5.36636H3.43597ZM9.01868 23.019H14.3185V14.3458C14.3185 13.8816 14.353 13.4179 14.4929 13.0861C14.8761 12.1587 15.7481 11.1981 17.2122 11.1981C19.13 11.1981 19.8972 12.6224 19.8972 14.7102V23.0189H25.1967V14.1136C25.1967 9.34314 22.5821 7.12349 19.0951 7.12349C16.236 7.12349 14.9807 8.68008 14.2833 9.74026H14.3187V7.48779H9.0188C9.08835 8.94512 9.01868 23.019 9.01868 23.019Z" fill="white"/>
</svg>
