<svg width="14" height="9" viewBox="0 0 14 9" fill="none" xmlns="http://www.w3.org/2000/svg">
<path d="M9.61704 4.51898L13.2053 1.49122V7.51218L9.61704 4.51898ZM4.99335 5.03173L6.2534 6.09405C6.45116 6.25722 6.70901 6.35581 6.99077 6.35581H7.00068H7.0001H7.00827C7.29061 6.35581 7.54846 6.25666 7.74855 6.09235L7.7468 6.09348L9.00685 5.03116L12.8372 8.22606H1.16478L4.99335 5.03173ZM1.15952 0.773371H12.8442L7.23169 5.50765C7.16859 5.55613 7.09048 5.58248 7.01002 5.58244H7.00185H7.00243H6.99427C6.91352 5.58254 6.83515 5.55596 6.77201 5.50708L6.77259 5.50765L1.15952 0.773371ZM0.79726 1.49065L4.38491 4.51841L0.79726 7.50991V1.49065ZM13.3978 0.107649C13.2578 0.0396601 13.0933 0 12.9188 0H1.08544C0.916359 3.92266e-05 0.749603 0.0382497 0.598335 0.111615L0.604752 0.108782C0.423662 0.19553 0.271157 0.329733 0.164465 0.49623C0.0577726 0.662726 0.00114419 0.854883 0.000976562 1.05099L0.000976563 7.94731C0.00128539 8.22641 0.115579 8.49399 0.318778 8.69134C0.521978 8.8887 0.797487 8.9997 1.08486 9H12.9171C13.2045 8.9997 13.48 8.8887 13.6832 8.69134C13.8864 8.49399 14.0007 8.22641 14.001 7.94731V1.05326V1.05099C14.001 0.639094 13.7565 0.282153 13.4007 0.110482L13.3943 0.107649H13.3978Z" fill="black"/>
</svg>
