<svg width="9" height="14" viewBox="0 0 9 14" fill="none" xmlns="http://www.w3.org/2000/svg">
<path d="M1.32451 14L7.67745 14C8.02835 13.9996 8.36477 13.8629 8.6129 13.6199C8.86102 13.3769 9.00059 13.0474 9.00098 12.7037L9.00098 1.2963C9.00059 0.952613 8.86103 0.623114 8.6129 0.380093C8.36477 0.137072 8.02835 0.000377642 7.67745 1.82317e-07L1.32451 -3.73075e-07C0.973603 0.000377025 0.637182 0.137071 0.389055 0.380092C0.140929 0.623113 0.00136258 0.952612 0.000977196 1.2963L0.000976199 12.7037C0.00136153 13.0474 0.140928 13.3769 0.389054 13.6199C0.63718 13.8629 0.973602 13.9996 1.32451 14V14ZM0.530389 1.2963C0.530617 1.09008 0.614356 0.892384 0.763233 0.746571C0.912109 0.600757 1.11396 0.518741 1.32451 0.518518L7.67745 0.518519C7.88799 0.518742 8.08985 0.600758 8.23872 0.746571C8.3876 0.892385 8.47134 1.09009 8.47157 1.2963L8.47156 12.7037C8.47134 12.9099 8.3876 13.1076 8.23872 13.2534C8.08985 13.3992 7.88799 13.4813 7.67745 13.4815L1.32451 13.4815C1.11396 13.4813 0.912108 13.3992 0.763231 13.2534C0.614355 13.1076 0.530616 12.9099 0.530388 12.7037L0.530389 1.2963ZM3.97156 11.4074C3.97156 11.3049 4.00261 11.2046 4.06079 11.1193C4.11896 11.0341 4.20164 10.9676 4.29838 10.9284C4.39512 10.8891 4.50156 10.8788 4.60426 10.8989C4.70696 10.9189 4.80129 10.9682 4.87533 11.0408C4.94937 11.1133 4.99979 11.2057 5.02022 11.3062C5.04064 11.4068 5.03016 11.5111 4.99009 11.6058C4.95002 11.7006 4.88216 11.7816 4.7951 11.8385C4.70804 11.8955 4.60568 11.9259 4.50098 11.9259C4.36062 11.9258 4.22607 11.8711 4.12682 11.7739C4.02757 11.6767 3.97174 11.5449 3.97156 11.4074Z" fill="black"/>
</svg>
