<svg width="10" height="10" viewBox="0 0 10 10" fill="none" xmlns="http://www.w3.org/2000/svg">
<path d="M6.97571 10C7.38879 9.99988 7.78906 9.85661 8.10839 9.59458C8.42772 9.33255 8.64638 8.96796 8.72714 8.56286C9.07696 8.5245 9.4003 8.35837 9.63519 8.09633C9.87008 7.83429 9.99999 7.49477 10 7.14286V1.42857C10 1.04969 9.84949 0.686328 9.58158 0.418419C9.31367 0.15051 8.95031 0 8.57143 0H2.85714C2.5013 5.91085e-05 2.15829 0.132918 1.89526 0.372571C1.63222 0.612224 1.46809 0.941417 1.435 1.29571C1.03023 1.37679 0.666053 1.5956 0.404426 1.91492C0.1428 2.23423 -0.000113922 2.63433 6.81374e-08 3.04714V7.5C6.81374e-08 8.16304 0.263392 8.79893 0.732233 9.26777C1.20107 9.73661 1.83696 10 2.5 10H6.97571ZM0.714286 3.04714C0.714022 2.82536 0.782589 2.60896 0.910528 2.4278C1.03847 2.24664 1.21947 2.10964 1.42857 2.03571V7.14286C1.42857 7.52174 1.57908 7.8851 1.84699 8.15301C2.1149 8.42092 2.47826 8.57143 2.85714 8.57143H7.98571C7.91187 8.7803 7.77509 8.96114 7.59421 9.08906C7.41334 9.21698 7.19725 9.28568 6.97571 9.28571H2.5C2.0264 9.28571 1.5722 9.09758 1.23731 8.76269C0.902423 8.4278 0.714286 7.9736 0.714286 7.5V3.04714ZM4.65429 2.14286H7.5C7.59472 2.14286 7.68556 2.18048 7.75254 2.24746C7.81952 2.31444 7.85714 2.40528 7.85714 2.5V5.34571C7.85714 5.44043 7.81952 5.53127 7.75254 5.59825C7.68556 5.66523 7.59472 5.70286 7.5 5.70286C7.40528 5.70286 7.31444 5.66523 7.24746 5.59825C7.18048 5.53127 7.14286 5.44043 7.14286 5.34571V3.36214L4.18143 6.32429C4.11437 6.39135 4.02341 6.42902 3.92857 6.42902C3.83373 6.42902 3.74278 6.39135 3.67571 6.32429C3.60865 6.25722 3.57098 6.16627 3.57098 6.07143C3.57098 5.97659 3.60865 5.88563 3.67571 5.81857L6.63786 2.85714H4.65429C4.55957 2.85714 4.46873 2.81952 4.40175 2.75254C4.33477 2.68556 4.29714 2.59472 4.29714 2.5C4.29714 2.40528 4.33477 2.31444 4.40175 2.24746C4.46873 2.18048 4.55957 2.14286 4.65429 2.14286Z" fill="#00CCA7"/>
</svg>
