<svg width="396" height="458" viewBox="0 0 396 458" fill="none" xmlns="http://www.w3.org/2000/svg">
<path fill-rule="evenodd" clip-rule="evenodd" d="M390.529 96.6515C405.329 138.397 386.712 185.138 367.857 227.899C350.362 267.578 317.36 297.308 287.308 330.755C246.787 375.852 222.691 460.69 161.708 457.331C97.0823 453.772 103.804 357.743 58.4758 318.152C25.9015 289.701 -39.9209 300.741 -60.1161 263.585C-80.4847 226.11 -52.0598 179.854 -39.7901 137.358C-26.7878 92.3243 -30.695 33.8397 13.3828 9.02082C58.2529 -16.2442 109.001 24.9955 159.86 24.9412C204.332 24.8937 249.006 -4.06744 290.157 8.7254C335.76 22.9027 375.662 54.7148 390.529 96.6515Z" fill="#DAF8F7"/>
</svg>
