<svg width="27" height="27" viewBox="0 0 27 27" fill="none" xmlns="http://www.w3.org/2000/svg">
<circle cx="13.5" cy="13.5" r="13.5" fill="#00CCA7"/>
<path d="M19.8002 7.19909C19.3298 6.73132 18.6935 6.46875 18.0302 6.46875C17.3668 6.46875 16.7305 6.73132 16.2602 7.19909L9.36016 14.1091L7.60016 17.7291C7.5097 17.9197 7.46857 18.1301 7.48055 18.3407C7.49252 18.5514 7.55722 18.7557 7.6687 18.9349C7.78019 19.114 7.93488 19.2624 8.1186 19.3662C8.30231 19.47 8.50916 19.526 8.72016 19.5291C8.9111 19.529 9.0994 19.4845 9.27016 19.3991L12.8902 17.6391L18.8902 11.6391L19.7202 10.8191L19.7802 10.7591C20.2542 10.2893 20.5226 9.65064 20.5264 8.98322C20.5301 8.31581 20.2689 7.67417 19.8002 7.19909ZM18.9102 8.08909C19.0266 8.2052 19.1189 8.34314 19.1819 8.495C19.245 8.64687 19.2774 8.80967 19.2774 8.97409C19.2774 9.13851 19.245 9.30131 19.1819 9.45317C19.1189 9.60503 19.0266 9.74297 18.9102 9.85909L17.1402 8.08909C17.3675 7.85812 17.6762 7.72531 18.0002 7.71909C18.1692 7.71432 18.3374 7.74475 18.494 7.80845C18.6507 7.87214 18.7924 7.96771 18.9102 8.08909ZM8.73016 18.2691L10.2902 14.9991L12.0002 16.7091L8.73016 18.2691ZM12.8902 15.8691L11.1302 14.1091L16.2602 8.99909L18.0002 10.7391L12.8902 15.8691Z" fill="white"/>
</svg>
