<svg width="22" height="22" viewBox="0 0 22 22" fill="none" xmlns="http://www.w3.org/2000/svg">
<path fill-rule="evenodd" clip-rule="evenodd" d="M11.0015 0.847656C5.39381 0.847656 0.847656 5.39381 0.847656 11.0015C0.847656 16.6092 5.39381 21.1553 11.0015 21.1553C16.6092 21.1553 21.1553 16.6092 21.1553 11.0015C21.1553 5.39381 16.6092 0.847656 11.0015 0.847656ZM9.97873 8.17227C10.191 7.75412 10.348 7.55566 10.4781 7.45227C10.576 7.37473 10.7089 7.3092 11.0015 7.3092C11.5784 7.3092 11.9246 7.74304 11.9246 8.21196C11.9246 8.46858 11.8747 8.59596 11.7381 8.75843C11.547 8.9855 11.1935 9.2615 10.4938 9.72396L10.0784 9.9972V11.9246C10.0784 12.1694 10.1757 12.4042 10.3488 12.5773C10.5219 12.7504 10.7567 12.8477 11.0015 12.8477C11.2463 12.8477 11.4811 12.7504 11.6542 12.5773C11.8273 12.4042 11.9246 12.1694 11.9246 11.9246V10.9858C12.4249 10.6406 12.8449 10.3101 13.1495 9.94827C13.5898 9.42581 13.7707 8.86827 13.7707 8.21196C13.7707 6.85504 12.7249 5.46304 11.0015 5.46304C10.3701 5.46304 9.81166 5.6255 9.33258 6.00489C8.88581 6.35843 8.5812 6.84489 8.33196 7.33873C8.27405 7.44716 8.23838 7.56607 8.22704 7.68848C8.2157 7.81088 8.22892 7.93432 8.26594 8.05154C8.30295 8.16877 8.363 8.27742 8.44257 8.37112C8.52215 8.46482 8.61963 8.54169 8.72931 8.5972C8.83899 8.65272 8.95865 8.68577 9.08128 8.69441C9.2039 8.70305 9.32702 8.68712 9.4434 8.64753C9.55978 8.60795 9.66709 8.54552 9.75901 8.46391C9.85094 8.3823 9.92564 8.28315 9.97873 8.17227ZM11.9246 15.1553C11.9246 14.9105 11.8273 14.6757 11.6542 14.5026C11.4811 14.3295 11.2463 14.2323 11.0015 14.2323C10.7567 14.2323 10.5219 14.3295 10.3488 14.5026C10.1757 14.6757 10.0784 14.9105 10.0784 15.1553V15.6169C10.0784 15.8617 10.1757 16.0965 10.3488 16.2696C10.5219 16.4427 10.7567 16.54 11.0015 16.54C11.2463 16.54 11.4811 16.4427 11.6542 16.2696C11.8273 16.0965 11.9246 15.8617 11.9246 15.6169V15.1553Z" fill="#37A4FB"/>
</svg>
