<svg width="16" height="16" viewBox="0 0 16 16" fill="none" xmlns="http://www.w3.org/2000/svg">
<path d="M8.15073 0.511719C3.88431 0.511719 0.425781 3.97024 0.425781 8.23667C0.425781 12.5031 3.88431 15.9616 8.15073 15.9616C12.4172 15.9616 15.8757 12.5031 15.8757 8.23667C15.8757 3.97024 12.4172 0.511719 8.15073 0.511719ZM11.293 6.83974C11.2962 6.90573 11.297 6.97171 11.297 7.03609C11.297 9.04779 9.76734 11.3661 6.96866 11.3661C6.14168 11.3675 5.3319 11.1299 4.63669 10.6821C4.75497 10.6966 4.87648 10.7022 4.9996 10.7022C5.71255 10.7022 6.36836 10.46 6.88899 10.0512C6.57172 10.045 6.26429 9.93994 6.00956 9.7507C5.75483 9.56145 5.56549 9.29745 5.46792 8.99549C5.69577 9.03881 5.93049 9.02973 6.15432 8.96893C5.80995 8.8993 5.50027 8.7127 5.27778 8.44079C5.0553 8.16888 4.9337 7.82839 4.93361 7.47705V7.45854C5.13881 7.572 5.37377 7.64121 5.62323 7.64925C5.30039 7.43435 5.07185 7.10422 4.98434 6.72639C4.89684 6.34856 4.95699 5.95158 5.15249 5.61663C5.53468 6.08656 6.01129 6.47099 6.55148 6.74504C7.09167 7.01909 7.68339 7.17663 8.28833 7.20748C8.21143 6.88103 8.24453 6.53831 8.38249 6.23261C8.52045 5.92691 8.75555 5.67536 9.05123 5.51706C9.34691 5.35876 9.68661 5.30258 10.0175 5.35725C10.3484 5.41193 10.652 5.5744 10.881 5.81941C11.2215 5.75203 11.5481 5.62713 11.8466 5.45006C11.7332 5.80262 11.4955 6.10199 11.178 6.29256C11.4796 6.25623 11.7741 6.17514 12.0518 6.05196C11.8478 6.35765 11.5909 6.62444 11.293 6.83974Z" fill="#00A386"/>
</svg>
