<svg width="28" height="23" viewBox="0 0 28 23" fill="none" xmlns="http://www.w3.org/2000/svg">
<path d="M28 2.73211C26.9703 3.18123 25.8498 3.50445 24.6956 3.63034C25.8939 2.91052 26.7913 1.77332 27.2193 0.432114C26.0949 1.10847 24.863 1.58274 23.5784 1.83389C23.0415 1.25353 22.3922 0.791199 21.6708 0.47569C20.9495 0.160181 20.1716 -0.00174128 19.3857 1.41212e-05C16.2057 1.41212e-05 13.6484 2.60623 13.6484 5.80445C13.6484 6.25356 13.7022 6.70267 13.7897 7.13477C9.02824 6.883 4.78164 4.583 1.95842 1.06155C1.444 1.94996 1.17442 2.96152 1.17774 3.99099C1.17774 6.00519 2.1906 7.78122 3.73513 8.82575C2.82492 8.7895 1.93602 8.53654 1.14073 8.08743V8.15888C1.14073 10.9794 3.11261 13.3169 5.74066 13.8544C5.24721 13.984 4.7396 14.0503 4.22978 14.0518C3.85627 14.0518 3.50294 14.0144 3.14626 13.9633C3.87309 16.2633 5.98966 17.9339 8.51003 17.9883C6.53816 19.55 4.06826 20.4686 1.38637 20.4686C0.90518 20.4686 0.461002 20.4516 0 20.3972C2.54393 22.0473 5.56231 23 8.81288 23C19.3655 23 25.1398 14.1607 25.1398 6.48832C25.1398 6.23655 25.1398 5.98477 25.1229 5.733C26.2401 4.90622 27.2193 3.88211 28 2.73211Z" fill="white"/>
</svg>
