<svg width="22" height="22" viewBox="0 0 22 22" fill="none" xmlns="http://www.w3.org/2000/svg">
<path d="M12.7188 16.4992H9.28125C8.70977 16.4992 8.25 16.0394 8.25 15.4678V8.24799H4.48164C3.7168 8.24799 3.33437 7.32402 3.87578 6.78254L10.4113 0.241735C10.7336 -0.0805782 11.2621 -0.0805782 11.5844 0.241735L18.1242 6.78254C18.6656 7.32402 18.2832 8.24799 17.5184 8.24799H13.75V15.4678C13.75 16.0394 13.2902 16.4992 12.7188 16.4992ZM22 16.1554V20.9686C22 21.5402 21.5402 22 20.9688 22H1.03125C0.459766 22 0 21.5402 0 20.9686V16.1554C0 15.5838 0.459766 15.124 1.03125 15.124H6.875V15.4678C6.875 16.7957 7.95352 17.8744 9.28125 17.8744H12.7188C14.0465 17.8744 15.125 16.7957 15.125 15.4678V15.124H20.9688C21.5402 15.124 22 15.5838 22 16.1554ZM16.6719 19.9372C16.6719 19.4645 16.2852 19.0777 15.8125 19.0777C15.3398 19.0777 14.9531 19.4645 14.9531 19.9372C14.9531 20.4099 15.3398 20.7967 15.8125 20.7967C16.2852 20.7967 16.6719 20.4099 16.6719 19.9372ZM19.4219 19.9372C19.4219 19.4645 19.0352 19.0777 18.5625 19.0777C18.0898 19.0777 17.7031 19.4645 17.7031 19.9372C17.7031 20.4099 18.0898 20.7967 18.5625 20.7967C19.0352 20.7967 19.4219 20.4099 19.4219 19.9372Z" fill="white"/>
</svg>
