<svg width="24" height="25" viewBox="0 0 24 25" fill="none" xmlns="http://www.w3.org/2000/svg">
<path d="M6.40078 12.5008L11.2008 16.5008L17.6008 8.50078M12.0008 23.7008C10.53 23.7008 9.07357 23.4111 7.71473 22.8482C6.35588 22.2854 5.1212 21.4604 4.08119 20.4204C3.04117 19.3804 2.21618 18.1457 1.65333 16.7868C1.09048 15.428 0.800781 13.9716 0.800781 12.5008C0.800781 11.03 1.09048 9.57357 1.65333 8.21473C2.21618 6.85588 3.04117 5.6212 4.08119 4.58119C5.1212 3.54117 6.35588 2.71618 7.71473 2.15333C9.07357 1.59048 10.53 1.30078 12.0008 1.30078C14.9712 1.30078 17.82 2.48078 19.9204 4.58119C22.0208 6.68159 23.2008 9.53036 23.2008 12.5008C23.2008 15.4712 22.0208 18.32 19.9204 20.4204C17.82 22.5208 14.9712 23.7008 12.0008 23.7008Z" stroke="#00CCA7"/>
</svg>
