<svg width="9" height="30" viewBox="0 0 9 30" fill="none" xmlns="http://www.w3.org/2000/svg">
<path d="M4.5205 7.572C6.54032 7.572 8.17772 5.93461 8.17772 3.91479C8.17772 1.89496 6.54032 0.257568 4.5205 0.257568C2.50067 0.257568 0.863281 1.89496 0.863281 3.91479C0.863281 5.93461 2.50067 7.572 4.5205 7.572Z" fill="#272D3B"/>
<path d="M4.5205 18.9501C6.54032 18.9501 8.17772 17.1308 8.17772 14.8866C8.17772 12.6423 6.54032 10.823 4.5205 10.823C2.50067 10.823 0.863281 12.6423 0.863281 14.8866C0.863281 17.1308 2.50067 18.9501 4.5205 18.9501Z" fill="#272D3B"/>
<path d="M4.5205 22.2009C5.24383 22.2009 5.95091 22.4154 6.55234 22.8173C7.15377 23.2191 7.62252 23.7903 7.89933 24.4586C8.17613 25.1269 8.24856 25.8622 8.10744 26.5716C7.96633 27.2811 7.61801 27.9327 7.10654 28.4442C6.59507 28.9557 5.94342 29.304 5.23399 29.4451C4.52456 29.5862 3.78921 29.5138 3.12094 29.237C2.45267 28.9602 1.88149 28.4914 1.47963 27.89C1.07777 27.2886 0.863281 26.5815 0.863281 25.8581C0.863281 24.8882 1.24859 23.958 1.93446 23.2721C2.62032 22.5862 3.55054 22.2009 4.5205 22.2009V22.2009Z" fill="#272D3B"/>
</svg>
