<svg width="13" height="9" viewBox="0 0 13 9" fill="none" xmlns="http://www.w3.org/2000/svg">
<path d="M6.5 6.125C7.39746 6.125 8.125 5.39746 8.125 4.5C8.125 3.60254 7.39746 2.875 6.5 2.875C5.60254 2.875 4.875 3.60254 4.875 4.5C4.875 5.39746 5.60254 6.125 6.5 6.125Z" fill="#00CCA7"/>
<path d="M12.5692 4.36188C12.0914 3.12592 11.2619 2.05706 10.1832 1.28741C9.10454 0.517757 7.82399 0.0810453 6.49983 0.03125C5.17566 0.0810453 3.89511 0.517757 2.81644 1.28741C1.73777 2.05706 0.908268 3.12592 0.430452 4.36188C0.398183 4.45113 0.398183 4.54887 0.430452 4.63812C0.908268 5.87408 1.73777 6.94294 2.81644 7.71259C3.89511 8.48224 5.17566 8.91895 6.49983 8.96875C7.82399 8.91895 9.10454 8.48224 10.1832 7.71259C11.2619 6.94294 12.0914 5.87408 12.5692 4.63812C12.6015 4.54887 12.6015 4.45113 12.5692 4.36188ZM6.49983 7.14062C5.97756 7.14062 5.46702 6.98575 5.03277 6.6956C4.59853 6.40544 4.26007 5.99303 4.06021 5.51052C3.86035 5.02801 3.80805 4.49707 3.90994 3.98484C4.01183 3.47261 4.26333 3.00209 4.63262 2.6328C5.00192 2.2635 5.47244 2.012 5.98467 1.91011C6.4969 1.80822 7.02784 1.86052 7.51035 2.06038C7.99286 2.26024 8.40527 2.5987 8.69543 3.03295C8.98558 3.4672 9.14045 3.97773 9.14045 4.5C9.13938 5.20001 8.86082 5.87104 8.36584 6.36602C7.87086 6.861 7.19983 7.13955 6.49983 7.14062Z" fill="#00CCA7"/>
</svg>
