<svg width="14" height="14" viewBox="0 0 14 14" fill="none" xmlns="http://www.w3.org/2000/svg">
<path d="M13.9998 6.99913V6.99563C13.9998 4.9243 13.098 3.06413 11.6661 1.78494L11.6591 1.7791C11.6414 1.76004 11.6216 1.74301 11.6002 1.72835L11.599 1.72777C10.3272 0.611046 8.69169 -0.00328501 6.99923 1.32119e-05C5.23071 1.32119e-05 3.61618 0.656818 2.38545 1.7406L2.39303 1.73419C2.37819 1.74544 2.36452 1.75814 2.3522 1.7721V1.77269C1.61232 2.42785 1.02009 3.23276 0.614744 4.13409C0.209399 5.03542 0.000190943 6.01259 0.000978779 7.00088C0.000978779 9.07162 0.90157 10.9318 2.33237 12.2116L2.33937 12.2174C2.35789 12.2384 2.37862 12.2574 2.40119 12.274L2.40236 12.2746C3.67383 13.3896 5.3081 14.0031 6.99923 14C8.69825 14.0026 10.3395 13.3835 11.6136 12.2594L11.606 12.2658C12.3587 11.6114 12.9621 10.8029 13.3753 9.89506C13.7885 8.98723 14.0018 8.00124 14.001 7.00379V6.99971L13.9998 6.99913ZM11.3972 11.5518C11.0505 11.2714 10.6776 11.0249 10.2837 10.8157L10.2458 10.797C10.6033 9.76634 10.8186 8.57814 10.839 7.34211V7.33278H13.3244C13.2405 8.93186 12.5523 10.4394 11.3989 11.5501L11.3972 11.5518ZM7.33403 10.674C8.08239 10.7142 8.78174 10.8787 9.42686 11.1464L9.38486 11.1313C8.86807 12.3096 8.14071 13.1192 7.33403 13.2971V10.674ZM7.33403 10.0067V7.33278H10.1735C10.1509 8.44005 9.95895 9.53734 9.60418 10.5865L9.62692 10.5101C8.90275 10.2124 8.13254 10.0423 7.35036 10.0072L7.33461 10.0067H7.33403ZM7.33403 6.66547V3.99159C8.13731 3.95493 8.92813 3.77907 9.67125 3.47186L9.62517 3.48878C9.9489 4.43315 10.1478 5.52161 10.1735 6.65322V6.66547H7.33403ZM7.33403 3.32429V0.702316C8.14071 0.880225 8.86807 1.68636 9.38486 2.86814C8.78174 3.11896 8.08239 3.28287 7.35095 3.3237L7.33403 3.32429ZM8.99872 0.991053C9.68604 1.22031 10.3288 1.566 10.8991 2.01301L10.8857 2.00251C10.6273 2.2055 10.3374 2.39683 10.0317 2.56307L9.99906 2.5794C9.75208 1.99652 9.41251 1.45739 8.99348 0.982887L8.99872 0.989304V0.991053ZM6.66559 0.704066V3.32429C5.9461 3.28758 5.23824 3.12777 4.57276 2.85181L4.61476 2.86697C5.13388 1.68869 5.86007 0.879642 6.66675 0.701733L6.66559 0.704066ZM4.00114 2.57765C3.68496 2.40753 3.3837 2.21104 3.10055 1.99026L3.11455 2.00076C3.66817 1.56687 4.29087 1.22928 4.95656 1.00214L5.00089 0.98872C4.59284 1.45037 4.26034 1.97364 4.01573 2.53915L4.00114 2.57707V2.57765ZM6.66675 3.99101V6.66489H3.82733C3.85299 5.52102 4.05189 4.43257 4.39836 3.41178L4.37561 3.48819C5.0995 3.78537 5.86928 3.95528 6.65101 3.99042L6.66675 3.99101ZM6.66675 7.33219V10.0061C5.86347 10.0427 5.07266 10.2186 4.32953 10.5258L4.37561 10.5089C4.05189 9.5651 3.85299 8.47606 3.82733 7.34444V7.33219H6.66675ZM6.66675 10.6734V13.2954C5.86007 13.1174 5.13272 12.3113 4.61593 11.1295C5.21904 10.8787 5.9184 10.7154 6.64984 10.6746L6.66675 10.674V10.6734ZM5.00439 13.0066C4.31726 12.778 3.67447 12.4331 3.10405 11.987L3.11805 11.9975C3.37645 11.7945 3.66634 11.6032 3.97198 11.4369L4.00464 11.4206C4.24955 12.0037 4.58913 12.5424 5.00964 13.0148L5.00439 13.0089V13.0066ZM9.99964 11.42C10.3379 11.6038 10.6278 11.7945 10.9002 12.0074L10.8862 11.9969C10.3326 12.4308 9.70991 12.7684 9.04422 12.9955L8.99989 13.0089C9.40794 12.5475 9.74044 12.0244 9.98506 11.4591L9.99964 11.4212V11.42ZM13.3244 6.66547H10.839C10.8211 5.45858 10.6128 4.26207 10.2219 3.12013L10.2458 3.20062C10.6578 2.98367 11.0479 2.72738 11.4106 2.43532L11.3966 2.44582C12.5476 3.55238 13.2361 5.05428 13.3232 6.64856L13.3238 6.66489L13.3244 6.66547ZM2.60359 2.44641C2.93957 2.71939 3.31695 2.96963 3.71708 3.18254L3.755 3.20121C3.39744 4.23191 3.18221 5.42011 3.1618 6.65614V6.66547H0.675839C0.759652 5.06639 1.4479 3.5589 2.60126 2.44816L2.60301 2.44641H2.60359ZM0.676422 7.33278H3.1618C3.17968 8.53967 3.38795 9.73618 3.77891 10.8781L3.755 10.7976C3.31695 11.0304 2.94015 11.2806 2.59018 11.5629L2.60418 11.5524C1.4532 10.4459 0.76471 8.94397 0.677589 7.34969L0.677006 7.33336L0.676422 7.33278Z" fill="black"/>
</svg>
