<svg
  width="14"
  height="17"
  viewBox="0 0 14 17"
  fill="none"
  xmlns="http://www.w3.org/2000/svg"
>
<path
    d="M13.2808 5.56667C13.2717 5.54 13.2642 5.51417 13.2533 5.48833C13.2138 5.39789 13.1585 5.31521 13.09 5.24417L8.09 0.244167C8.01896 0.175652 7.93628 0.120343 7.84583 0.0808332C7.82083 0.0691666 7.79417 0.0624999 7.7675 0.0533332C7.69777 0.0296051 7.62518 0.0153118 7.55167 0.0108333C7.53333 0.00916668 7.5175 0 7.5 0H1.66667C0.7475 0 0 0.7475 0 1.66667V15C0 15.9192 0.7475 16.6667 1.66667 16.6667H11.6667C12.5858 16.6667 13.3333 15.9192 13.3333 15V5.83333C13.3333 5.81583 13.3242 5.8 13.3225 5.78167C13.3182 5.70847 13.3042 5.63616 13.2808 5.56667ZM10.4883 5H8.33333V2.845L10.4883 5ZM1.66667 15V1.66667H6.66667V5.83333C6.66667 6.05435 6.75446 6.26631 6.91074 6.42259C7.06702 6.57887 7.27899 6.66667 7.5 6.66667H11.6667L11.6683 15H1.66667Z"
    fill="#FFFFFF"
  />
</svg>
