<svg width="25" height="21" viewBox="0 0 25 21" fill="none" xmlns="http://www.w3.org/2000/svg">
<path d="M0 16.1062V19.823H10.0718V17.4814H2.39204V16.1062C2.39204 15.3133 6.33262 13.5044 10.0718 13.5044C11.2804 13.5168 12.4764 13.6779 13.6346 13.9752L15.5483 12.092C13.7857 11.5097 11.9602 11.1876 10.0718 11.1504C6.71031 11.1504 0 12.7982 0 16.1062ZM10.0718 0C7.28944 0 5.03588 2.2177 5.03588 4.95575C5.03588 7.6938 7.28944 9.9115 10.0718 9.9115C12.8541 9.9115 15.1076 7.6938 15.1076 4.95575C15.1076 2.2177 12.8541 0 10.0718 0ZM10.0718 7.43363C8.68689 7.43363 7.55382 6.33097 7.55382 4.95575C7.55382 3.58053 8.68689 2.47788 10.0718 2.47788C11.4566 2.47788 12.5897 3.59292 12.5897 4.95575C12.5897 6.31858 11.4692 7.43363 10.0718 7.43363ZM24.8017 11.5841L23.5427 12.823L20.9619 10.3451L22.2208 9.10619C22.3503 8.98134 22.5243 8.91141 22.7055 8.91141C22.8868 8.91141 23.0608 8.98134 23.1902 9.10619L24.8017 10.692C25.0661 10.9522 25.0661 11.3858 24.8017 11.646V11.5841ZM12.5897 18.5097L20.2191 11.0018L22.7999 13.4796L15.2461 21H12.5897V18.5097Z" fill="#263238"/>
</svg>
