<svg
  width="20"
  height="20"
  viewBox="0 0 20 20"
  fill="none"
  xmlns="http://www.w3.org/2000/svg"
>
<path
    d="M14.0755 19.2592H6.66811V17.7777H14.0755V5.92582H2.22367V13.3332H0.742188V5.92582C0.74258 5.53302 0.89879 5.15643 1.17654 4.87869C1.45428 4.60094 1.83088 4.44473 2.22367 4.44434H14.0755C14.4683 4.44473 14.8449 4.60094 15.1227 4.87869C15.4004 5.15643 15.5566 5.53302 15.557 5.92582V17.7777C15.5566 18.1705 15.4004 18.5471 15.1227 18.8248C14.8449 19.1025 14.4683 19.2588 14.0755 19.2592Z"
    fill="#FFFFFF"
  />
<path
    d="M18.5169 14.8148H17.0354V13.3333H18.5169V1.48148H6.66508V2.96296H5.18359V1.48148C5.18399 1.08869 5.3402 0.712096 5.61794 0.434349C5.89569 0.156602 6.27228 0.000392205 6.66508 0H18.5169C18.9097 0.000392205 19.2863 0.156602 19.5641 0.434349C19.8418 0.712096 19.998 1.08869 19.9984 1.48148V13.3333C19.998 13.7261 19.8418 14.1027 19.5641 14.3805C19.2863 14.6582 18.9097 14.8144 18.5169 14.8148Z"
    fill="#FFFFFF"
  />
<path
    d="M5.18518 8.88867V10.3702H8.58222L0 18.9524L1.04741 19.9998L9.62963 11.4176V14.8146H11.1111V8.88867H5.18518Z"
    fill="#FFFFFF"
  />
</svg>
