<svg width="17" height="16" viewBox="0 0 17 16" fill="none" xmlns="http://www.w3.org/2000/svg">
<path d="M11.2484 0.5625C11.2484 0.413316 11.3077 0.270242 11.4132 0.164752C11.5186 0.0592632 11.6617 0 11.8109 0H15.9359C16.0851 0 16.2282 0.0592632 16.3337 0.164752C16.4391 0.270242 16.4984 0.413316 16.4984 0.5625V4.6875C16.4984 4.83668 16.4391 4.97976 16.3337 5.08525C16.2282 5.19074 16.0851 5.25 15.9359 5.25C15.7867 5.25 15.6437 5.19074 15.5382 5.08525C15.4327 4.97976 15.3734 4.83668 15.3734 4.6875V1.92L10.7084 6.585C10.6569 6.64026 10.5948 6.68459 10.5258 6.71534C10.4568 6.74608 10.3823 6.76261 10.3068 6.76394C10.2313 6.76528 10.1562 6.75138 10.0862 6.72309C10.0162 6.6948 9.95254 6.65269 9.89913 6.59928C9.84571 6.54586 9.80361 6.48224 9.77531 6.4122C9.74702 6.34216 9.73313 6.26714 9.73446 6.19161C9.7358 6.11608 9.75233 6.0416 9.78307 5.9726C9.81381 5.9036 9.85814 5.8415 9.91341 5.79L14.5784 1.125H11.8109C11.6617 1.125 11.5186 1.06574 11.4132 0.960248C11.3077 0.854758 11.2484 0.711684 11.2484 0.5625Z" fill="black"/>
<path d="M1.3125 1.875C1.26277 1.875 1.21508 1.89475 1.17992 1.92992C1.14475 1.96508 1.125 2.01277 1.125 2.0625V11.4375C1.125 11.541 1.209 11.625 1.3125 11.625H3.1875C3.33668 11.625 3.47976 11.6843 3.58525 11.7898C3.69074 11.8952 3.75 12.0383 3.75 12.1875V14.58L6.54 11.79C6.64539 11.6845 6.78837 11.6251 6.9375 11.625H14.4375C14.4872 11.625 14.5349 11.6052 14.5701 11.5701C14.6052 11.5349 14.625 11.4872 14.625 11.4375V6.9375C14.625 6.78832 14.6843 6.64524 14.7898 6.53975C14.8952 6.43426 15.0383 6.375 15.1875 6.375C15.3367 6.375 15.4798 6.43426 15.5852 6.53975C15.6907 6.64524 15.75 6.78832 15.75 6.9375V11.4375C15.75 11.7856 15.6117 12.1194 15.3656 12.3656C15.1194 12.6117 14.7856 12.75 14.4375 12.75H7.17L4.49025 15.4297C4.33743 15.5825 4.14275 15.6865 3.93083 15.7286C3.71891 15.7708 3.49925 15.7491 3.29962 15.6665C3.1 15.5838 2.92936 15.4438 2.80928 15.2641C2.68921 15.0845 2.62508 14.8733 2.625 14.6572V12.75H1.3125C0.964403 12.75 0.630564 12.6117 0.384422 12.3656C0.138281 12.1194 0 11.7856 0 11.4375V2.0625C0 1.338 0.588 0.75 1.3125 0.75H9.5625C9.71168 0.75 9.85476 0.809263 9.96025 0.914752C10.0657 1.02024 10.125 1.16332 10.125 1.3125C10.125 1.46168 10.0657 1.60476 9.96025 1.71025C9.85476 1.81574 9.71168 1.875 9.5625 1.875H1.3125Z" fill="black"/>
</svg>
