<svg width="15" height="20" viewBox="0 0 15 20" fill="none" xmlns="http://www.w3.org/2000/svg">
<path d="M9.375 6.875C9.375 7.37228 9.17746 7.84919 8.82583 8.20083C8.47419 8.55246 7.99728 8.75 7.5 8.75C7.00272 8.75 6.52581 8.55246 6.17417 8.20083C5.82254 7.84919 5.625 7.37228 5.625 6.875C5.625 6.37772 5.82254 5.90081 6.17417 5.54917C6.52581 5.19754 7.00272 5 7.5 5C7.99728 5 8.47419 5.19754 8.82583 5.54917C9.17746 5.90081 9.375 6.37772 9.375 6.875ZM3.75 10.9375V11.25C3.75 11.913 4.01339 12.5489 4.48223 13.0178C4.95107 13.4866 5.58696 13.75 6.25 13.75H8.75C9.41304 13.75 10.0489 13.4866 10.5178 13.0178C10.9866 12.5489 11.25 11.913 11.25 11.25V10.9375C11.25 10.6889 11.1512 10.4504 10.9754 10.2746C10.7996 10.0988 10.5611 10 10.3125 10H4.6875C4.43886 10 4.2004 10.0988 4.02459 10.2746C3.84877 10.4504 3.75 10.6889 3.75 10.9375ZM0 2.5V17.5C0 18.163 0.263392 18.7989 0.732233 19.2678C1.20107 19.7366 1.83696 20 2.5 20H14.375C14.5408 20 14.6997 19.9342 14.8169 19.8169C14.9342 19.6997 15 19.5408 15 19.375C15 19.2092 14.9342 19.0503 14.8169 18.9331C14.6997 18.8158 14.5408 18.75 14.375 18.75H2.5C2.16848 18.75 1.85054 18.6183 1.61612 18.3839C1.3817 18.1495 1.25 17.8315 1.25 17.5H13.75C14.0815 17.5 14.3995 17.3683 14.6339 17.1339C14.8683 16.8995 15 16.5815 15 16.25V2.5C15 1.83696 14.7366 1.20107 14.2678 0.732233C13.7989 0.263392 13.163 0 12.5 0H2.5C1.83696 0 1.20107 0.263392 0.732233 0.732233C0.263392 1.20107 0 1.83696 0 2.5ZM12.5 1.25C12.8315 1.25 13.1495 1.3817 13.3839 1.61612C13.6183 1.85054 13.75 2.16848 13.75 2.5V16.25H1.25V2.5C1.25 2.16848 1.3817 1.85054 1.61612 1.61612C1.85054 1.3817 2.16848 1.25 2.5 1.25H12.5Z" fill="black"/>
</svg>
