<svg
  width="17"
  height="17"
  viewBox="0 0 17 17"
  fill="none"
  xmlns="http://www.w3.org/2000/svg"
>
<path
    d="M11.418 6.69156V6.66795C11.418 5.25128 10.313 4.21239 8.64128 4.21239C8.12956 4.20393 7.62226 4.30829 7.15542 4.51804C6.68858 4.72779 6.27367 5.03778 5.94017 5.426C5.89384 5.46894 5.85659 5.52074 5.83064 5.57833C5.80468 5.63592 5.79054 5.69813 5.78906 5.76128C5.78903 5.81954 5.80072 5.87722 5.82343 5.93087C5.84615 5.98453 5.87942 6.03306 5.92128 6.0736C5.96313 6.11413 6.01271 6.14583 6.06706 6.16681C6.12142 6.18779 6.17944 6.19762 6.23767 6.19572C6.36242 6.19263 6.48171 6.14391 6.57295 6.05878C6.82534 5.76302 7.1388 5.52544 7.49178 5.36241C7.84476 5.19937 8.22886 5.11474 8.61767 5.11433C9.73212 5.11433 10.4263 5.83211 10.4263 6.72461V6.74822C10.4263 7.79183 9.59517 8.37267 8.2824 8.47183C8.22924 8.47389 8.17711 8.48714 8.12943 8.51073C8.08175 8.53432 8.0396 8.56772 8.00572 8.60873C7.97184 8.64974 7.947 8.69745 7.93283 8.74872C7.91867 8.8 7.91549 8.85369 7.92351 8.90628V10.2049C7.93525 10.3218 7.99014 10.4301 8.07746 10.5087C8.16478 10.5873 8.27826 10.6305 8.39573 10.6299H8.44767C8.56456 10.6181 8.67287 10.5633 8.75146 10.4759C8.83004 10.3886 8.87326 10.2751 8.87267 10.1577V9.18489C10.2705 8.97239 11.418 8.24045 11.418 6.69156Z"
    fill="#FFFFFF"
  />
<path
    d="M8.39497 12.9623C8.72097 12.9623 8.98524 12.698 8.98524 12.372C8.98524 12.046 8.72097 11.7817 8.39497 11.7817C8.06896 11.7817 7.80469 12.046 7.80469 12.372C7.80469 12.698 8.06896 12.9623 8.39497 12.9623Z"
    fill="#FFFFFF"
  />
<path
    d="M15.6381 6.0494C15.3512 6.18085 15.0478 6.27297 14.7362 6.32328C15.2345 7.74203 15.2361 9.28798 14.7407 10.7078C14.2453 12.1275 13.2823 13.3369 12.0096 14.1377C10.7368 14.9385 9.22978 15.2831 7.73546 15.1152C6.24115 14.9473 4.8482 14.2767 3.78491 13.2134C2.72163 12.1502 2.05107 10.7572 1.88315 9.26289C1.71523 7.76858 2.0599 6.26155 2.86068 4.98878C3.66145 3.71602 4.87083 2.75303 6.29061 2.25764C7.71038 1.76225 9.25633 1.76385 10.6751 2.26217C10.7254 1.95059 10.8176 1.64721 10.949 1.36023C9.32749 0.799562 7.56382 0.805262 5.946 1.3764C4.32818 1.94753 2.95182 3.05035 2.04172 4.50473C1.13161 5.95912 0.741535 7.67912 0.935204 9.38382C1.12887 11.0885 1.89484 12.6772 3.108 13.8904C4.32116 15.1035 5.90983 15.8695 7.61453 16.0632C9.31924 16.2568 11.0392 15.8667 12.4936 14.9566C13.948 14.0465 15.0508 12.6702 15.622 11.0524C16.1931 9.43454 16.1988 7.67087 15.6381 6.0494Z"
    fill="#FFFFFF"
  />
<path
    d="M14.1658 5.19439C15.4698 5.19439 16.5269 4.13728 16.5269 2.83328C16.5269 1.52927 15.4698 0.472168 14.1658 0.472168C12.8618 0.472168 11.8047 1.52927 11.8047 2.83328C11.8047 4.13728 12.8618 5.19439 14.1658 5.19439Z"
    fill="#FFFFFF"
  />
</svg>
