<svg width="15" height="15" viewBox="0 0 15 15" fill="none" xmlns="http://www.w3.org/2000/svg">
<path d="M14.0625 15H0.9375C0.683594 15 0.463867 14.9072 0.27832 14.7217C0.0927734 14.5361 0 14.3164 0 14.0625V9.375C0 9.11133 0.0927734 8.88916 0.27832 8.7085C0.463867 8.52783 0.683594 8.4375 0.9375 8.4375H14.0625C14.3164 8.4375 14.5361 8.52783 14.7217 8.7085C14.9072 8.88916 15 9.11133 15 9.375V14.0625C15 14.3164 14.9072 14.5361 14.7217 14.7217C14.5361 14.9072 14.3164 15 14.0625 15ZM14.0625 9.84375C14.0625 9.7168 14.0161 9.60693 13.9233 9.51416C13.8306 9.42139 13.7207 9.375 13.5938 9.375H1.40625C1.2793 9.375 1.16943 9.42139 1.07666 9.51416C0.983887 9.60693 0.9375 9.7168 0.9375 9.84375V13.5938C0.9375 13.7207 0.983887 13.8306 1.07666 13.9233C1.16943 14.0161 1.2793 14.0625 1.40625 14.0625H13.5938C13.7207 14.0625 13.8306 14.0161 13.9233 13.9233C14.0161 13.8306 14.0625 13.7207 14.0625 13.5938V9.84375ZM11.25 13.125C10.9863 13.125 10.7642 13.0322 10.5835 12.8467C10.4028 12.6611 10.3125 12.439 10.3125 12.1802C10.3125 11.9214 10.4028 11.7017 10.5835 11.521C10.7642 11.3403 10.9863 11.25 11.25 11.25C11.5137 11.25 11.7358 11.3403 11.9165 11.521C12.0972 11.7017 12.1875 11.9214 12.1875 12.1802C12.1875 12.439 12.0972 12.6611 11.9165 12.8467C11.7358 13.0322 11.5137 13.125 11.25 13.125ZM8.44483 13.125C8.18604 13.125 7.96387 13.0322 7.77832 12.8467C7.59277 12.6611 7.5 12.439 7.5 12.1802C7.5 11.9214 7.59277 11.7017 7.77832 11.521C7.96387 11.3403 8.18604 11.25 8.44483 11.25C8.70361 11.25 8.92334 11.3403 9.104 11.521C9.28467 11.7017 9.375 11.9214 9.375 12.1802C9.375 12.439 9.28467 12.6611 9.104 12.8467C8.92334 13.0322 8.70361 13.125 8.44483 13.125ZM5.625 13.125C5.36133 13.125 5.13916 13.0322 4.9585 12.8467C4.77783 12.6611 4.6875 12.439 4.6875 12.1802C4.6875 11.9214 4.77783 11.7017 4.9585 11.521C5.13916 11.3403 5.36133 11.25 5.625 11.25C5.88867 11.25 6.11084 11.3403 6.2915 11.521C6.47217 11.7017 6.5625 11.9214 6.5625 12.1802C6.5625 12.439 6.47217 12.6611 6.2915 12.8467C6.11084 13.0322 5.88867 13.125 5.625 13.125ZM2.8125 13.125C2.54883 13.125 2.32666 13.0322 2.146 12.8467C1.96533 12.6611 1.875 12.439 1.875 12.1802C1.875 11.9214 1.96533 11.7017 2.146 11.521C2.32666 11.3403 2.54883 11.25 2.8125 11.25C3.07617 11.25 3.29834 11.3403 3.479 11.521C3.65967 11.7017 3.75 11.9214 3.75 12.1802C3.75 12.439 3.65967 12.6611 3.479 12.8467C3.29834 13.0322 3.07617 13.125 2.8125 13.125ZM14.0625 6.5625H0.9375C0.683594 6.5625 0.463867 6.46973 0.27832 6.28418C0.0927734 6.09863 0 5.87891 0 5.625V0.9375C0 0.673828 0.0927734 0.45166 0.27832 0.270996C0.463867 0.090332 0.683594 0 0.9375 0H14.0625C14.3164 0 14.5361 0.090332 14.7217 0.270996C14.9072 0.45166 15 0.673828 15 0.9375V5.625C15 5.87891 14.9072 6.09863 14.7217 6.28418C14.5361 6.46973 14.3164 6.5625 14.0625 6.5625ZM14.0625 1.40625C14.0625 1.2793 14.0161 1.16943 13.9233 1.07666C13.8306 0.983887 13.7207 0.9375 13.5938 0.9375H1.40625C1.2793 0.9375 1.16943 0.983887 1.07666 1.07666C0.983887 1.16943 0.9375 1.2793 0.9375 1.40625V5.15625C0.9375 5.2832 0.983887 5.39307 1.07666 5.48584C1.16943 5.57861 1.2793 5.625 1.40625 5.625H13.5938C13.7207 5.625 13.8306 5.57861 13.9233 5.48584C14.0161 5.39307 14.0625 5.2832 14.0625 5.15625V1.40625ZM2.34375 4.6875C2.2168 4.6875 2.10693 4.64111 2.01416 4.54834C1.92139 4.45557 1.875 4.3457 1.875 4.21875V2.34375C1.875 2.2168 1.92139 2.10693 2.01416 2.01416C2.10693 1.92139 2.2168 1.875 2.34375 1.875C2.4707 1.875 2.58057 1.92139 2.67334 2.01416C2.76611 2.10693 2.8125 2.2168 2.8125 2.34375V4.21875C2.8125 4.3457 2.76611 4.45557 2.67334 4.54834C2.58057 4.64111 2.4707 4.6875 2.34375 4.6875Z" fill="black"/>
</svg>
