<svg width="18" height="16" viewBox="0 0 18 16" fill="none" xmlns="http://www.w3.org/2000/svg">
<path d="M16.7143 1.28571V14.1429H1.28571V1.28571H16.7143ZM16.7143 0H1.28571C0.944722 0 0.617695 0.135459 0.376577 0.376577C0.135459 0.617695 0 0.944722 0 1.28571V14.1429C0 14.4838 0.135459 14.8109 0.376577 15.052C0.617695 15.2931 0.944722 15.4286 1.28571 15.4286H16.7143C17.0553 15.4286 17.3823 15.2931 17.6234 15.052C17.8645 14.8109 18 14.4838 18 14.1429V1.28571C18 0.944722 17.8645 0.617695 17.6234 0.376577C17.3823 0.135459 17.0553 0 16.7143 0Z" fill="black"/>
<path d="M2.57031 3.85693H7.07031V5.14265H2.57031V3.85693Z" fill="black"/>
<path d="M2.57031 6.4292H5.14174V7.71491H2.57031V6.4292Z" fill="black"/>
<path d="M13.5006 8.99951H9.64342C9.13193 8.99951 8.64139 9.2027 8.27971 9.56438C7.91803 9.92605 7.71484 10.4166 7.71484 10.9281V12.2138H9.00056V10.9281C9.00056 10.7576 9.06829 10.5941 9.18885 10.4735C9.30941 10.353 9.47292 10.2852 9.64342 10.2852H13.5006C13.6711 10.2852 13.8346 10.353 13.9551 10.4735C14.0757 10.5941 14.1434 10.7576 14.1434 10.9281V12.2138H15.4291V10.9281C15.4291 10.4166 15.2259 9.92605 14.8643 9.56438C14.5026 9.2027 14.012 8.99951 13.5006 8.99951Z" fill="black"/>
<path d="M11.5714 8.35673C12.08 8.35673 12.5772 8.20591 13 7.92336C13.4229 7.64081 13.7525 7.23921 13.9471 6.76934C14.1417 6.29947 14.1927 5.78244 14.0934 5.28364C13.9942 4.78483 13.7493 4.32664 13.3897 3.96702C13.0301 3.6074 12.5719 3.3625 12.0731 3.26328C11.5743 3.16406 11.0573 3.21498 10.5874 3.40961C10.1175 3.60423 9.71592 3.93382 9.43336 4.35669C9.15081 4.77956 9 5.27672 9 5.7853C9 6.46728 9.27092 7.12134 9.75315 7.60357C10.2354 8.08581 10.8894 8.35673 11.5714 8.35673ZM11.5714 4.49958C11.8257 4.49958 12.0743 4.57499 12.2857 4.71626C12.4972 4.85754 12.662 5.05834 12.7593 5.29328C12.8566 5.52821 12.882 5.78672 12.8324 6.03613C12.7828 6.28553 12.6604 6.51462 12.4806 6.69443C12.3008 6.87424 12.0717 6.9967 11.8223 7.04631C11.5729 7.09592 11.3143 7.07045 11.0794 6.97314C10.8445 6.87583 10.6437 6.71104 10.5024 6.4996C10.3611 6.28817 10.2857 6.03959 10.2857 5.7853C10.2857 5.4443 10.4212 5.11728 10.6623 4.87616C10.9034 4.63504 11.2304 4.49958 11.5714 4.49958Z" fill="black"/>
</svg>
