<svg
  width="19"
  height="19"
  viewBox="0 0 19 19"
  fill="none"
  xmlns="http://www.w3.org/2000/svg"
>
<path
    d="M16.164 10.3741C16.2022 10.0839 16.2226 9.79172 16.2253 9.49908C16.2226 9.20645 16.2022 8.91424 16.164 8.62408L18.0584 7.14096C18.144 7.07562 18.2024 6.98103 18.2226 6.87529C18.2428 6.76955 18.2233 6.66009 18.1678 6.56783L16.374 3.45721C16.3221 3.36391 16.2378 3.29283 16.1371 3.25737C16.0363 3.22191 15.9261 3.22452 15.8272 3.26471L13.5915 4.16596C13.1263 3.81092 12.6176 3.51687 12.0778 3.29096L11.7409 0.915334C11.7261 0.810213 11.6735 0.714081 11.593 0.644857C11.5125 0.575632 11.4096 0.538039 11.3034 0.539084H7.70717C7.60101 0.538039 7.49809 0.575632 7.4176 0.644857C7.3371 0.714081 7.28453 0.810213 7.26967 0.915334L6.93279 3.29096C6.39226 3.51546 5.88337 3.80961 5.41904 4.16596L3.17467 3.26471C3.07573 3.22452 2.9655 3.22191 2.86477 3.25737C2.76403 3.29283 2.67975 3.36391 2.62779 3.45721L0.834045 6.56783C0.778574 6.66009 0.759062 6.76955 0.779241 6.87529C0.79942 6.98103 0.857874 7.07562 0.94342 7.14096L2.83342 8.62408C2.79546 8.91426 2.775 9.20645 2.77217 9.49908C2.77485 9.79172 2.79531 10.0839 2.83342 10.3741L0.94342 11.8572C0.857874 11.9226 0.79942 12.0171 0.779241 12.1229C0.759062 12.2286 0.778574 12.3381 0.834045 12.4303L2.62779 15.541C2.67975 15.6343 2.76403 15.7053 2.86477 15.7408C2.9655 15.7763 3.07573 15.7736 3.17467 15.7335L5.41029 14.8322C5.87549 15.1872 6.38421 15.4813 6.92404 15.7072L7.26092 18.0828C7.27578 18.188 7.32835 18.2841 7.40885 18.3533C7.48934 18.4225 7.59226 18.4601 7.69842 18.4591H11.2859C11.3921 18.4601 11.495 18.4225 11.5755 18.3533C11.656 18.2841 11.7086 18.188 11.7234 18.0828L12.0603 15.7072C12.6008 15.4827 13.1097 15.1886 13.574 14.8322L15.8097 15.7335C15.9086 15.7736 16.0188 15.7763 16.1196 15.7408C16.2203 15.7053 16.3046 15.6343 16.3565 15.541L18.1503 12.4303C18.2058 12.3381 18.2253 12.2286 18.2051 12.1229C18.1849 12.0171 18.1265 11.9226 18.0409 11.8572L16.164 10.3741ZM9.50092 12.6403C8.87945 12.6412 8.2717 12.4577 7.75454 12.1131C7.23739 11.7684 6.83409 11.2781 6.59567 10.7042C6.35724 10.1303 6.29441 9.49857 6.41512 8.88894C6.53583 8.27931 6.83466 7.71919 7.2738 7.27944C7.71294 6.83969 8.27264 6.54008 8.88211 6.41852C9.49157 6.29696 10.1234 6.35891 10.6976 6.59653C11.2719 6.83416 11.7627 7.23678 12.1081 7.75345C12.4535 8.27012 12.6378 8.87762 12.6378 9.49908C12.6384 9.91139 12.5577 10.3198 12.4003 10.7009C12.2429 11.0819 12.0119 11.4283 11.7206 11.72C11.4292 12.0118 11.0832 12.2432 10.7024 12.4011C10.3215 12.5591 9.91323 12.6403 9.50092 12.6403V12.6403Z"
    stroke="#000"
    stroke-linecap="round"
    stroke-linejoin="round"
  />
</svg>
