<svg
  width="25"
  height="17"
  viewBox="0 0 25 17"
  fill="none"
  xmlns="http://www.w3.org/2000/svg"
>
<path d="M0 0H1.66667V1.66667H0V0Z" fill="#000" />
<path
    d="M4.16536 1.66667H24.1654C24.3864 1.66667 24.5983 1.57887 24.7546 1.42259C24.9109 1.26631 24.9987 1.05435 24.9987 0.833333C24.9987 0.61232 24.9109 0.400358 24.7546 0.244078C24.5983 0.0877975 24.3864 0 24.1654 0H4.16536C3.94435 0 3.73239 0.0877975 3.57611 0.244078C3.41983 0.400358 3.33203 0.61232 3.33203 0.833333C3.33203 1.05435 3.41983 1.26631 3.57611 1.42259C3.73239 1.57887 3.94435 1.66667 4.16536 1.66667Z"
    fill="#000"
  />
<path d="M0 5.00049H1.66667V6.66715H0V5.00049Z" fill="#000" />
<path
    d="M24.1654 5.00049H4.16536C3.94435 5.00049 3.73239 5.08829 3.57611 5.24457C3.41983 5.40085 3.33203 5.61281 3.33203 5.83382C3.33203 6.05484 3.41983 6.2668 3.57611 6.42308C3.73239 6.57936 3.94435 6.66715 4.16536 6.66715H24.1654C24.3864 6.66715 24.5983 6.57936 24.7546 6.42308C24.9109 6.2668 24.9987 6.05484 24.9987 5.83382C24.9987 5.61281 24.9109 5.40085 24.7546 5.24457C24.5983 5.08829 24.3864 5.00049 24.1654 5.00049Z"
    fill="#000"
  />
<path d="M0 10.0005H1.66667V11.6672H0V10.0005Z" fill="#000" />
<path
    d="M24.1654 10.0005H4.16536C3.94435 10.0005 3.73239 10.0883 3.57611 10.2446C3.41983 10.4008 3.33203 10.6128 3.33203 10.8338C3.33203 11.0548 3.41983 11.2668 3.57611 11.4231C3.73239 11.5794 3.94435 11.6672 4.16536 11.6672H24.1654C24.3864 11.6672 24.5983 11.5794 24.7546 11.4231C24.9109 11.2668 24.9987 11.0548 24.9987 10.8338C24.9987 10.6128 24.9109 10.4008 24.7546 10.2446C24.5983 10.0883 24.3864 10.0005 24.1654 10.0005Z"
    fill="#000"
  />
<path d="M0 14.9995H1.66667V16.6662H0V14.9995Z" fill="#000" />
<path
    d="M24.1654 14.9995H4.16536C3.94435 14.9995 3.73239 15.0873 3.57611 15.2436C3.41983 15.3999 3.33203 15.6118 3.33203 15.8328C3.33203 16.0539 3.41983 16.2658 3.57611 16.4221C3.73239 16.5784 3.94435 16.6662 4.16536 16.6662H24.1654C24.3864 16.6662 24.5983 16.5784 24.7546 16.4221C24.9109 16.2658 24.9987 16.0539 24.9987 15.8328C24.9987 15.6118 24.9109 15.3999 24.7546 15.2436C24.5983 15.0873 24.3864 14.9995 24.1654 14.9995Z"
    fill="#000"
  />
</svg>
